<svg width="203" height="38" viewBox="0 0 203 38" fill="none" xmlns="http://www.w3.org/2000/svg">
<g clip-path="url(#clip0_50_21117)">
<path d="M19.9191 27.277C34.235 29.0559 47.5704 30.6372 60.9058 32.4161C61.8863 32.6138 62.6708 33.7997 64.828 35.5787C58.5525 36.3693 53.6498 37.3576 48.7471 37.5552C35.8039 37.9506 23.0568 37.9506 10.1136 37.9506C8.54474 37.9506 6.97588 38.1482 5.40701 37.7529C0.308176 36.7646 -1.45682 33.4044 1.28871 28.8583C2.66147 26.684 4.23034 24.7074 5.99532 22.9285C12.663 16.2081 19.5268 9.68531 26.3906 3.16256C27.5673 1.9766 29.3323 1.38361 31.6856 0C32.0778 10.0806 22.0762 12.8478 19.9191 20.7542C21.684 20.3589 23.2529 20.1612 24.6257 19.7659C77.5751 5.13914 130.328 6.72043 182.886 20.9519C188.377 22.3355 193.672 24.5097 198.966 26.4863C201.712 27.4746 204.065 29.6489 202.496 33.0091C201.124 36.3693 198.378 36.3693 195.24 34.9857C160.137 19.173 122.876 17.394 85.2233 17.987C65.6124 18.1847 46.3938 20.3589 27.3712 24.9051C25.0179 25.498 22.6646 26.2887 19.9191 27.277Z" fill="white"/>
</g>
<defs>
<clipPath id="clip0_50_21117">
<rect width="203" height="38" fill="white"/>
</clipPath>
</defs>
</svg>
