<svg width="22" height="22" viewBox="0 0 22 22" fill="none" xmlns="http://www.w3.org/2000/svg">
<path d="M1.50669 5.71107L2.19269 6.12267L1.50669 5.71107ZM3.29759 2.72624L3.98358 3.13783L3.29759 2.72624ZM18.7024 2.72624L18.0164 3.13783V3.13783L18.7024 2.72624ZM20.4933 5.71107L19.8073 6.12267L20.4933 5.71107ZM17.0845 1.10532L16.8411 1.86741L16.8411 1.86741L17.0845 1.10532ZM17.8759 1.5534L18.4041 0.952619L18.4041 0.952618L17.8759 1.5534ZM4.12413 1.5534L4.65239 2.15417V2.15417L4.12413 1.5534ZM4.9155 1.10532L4.67213 0.343242L4.67213 0.343242L4.9155 1.10532ZM20.9709 6.81237L20.1814 6.94151V6.94151L20.9709 6.81237ZM20.8429 6.35033L21.5863 6.05487L21.5863 6.05486L20.8429 6.35033ZM19.7866 20.7578L19.4235 20.045L19.4235 20.045L19.7866 20.7578ZM20.7578 19.7866L20.045 19.4235L20.045 19.4235L20.7578 19.7866ZM1.24221 19.7866L0.529402 20.1498H0.529403L1.24221 19.7866ZM2.21335 20.7578L2.57655 20.045L2.57655 20.045L2.21335 20.7578ZM1.02914 6.81237L0.239632 6.68324L1.02914 6.81237ZM1.15712 6.35033L0.413683 6.05486L0.413683 6.05486L1.15712 6.35033ZM2.11111 5.75556C1.66928 5.75556 1.31111 6.11373 1.31111 6.55556C1.31111 6.99738 1.66928 7.35556 2.11111 7.35556V5.75556ZM19.8889 7.35556C20.3307 7.35556 20.6889 6.99738 20.6889 6.55556C20.6889 6.11373 20.3307 5.75556 19.8889 5.75556V7.35556ZM14.3333 11.8C14.7752 11.8 15.1333 11.4418 15.1333 11C15.1333 10.5582 14.7752 10.2 14.3333 10.2V11.8ZM7.66667 10.2C7.22484 10.2 6.86667 10.5582 6.86667 11C6.86667 11.4418 7.22484 11.8 7.66667 11.8V10.2ZM0.2 7.54039V17.4444H1.8V7.54039H0.2ZM4.55556 21.8H17.4444V20.2H4.55556V21.8ZM21.8 17.4444V7.54039H20.2V17.4444H21.8ZM2.19269 6.12267L3.98358 3.13783L2.6116 2.31464L0.820698 5.29947L2.19269 6.12267ZM6.34645 1.8H15.6535V0.2H6.34645V1.8ZM18.0164 3.13783L19.8073 6.12267L21.1793 5.29947L19.3884 2.31464L18.0164 3.13783ZM15.6535 1.8C16.4405 1.8 16.6582 1.80899 16.8411 1.86741L17.3279 0.343242C16.8512 0.191012 16.3348 0.2 15.6535 0.2V1.8ZM19.3884 2.31464C19.0379 1.73049 18.7799 1.28305 18.4041 0.952619L17.3476 2.15417C17.4918 2.28098 17.6115 2.46302 18.0164 3.13783L19.3884 2.31464ZM16.8411 1.86741C17.0279 1.92706 17.2004 2.02469 17.3476 2.15417L18.4041 0.952618C18.0912 0.677471 17.7248 0.470002 17.3279 0.343242L16.8411 1.86741ZM3.98358 3.13783C4.38847 2.46303 4.50818 2.28098 4.65239 2.15417L3.59586 0.952619C3.22007 1.28305 2.96209 1.73049 2.6116 2.31464L3.98358 3.13783ZM6.34645 0.2C5.66522 0.2 5.14882 0.191012 4.67213 0.343242L5.15887 1.86741C5.34181 1.80899 5.5595 1.8 6.34645 1.8V0.2ZM4.65239 2.15417C4.79965 2.02469 4.97208 1.92706 5.15887 1.86741L4.67213 0.343242C4.2752 0.470002 3.90877 0.677471 3.59586 0.952619L4.65239 2.15417ZM21.8 7.54039C21.8 7.19896 21.8024 6.94026 21.7604 6.68324L20.1814 6.94151C20.1976 7.04082 20.2 7.14869 20.2 7.54039H21.8ZM19.8073 6.12267C20.0088 6.45854 20.0623 6.55228 20.0994 6.6458L21.5863 6.05486C21.4901 5.81284 21.355 5.59225 21.1793 5.29947L19.8073 6.12267ZM21.7604 6.68324C21.7252 6.46812 21.6668 6.25743 21.5863 6.05487L20.0994 6.64579C20.1373 6.74112 20.1648 6.84027 20.1814 6.94151L21.7604 6.68324ZM17.4444 21.8C18.0535 21.8 18.5584 21.8006 18.9691 21.7671C19.3892 21.7327 19.7806 21.6587 20.1498 21.4706L19.4235 20.045C19.3173 20.0991 19.1599 20.1461 18.8389 20.1724C18.5084 20.1994 18.0799 20.2 17.4444 20.2V21.8ZM20.2 17.4444C20.2 18.0799 20.1994 18.5084 20.1724 18.8389C20.1461 19.1599 20.0991 19.3173 20.045 19.4235L21.4706 20.1498C21.6587 19.7806 21.7327 19.3892 21.7671 18.9691C21.8006 18.5584 21.8 18.0535 21.8 17.4444H20.2ZM20.1498 21.4706C20.7185 21.1808 21.1808 20.7185 21.4706 20.1498L20.045 19.4235C19.9086 19.6911 19.6911 19.9086 19.4235 20.045L20.1498 21.4706ZM0.2 17.4444C0.2 18.0535 0.199378 18.5584 0.232933 18.9691C0.267251 19.3892 0.341258 19.7806 0.529402 20.1498L1.95501 19.4235C1.90095 19.3174 1.85385 19.1599 1.82762 18.8389C1.80062 18.5084 1.8 18.0799 1.8 17.4444H0.2ZM4.55556 20.2C3.92007 20.2 3.49158 20.1994 3.16115 20.1724C2.84006 20.1461 2.68265 20.0991 2.57655 20.045L1.85016 21.4706C2.21942 21.6587 2.61083 21.7327 3.03086 21.7671C3.44155 21.8006 3.94648 21.8 4.55556 21.8V20.2ZM0.529403 20.1498C0.819153 20.7185 1.28149 21.1808 1.85016 21.4706L2.57655 20.045C2.30894 19.9086 2.09137 19.6911 1.95501 19.4235L0.529403 20.1498ZM1.8 7.54039C1.8 7.14869 1.80241 7.04082 1.81865 6.94151L0.239632 6.68324C0.197593 6.94026 0.2 7.19896 0.2 7.54039H1.8ZM0.820698 5.29947C0.645034 5.59225 0.509872 5.81284 0.413683 6.05486L1.90056 6.6458C1.93772 6.55228 1.99116 6.45855 2.19269 6.12267L0.820698 5.29947ZM1.81865 6.94151C1.83521 6.84027 1.86267 6.74113 1.90056 6.6458L0.413683 6.05486C0.333174 6.25743 0.274818 6.46812 0.239632 6.68324L1.81865 6.94151ZM2.11111 7.35556H19.8889V5.75556H2.11111V7.35556ZM14.3333 11C14.3333 10.2 14.3333 10.2 14.3333 10.2C14.3333 10.2 14.3333 10.2 14.3333 10.2C14.3332 10.2 14.3332 10.2 14.3332 10.2C14.3331 10.2 14.3331 10.2 14.3331 10.2C14.333 10.2 14.333 10.2 14.3329 10.2C14.3329 10.2 14.3328 10.2 14.3327 10.2C14.3327 10.2 14.3326 10.2 14.3325 10.2C14.3324 10.2 14.3323 10.2 14.3322 10.2C14.3322 10.2 14.3321 10.2 14.332 10.2C14.3319 10.2 14.3317 10.2 14.3316 10.2C14.3315 10.2 14.3314 10.2 14.3313 10.2C14.3312 10.2 14.331 10.2 14.3309 10.2C14.3308 10.2 14.3306 10.2 14.3305 10.2C14.3303 10.2 14.3302 10.2 14.33 10.2C14.3299 10.2 14.3297 10.2 14.3295 10.2C14.3294 10.2 14.3292 10.2 14.329 10.2C14.3288 10.2 14.3286 10.2 14.3284 10.2C14.3282 10.2 14.3281 10.2 14.3279 10.2C14.3276 10.2 14.3274 10.2 14.3272 10.2C14.327 10.2 14.3268 10.2 14.3266 10.2C14.3263 10.2 14.3261 10.2 14.3259 10.2C14.3256 10.2 14.3254 10.2 14.3252 10.2C14.3249 10.2 14.3247 10.2 14.3244 10.2C14.3241 10.2 14.3239 10.2 14.3236 10.2C14.3233 10.2 14.3231 10.2 14.3228 10.2C14.3225 10.2 14.3222 10.2 14.3219 10.2C14.3216 10.2 14.3214 10.2 14.3211 10.2C14.3208 10.2 14.3204 10.2 14.3201 10.2C14.3198 10.2 14.3195 10.2 14.3192 10.2C14.3189 10.2 14.3185 10.2 14.3182 10.2C14.3179 10.2 14.3175 10.2 14.3172 10.2C14.3168 10.2 14.3165 10.2 14.3161 10.2C14.3158 10.2 14.3154 10.2 14.315 10.2C14.3147 10.2 14.3143 10.2 14.3139 10.2C14.3135 10.2 14.3132 10.2 14.3128 10.2C14.3124 10.2 14.312 10.2 14.3116 10.2C14.3112 10.2 14.3108 10.2 14.3104 10.2C14.31 10.2 14.3096 10.2 14.3091 10.2C14.3087 10.2 14.3083 10.2 14.3079 10.2C14.3074 10.2 14.307 10.2 14.3066 10.2C14.3061 10.2 14.3057 10.2 14.3052 10.2C14.3048 10.2 14.3043 10.2 14.3038 10.2C14.3034 10.2 14.3029 10.2 14.3024 10.2C14.302 10.2 14.3015 10.2 14.301 10.2C14.3005 10.2 14.3 10.2 14.2995 10.2C14.299 10.2 14.2985 10.2 14.298 10.2C14.2975 10.2 14.297 10.2 14.2965 10.2C14.296 10.2 14.2955 10.2 14.2949 10.2C14.2944 10.2 14.2939 10.2 14.2933 10.2C14.2928 10.2 14.2922 10.2 14.2917 10.2C14.2912 10.2 14.2906 10.2 14.29 10.2C14.2895 10.2 14.2889 10.2 14.2884 10.2C14.2878 10.2 14.2872 10.2 14.2866 10.2C14.286 10.2 14.2855 10.2 14.2849 10.2C14.2843 10.2 14.2837 10.2 14.2831 10.2C14.2825 10.2 14.2819 10.2 14.2813 10.2C14.2807 10.2 14.28 10.2 14.2794 10.2C14.2788 10.2 14.2782 10.2 14.2775 10.2C14.2769 10.2 14.2763 10.2 14.2756 10.2C14.275 10.2 14.2743 10.2 14.2737 10.2C14.273 10.2 14.2724 10.2 14.2717 10.2C14.2711 10.2 14.2704 10.2 14.2697 10.2C14.269 10.2 14.2684 10.2 14.2677 10.2C14.267 10.2 14.2663 10.2 14.2656 10.2C14.2649 10.2 14.2642 10.2 14.2635 10.2C14.2628 10.2 14.2621 10.2 14.2614 10.2C14.2607 10.2 14.26 10.2 14.2592 10.2C14.2585 10.2 14.2578 10.2 14.257 10.2C14.2563 10.2 14.2556 10.2 14.2548 10.2C14.2541 10.2 14.2533 10.2 14.2526 10.2C14.2518 10.2 14.2511 10.2 14.2503 10.2C14.2495 10.2 14.2488 10.2 14.248 10.2C14.2472 10.2 14.2464 10.2 14.2456 10.2C14.2448 10.2 14.2441 10.2 14.2433 10.2C14.2425 10.2 14.2417 10.2 14.2409 10.2C14.2401 10.2 14.2392 10.2 14.2384 10.2C14.2376 10.2 14.2368 10.2 14.236 10.2C14.2351 10.2 14.2343 10.2 14.2335 10.2C14.2326 10.2 14.2318 10.2 14.2309 10.2C14.2301 10.2 14.2292 10.2 14.2284 10.2C14.2275 10.2 14.2267 10.2 14.2258 10.2C14.2249 10.2 14.2241 10.2 14.2232 10.2C14.2223 10.2 14.2214 10.2 14.2205 10.2C14.2197 10.2 14.2188 10.2 14.2179 10.2C14.217 10.2 14.2161 10.2 14.2152 10.2C14.2143 10.2 14.2134 10.2 14.2124 10.2C14.2115 10.2 14.2106 10.2 14.2097 10.2C14.2087 10.2 14.2078 10.2 14.2069 10.2C14.2059 10.2 14.205 10.2 14.2041 10.2C14.2031 10.2 14.2022 10.2 14.2012 10.2C14.2003 10.2 14.1993 10.2 14.1983 10.2C14.1974 10.2 14.1964 10.2 14.1954 10.2C14.1944 10.2 14.1935 10.2 14.1925 10.2C14.1915 10.2 14.1905 10.2 14.1895 10.2C14.1885 10.2 14.1875 10.2 14.1865 10.2C14.1855 10.2 14.1845 10.2 14.1835 10.2C14.1825 10.2 14.1814 10.2 14.1804 10.2C14.1794 10.2 14.1784 10.2 14.1773 10.2C14.1763 10.2 14.1753 10.2 14.1742 10.2C14.1732 10.2 14.1721 10.2 14.1711 10.2C14.17 10.2 14.169 10.2 14.1679 10.2C14.1668 10.2 14.1658 10.2 14.1647 10.2C14.1636 10.2 14.1625 10.2 14.1615 10.2C14.1604 10.2 14.1593 10.2 14.1582 10.2C14.1571 10.2 14.156 10.2 14.1549 10.2C14.1538 10.2 14.1527 10.2 14.1516 10.2C14.1505 10.2 14.1494 10.2 14.1482 10.2C14.1471 10.2 14.146 10.2 14.1449 10.2C14.1437 10.2 14.1426 10.2 14.1415 10.2C14.1403 10.2 14.1392 10.2 14.138 10.2C14.1369 10.2 14.1357 10.2 14.1346 10.2C14.1334 10.2 14.1322 10.2 14.1311 10.2C14.1299 10.2 14.1287 10.2 14.1275 10.2C14.1264 10.2 14.1252 10.2 14.124 10.2C14.1228 10.2 14.1216 10.2 14.1204 10.2C14.1192 10.2 14.118 10.2 14.1168 10.2C14.1156 10.2 14.1144 10.2 14.1132 10.2C14.112 10.2 14.1108 10.2 14.1095 10.2C14.1083 10.2 14.1071 10.2 14.1058 10.2C14.1046 10.2 14.1034 10.2 14.1021 10.2C14.1009 10.2 14.0996 10.2 14.0984 10.2C14.0971 10.2 14.0959 10.2 14.0946 10.2C14.0933 10.2 14.0921 10.2 14.0908 10.2C14.0895 10.2 14.0883 10.2 14.087 10.2C14.0857 10.2 14.0844 10.2 14.0831 10.2C14.0818 10.2 14.0805 10.2 14.0792 10.2C14.0779 10.2 14.0766 10.2 14.0753 10.2C14.074 10.2 14.0727 10.2 14.0714 10.2C14.0701 10.2 14.0687 10.2 14.0674 10.2C14.0661 10.2 14.0648 10.2 14.0634 10.2C14.0621 10.2 14.0607 10.2 14.0594 10.2C14.0581 10.2 14.0567 10.2 14.0554 10.2C14.054 10.2 14.0526 10.2 14.0513 10.2C14.0499 10.2 14.0485 10.2 14.0472 10.2C14.0458 10.2 14.0444 10.2 14.043 10.2C14.0417 10.2 14.0403 10.2 14.0389 10.2C14.0375 10.2 14.0361 10.2 14.0347 10.2C14.0333 10.2 14.0319 10.2 14.0305 10.2C14.0291 10.2 14.0277 10.2 14.0262 10.2C14.0248 10.2 14.0234 10.2 14.022 10.2C14.0205 10.2 14.0191 10.2 14.0177 10.2C14.0162 10.2 14.0148 10.2 14.0134 10.2C14.0119 10.2 14.0105 10.2 14.009 10.2C14.0076 10.2 14.0061 10.2 14.0046 10.2C14.0032 10.2 14.0017 10.2 14.0002 10.2C13.9988 10.2 13.9973 10.2 13.9958 10.2C13.9943 10.2 13.9928 10.2 13.9913 10.2C13.9899 10.2 13.9884 10.2 13.9869 10.2C13.9854 10.2 13.9839 10.2 13.9824 10.2C13.9808 10.2 13.9793 10.2 13.9778 10.2C13.9763 10.2 13.9748 10.2 13.9733 10.2C13.9717 10.2 13.9702 10.2 13.9687 10.2C13.9671 10.2 13.9656 10.2 13.9641 10.2C13.9625 10.2 13.961 10.2 13.9594 10.2C13.9579 10.2 13.9563 10.2 13.9547 10.2C13.9532 10.2 13.9516 10.2 13.9501 10.2C13.9485 10.2 13.9469 10.2 13.9453 10.2C13.9438 10.2 13.9422 10.2 13.9406 10.2C13.939 10.2 13.9374 10.2 13.9358 10.2C13.9342 10.2 13.9326 10.2 13.931 10.2C13.9294 10.2 13.9278 10.2 13.9262 10.2C13.9246 10.2 13.923 10.2 13.9213 10.2C13.9197 10.2 13.9181 10.2 13.9165 10.2C13.9148 10.2 13.9132 10.2 13.9116 10.2C13.9099 10.2 13.9083 10.2 13.9066 10.2C13.905 10.2 13.9033 10.2 13.9017 10.2C13.9 10.2 13.8984 10.2 13.8967 10.2C13.895 10.2 13.8934 10.2 13.8917 10.2C13.89 10.2 13.8884 10.2 13.8867 10.2C13.885 10.2 13.8833 10.2 13.8816 10.2C13.8799 10.2 13.8782 10.2 13.8765 10.2C13.8748 10.2 13.8731 10.2 13.8714 10.2C13.8697 10.2 13.868 10.2 13.8663 10.2C13.8646 10.2 13.8629 10.2 13.8611 10.2C13.8594 10.2 13.8577 10.2 13.856 10.2C13.8542 10.2 13.8525 10.2 13.8508 10.2C13.849 10.2 13.8473 10.2 13.8455 10.2C13.8438 10.2 13.842 10.2 13.8403 10.2C13.8385 10.2 13.8367 10.2 13.835 10.2C13.8332 10.2 13.8314 10.2 13.8297 10.2C13.8279 10.2 13.8261 10.2 13.8243 10.2C13.8226 10.2 13.8208 10.2 13.819 10.2C13.8172 10.2 13.8154 10.2 13.8136 10.2C13.8118 10.2 13.81 10.2 13.8082 10.2C13.8064 10.2 13.8046 10.2 13.8028 10.2C13.801 10.2 13.7991 10.2 13.7973 10.2C13.7955 10.2 13.7937 10.2 13.7918 10.2C13.79 10.2 13.7882 10.2 13.7863 10.2C13.7845 10.2 13.7826 10.2 13.7808 10.2C13.7789 10.2 13.7771 10.2 13.7752 10.2C13.7734 10.2 13.7715 10.2 13.7697 10.2C13.7678 10.2 13.7659 10.2 13.7641 10.2C13.7622 10.2 13.7603 10.2 13.7584 10.2C13.7565 10.2 13.7547 10.2 13.7528 10.2C13.7509 10.2 13.749 10.2 13.7471 10.2C13.7452 10.2 13.7433 10.2 13.7414 10.2C13.7395 10.2 13.7376 10.2 13.7357 10.2C13.7338 10.2 13.7318 10.2 13.7299 10.2C13.728 10.2 13.7261 10.2 13.7241 10.2C13.7222 10.2 13.7203 10.2 13.7184 10.2C13.7164 10.2 13.7145 10.2 13.7125 10.2C13.7106 10.2 13.7086 10.2 13.7067 10.2C13.7047 10.2 13.7028 10.2 13.7008 10.2C13.6989 10.2 13.6969 10.2 13.6949 10.2C13.693 10.2 13.691 10.2 13.689 10.2C13.687 10.2 13.6851 10.2 13.6831 10.2C13.6811 10.2 13.6791 10.2 13.6771 10.2C13.6751 10.2 13.6731 10.2 13.6711 10.2C13.6691 10.2 13.6671 10.2 13.6651 10.2C13.6631 10.2 13.6611 10.2 13.6591 10.2C13.6571 10.2 13.655 10.2 13.653 10.2C13.651 10.2 13.649 10.2 13.6469 10.2C13.6449 10.2 13.6429 10.2 13.6408 10.2C13.6388 10.2 13.6368 10.2 13.6347 10.2C13.6327 10.2 13.6306 10.2 13.6286 10.2C13.6265 10.2 13.6244 10.2 13.6224 10.2C13.6203 10.2 13.6183 10.2 13.6162 10.2C13.6141 10.2 13.612 10.2 13.61 10.2C13.6079 10.2 13.6058 10.2 13.6037 10.2C13.6016 10.2 13.5995 10.2 13.5975 10.2C13.5954 10.2 13.5933 10.2 13.5912 10.2C13.5891 10.2 13.587 10.2 13.5849 10.2C13.5827 10.2 13.5806 10.2 13.5785 10.2C13.5764 10.2 13.5743 10.2 13.5722 10.2C13.57 10.2 13.5679 10.2 13.5658 10.2C13.5637 10.2 13.5615 10.2 13.5594 10.2C13.5572 10.2 13.5551 10.2 13.553 10.2C13.5508 10.2 13.5487 10.2 13.5465 10.2C13.5444 10.2 13.5422 10.2 13.54 10.2C13.5379 10.2 13.5357 10.2 13.5335 10.2C13.5314 10.2 13.5292 10.2 13.527 10.2C13.5249 10.2 13.5227 10.2 13.5205 10.2C13.5183 10.2 13.5161 10.2 13.5139 10.2C13.5117 10.2 13.5095 10.2 13.5073 10.2C13.5052 10.2 13.503 10.2 13.5007 10.2C13.4985 10.2 13.4963 10.2 13.4941 10.2C13.4919 10.2 13.4897 10.2 13.4875 10.2C13.4853 10.2 13.483 10.2 13.4808 10.2C13.4786 10.2 13.4763 10.2 13.4741 10.2C13.4719 10.2 13.4696 10.2 13.4674 10.2C13.4652 10.2 13.4629 10.2 13.4607 10.2C13.4584 10.2 13.4562 10.2 13.4539 10.2C13.4516 10.2 13.4494 10.2 13.4471 10.2C13.4449 10.2 13.4426 10.2 13.4403 10.2C13.438 10.2 13.4358 10.2 13.4335 10.2C13.4312 10.2 13.4289 10.2 13.4267 10.2C13.4244 10.2 13.4221 10.2 13.4198 10.2C13.4175 10.2 13.4152 10.2 13.4129 10.2C13.4106 10.2 13.4083 10.2 13.406 10.2C13.4037 10.2 13.4014 10.2 13.3991 10.2C13.3967 10.2 13.3944 10.2 13.3921 10.2C13.3898 10.2 13.3875 10.2 13.3851 10.2C13.3828 10.2 13.3805 10.2 13.3781 10.2C13.3758 10.2 13.3735 10.2 13.3711 10.2C13.3688 10.2 13.3664 10.2 13.3641 10.2C13.3617 10.2 13.3594 10.2 13.357 10.2C13.3547 10.2 13.3523 10.2 13.3499 10.2C13.3476 10.2 13.3452 10.2 13.3428 10.2C13.3405 10.2 13.3381 10.2 13.3357 10.2C13.3333 10.2 13.331 10.2 13.3286 10.2C13.3262 10.2 13.3238 10.2 13.3214 10.2C13.319 10.2 13.3166 10.2 13.3142 10.2C13.3118 10.2 13.3094 10.2 13.307 10.2C13.3046 10.2 13.3022 10.2 13.2998 10.2C13.2974 10.2 13.295 10.2 13.2926 10.2C13.2901 10.2 13.2877 10.2 13.2853 10.2C13.2829 10.2 13.2804 10.2 13.278 10.2C13.2756 10.2 13.2731 10.2 13.2707 10.2C13.2683 10.2 13.2658 10.2 13.2634 10.2C13.2609 10.2 13.2585 10.2 13.256 10.2C13.2536 10.2 13.2511 10.2 13.2486 10.2C13.2462 10.2 13.2437 10.2 13.2413 10.2C13.2388 10.2 13.2363 10.2 13.2338 10.2C13.2314 10.2 13.2289 10.2 13.2264 10.2C13.2239 10.2 13.2215 10.2 13.219 10.2C13.2165 10.2 13.214 10.2 13.2115 10.2C13.209 10.2 13.2065 10.2 13.204 10.2C13.2015 10.2 13.199 10.2 13.1965 10.2C13.194 10.2 13.1915 10.2 13.189 10.2C13.1865 10.2 13.1839 10.2 13.1814 10.2C13.1789 10.2 13.1764 10.2 13.1739 10.2C13.1713 10.2 13.1688 10.2 13.1663 10.2C13.1637 10.2 13.1612 10.2 13.1587 10.2C13.1561 10.2 13.1536 10.2 13.151 10.2C13.1485 10.2 13.1459 10.2 13.1434 10.2C13.1408 10.2 13.1383 10.2 13.1357 10.2C13.1331 10.2 13.1306 10.2 13.128 10.2C13.1255 10.2 13.1229 10.2 13.1203 10.2C13.1177 10.2 13.1152 10.2 13.1126 10.2C13.11 10.2 13.1074 10.2 13.1048 10.2C13.1023 10.2 13.0997 10.2 13.0971 10.2C13.0945 10.2 13.0919 10.2 13.0893 10.2C13.0867 10.2 13.0841 10.2 13.0815 10.2C13.0789 10.2 13.0763 10.2 13.0737 10.2C13.071 10.2 13.0684 10.2 13.0658 10.2C13.0632 10.2 13.0606 10.2 13.058 10.2C13.0553 10.2 13.0527 10.2 13.0501 10.2C13.0474 10.2 13.0448 10.2 13.0422 10.2C13.0395 10.2 13.0369 10.2 13.0343 10.2C13.0316 10.2 13.029 10.2 13.0263 10.2C13.0237 10.2 13.021 10.2 13.0184 10.2C13.0157 10.2 13.0131 10.2 13.0104 10.2C13.0077 10.2 13.0051 10.2 13.0024 10.2C12.9997 10.2 12.9971 10.2 12.9944 10.2C12.9917 10.2 12.989 10.2 12.9864 10.2C12.9837 10.2 12.981 10.2 12.9783 10.2C12.9756 10.2 12.9729 10.2 12.9702 10.2C12.9675 10.2 12.9649 10.2 12.9622 10.2C12.9595 10.2 12.9568 10.2 12.954 10.2C12.9513 10.2 12.9486 10.2 12.9459 10.2C12.9432 10.2 12.9405 10.2 12.9378 10.2C12.9351 10.2 12.9323 10.2 12.9296 10.2C12.9269 10.2 12.9242 10.2 12.9214 10.2C12.9187 10.2 12.916 10.2 12.9133 10.2C12.9105 10.2 12.9078 10.2 12.905 10.2C12.9023 10.2 12.8996 10.2 12.8968 10.2C12.8941 10.2 12.8913 10.2 12.8886 10.2C12.8858 10.2 12.883 10.2 12.8803 10.2C12.8775 10.2 12.8748 10.2 12.872 10.2C12.8692 10.2 12.8665 10.2 12.8637 10.2C12.8609 10.2 12.8582 10.2 12.8554 10.2C12.8526 10.2 12.8498 10.2 12.847 10.2C12.8443 10.2 12.8415 10.2 12.8387 10.2C12.8359 10.2 12.8331 10.2 12.8303 10.2C12.8275 10.2 12.8247 10.2 12.8219 10.2C12.8191 10.2 12.8163 10.2 12.8135 10.2C12.8107 10.2 12.8079 10.2 12.8051 10.2C12.8023 10.2 12.7995 10.2 12.7966 10.2C12.7938 10.2 12.791 10.2 12.7882 10.2C12.7853 10.2 12.7825 10.2 12.7797 10.2C12.7769 10.2 12.774 10.2 12.7712 10.2C12.7684 10.2 12.7655 10.2 12.7627 10.2C12.7598 10.2 12.757 10.2 12.7542 10.2C12.7513 10.2 12.7485 10.2 12.7456 10.2C12.7428 10.2 12.7399 10.2 12.737 10.2C12.7342 10.2 12.7313 10.2 12.7285 10.2C12.7256 10.2 12.7227 10.2 12.7199 10.2C12.717 10.2 12.7141 10.2 12.7112 10.2C12.7084 10.2 12.7055 10.2 12.7026 10.2C12.6997 10.2 12.6968 10.2 12.694 10.2C12.6911 10.2 12.6882 10.2 12.6853 10.2C12.6824 10.2 12.6795 10.2 12.6766 10.2C12.6737 10.2 12.6708 10.2 12.6679 10.2C12.665 10.2 12.6621 10.2 12.6592 10.2C12.6563 10.2 12.6534 10.2 12.6505 10.2C12.6475 10.2 12.6446 10.2 12.6417 10.2C12.6388 10.2 12.6359 10.2 12.6329 10.2C12.63 10.2 12.6271 10.2 12.6242 10.2C12.6212 10.2 12.6183 10.2 12.6154 10.2C12.6124 10.2 12.6095 10.2 12.6065 10.2C12.6036 10.2 12.6007 10.2 12.5977 10.2C12.5948 10.2 12.5918 10.2 12.5889 10.2C12.5859 10.2 12.583 10.2 12.58 10.2C12.577 10.2 12.5741 10.2 12.5711 10.2C12.5682 10.2 12.5652 10.2 12.5622 10.2C12.5593 10.2 12.5563 10.2 12.5533 10.2C12.5503 10.2 12.5474 10.2 12.5444 10.2C12.5414 10.2 12.5384 10.2 12.5354 10.2C12.5325 10.2 12.5295 10.2 12.5265 10.2C12.5235 10.2 12.5205 10.2 12.5175 10.2C12.5145 10.2 12.5115 10.2 12.5085 10.2C12.5055 10.2 12.5025 10.2 12.4995 10.2C12.4965 10.2 12.4935 10.2 12.4905 10.2C12.4875 10.2 12.4845 10.2 12.4814 10.2C12.4784 10.2 12.4754 10.2 12.4724 10.2C12.4694 10.2 12.4663 10.2 12.4633 10.2C12.4603 10.2 12.4573 10.2 12.4542 10.2C12.4512 10.2 12.4482 10.2 12.4451 10.2C12.4421 10.2 12.4391 10.2 12.436 10.2C12.433 10.2 12.4299 10.2 12.4269 10.2C12.4238 10.2 12.4208 10.2 12.4177 10.2C12.4147 10.2 12.4116 10.2 12.4086 10.2C12.4055 10.2 12.4025 10.2 12.3994 10.2C12.3963 10.2 12.3933 10.2 12.3902 10.2C12.3872 10.2 12.3841 10.2 12.381 10.2C12.3779 10.2 12.3749 10.2 12.3718 10.2C12.3687 10.2 12.3656 10.2 12.3626 10.2C12.3595 10.2 12.3564 10.2 12.3533 10.2C12.3502 10.2 12.3471 10.2 12.344 10.2C12.3409 10.2 12.3379 10.2 12.3348 10.2C12.3317 10.2 12.3286 10.2 12.3255 10.2C12.3224 10.2 12.3193 10.2 12.3161 10.2C12.313 10.2 12.3099 10.2 12.3068 10.2C12.3037 10.2 12.3006 10.2 12.2975 10.2C12.2944 10.2 12.2913 10.2 12.2881 10.2C12.285 10.2 12.2819 10.2 12.2788 10.2C12.2756 10.2 12.2725 10.2 12.2694 10.2C12.2662 10.2 12.2631 10.2 12.26 10.2C12.2568 10.2 12.2537 10.2 12.2506 10.2C12.2474 10.2 12.2443 10.2 12.2411 10.2C12.238 10.2 12.2349 10.2 12.2317 10.2C12.2286 10.2 12.2254 10.2 12.2222 10.2C12.2191 10.2 12.2159 10.2 12.2128 10.2C12.2096 10.2 12.2065 10.2 12.2033 10.2C12.2001 10.2 12.197 10.2 12.1938 10.2C12.1906 10.2 12.1875 10.2 12.1843 10.2C12.1811 10.2 12.1779 10.2 12.1748 10.2C12.1716 10.2 12.1684 10.2 12.1652 10.2C12.162 10.2 12.1589 10.2 12.1557 10.2C12.1525 10.2 12.1493 10.2 12.1461 10.2C12.1429 10.2 12.1397 10.2 12.1365 10.2C12.1333 10.2 12.1301 10.2 12.1269 10.2C12.1237 10.2 12.1205 10.2 12.1173 10.2C12.1141 10.2 12.1109 10.2 12.1077 10.2C12.1045 10.2 12.1013 10.2 12.0981 10.2C12.0949 10.2 12.0917 10.2 12.0884 10.2C12.0852 10.2 12.082 10.2 12.0788 10.2C12.0755 10.2 12.0723 10.2 12.0691 10.2C12.0659 10.2 12.0626 10.2 12.0594 10.2C12.0562 10.2 12.0529 10.2 12.0497 10.2C12.0465 10.2 12.0432 10.2 12.04 10.2C12.0368 10.2 12.0335 10.2 12.0303 10.2C12.027 10.2 12.0238 10.2 12.0205 10.2C12.0173 10.2 12.014 10.2 12.0108 10.2C12.0075 10.2 12.0043 10.2 12.001 10.2C11.9978 10.2 11.9945 10.2 11.9912 10.2C11.988 10.2 11.9847 10.2 11.9814 10.2C11.9782 10.2 11.9749 10.2 11.9716 10.2C11.9684 10.2 11.9651 10.2 11.9618 10.2C11.9585 10.2 11.9553 10.2 11.952 10.2C11.9487 10.2 11.9454 10.2 11.9421 10.2C11.9389 10.2 11.9356 10.2 11.9323 10.2C11.929 10.2 11.9257 10.2 11.9224 10.2C11.9191 10.2 11.9158 10.2 11.9125 10.2C11.9092 10.2 11.9059 10.2 11.9026 10.2C11.8993 10.2 11.896 10.2 11.8927 10.2C11.8894 10.2 11.8861 10.2 11.8828 10.2C11.8795 10.2 11.8762 10.2 11.8729 10.2C11.8696 10.2 11.8663 10.2 11.863 10.2C11.8596 10.2 11.8563 10.2 11.853 10.2C11.8497 10.2 11.8464 10.2 11.843 10.2C11.8397 10.2 11.8364 10.2 11.8331 10.2C11.8297 10.2 11.8264 10.2 11.8231 10.2C11.8197 10.2 11.8164 10.2 11.8131 10.2C11.8097 10.2 11.8064 10.2 11.803 10.2C11.7997 10.2 11.7964 10.2 11.793 10.2C11.7897 10.2 11.7863 10.2 11.783 10.2C11.7796 10.2 11.7763 10.2 11.7729 10.2C11.7696 10.2 11.7662 10.2 11.7629 10.2C11.7595 10.2 11.7562 10.2 11.7528 10.2C11.7494 10.2 11.7461 10.2 11.7427 10.2C11.7393 10.2 11.736 10.2 11.7326 10.2C11.7292 10.2 11.7259 10.2 11.7225 10.2C11.7191 10.2 11.7158 10.2 11.7124 10.2C11.709 10.2 11.7056 10.2 11.7022 10.2C11.6989 10.2 11.6955 10.2 11.6921 10.2C11.6887 10.2 11.6853 10.2 11.6819 10.2C11.6786 10.2 11.6752 10.2 11.6718 10.2C11.6684 10.2 11.665 10.2 11.6616 10.2C11.6582 10.2 11.6548 10.2 11.6514 10.2C11.648 10.2 11.6446 10.2 11.6412 10.2C11.6378 10.2 11.6344 10.2 11.631 10.2C11.6276 10.2 11.6242 10.2 11.6208 10.2C11.6174 10.2 11.614 10.2 11.6106 10.2C11.6071 10.2 11.6037 10.2 11.6003 10.2C11.5969 10.2 11.5935 10.2 11.5901 10.2C11.5866 10.2 11.5832 10.2 11.5798 10.2C11.5764 10.2 11.5729 10.2 11.5695 10.2C11.5661 10.2 11.5627 10.2 11.5592 10.2C11.5558 10.2 11.5524 10.2 11.5489 10.2C11.5455 10.2 11.5421 10.2 11.5386 10.2C11.5352 10.2 11.5317 10.2 11.5283 10.2C11.5249 10.2 11.5214 10.2 11.518 10.2C11.5145 10.2 11.5111 10.2 11.5076 10.2C11.5042 10.2 11.5007 10.2 11.4973 10.2C11.4938 10.2 11.4904 10.2 11.4869 10.2C11.4835 10.2 11.48 10.2 11.4766 10.2C11.4731 10.2 11.4696 10.2 11.4662 10.2C11.4627 10.2 11.4592 10.2 11.4558 10.2C11.4523 10.2 11.4488 10.2 11.4454 10.2C11.4419 10.2 11.4384 10.2 11.435 10.2C11.4315 10.2 11.428 10.2 11.4245 10.2C11.4211 10.2 11.4176 10.2 11.4141 10.2C11.4106 10.2 11.4072 10.2 11.4037 10.2C11.4002 10.2 11.3967 10.2 11.3932 10.2C11.3897 10.2 11.3862 10.2 11.3828 10.2C11.3793 10.2 11.3758 10.2 11.3723 10.2C11.3688 10.2 11.3653 10.2 11.3618 10.2C11.3583 10.2 11.3548 10.2 11.3513 10.2C11.3478 10.2 11.3443 10.2 11.3408 10.2C11.3373 10.2 11.3338 10.2 11.3303 10.2C11.3268 10.2 11.3233 10.2 11.3198 10.2C11.3163 10.2 11.3128 10.2 11.3093 10.2C11.3057 10.2 11.3022 10.2 11.2987 10.2C11.2952 10.2 11.2917 10.2 11.2882 10.2C11.2847 10.2 11.2811 10.2 11.2776 10.2C11.2741 10.2 11.2706 10.2 11.267 10.2C11.2635 10.2 11.26 10.2 11.2565 10.2C11.2529 10.2 11.2494 10.2 11.2459 10.2C11.2424 10.2 11.2388 10.2 11.2353 10.2C11.2318 10.2 11.2282 10.2 11.2247 10.2C11.2211 10.2 11.2176 10.2 11.2141 10.2C11.2105 10.2 11.207 10.2 11.2035 10.2C11.1999 10.2 11.1964 10.2 11.1928 10.2C11.1893 10.2 11.1857 10.2 11.1822 10.2C11.1786 10.2 11.1751 10.2 11.1715 10.2C11.168 10.2 11.1644 10.2 11.1609 10.2C11.1573 10.2 11.1538 10.2 11.1502 10.2C11.1467 10.2 11.1431 10.2 11.1395 10.2C11.136 10.2 11.1324 10.2 11.1289 10.2C11.1253 10.2 11.1217 10.2 11.1182 10.2C11.1146 10.2 11.111 10.2 11.1075 10.2C11.1039 10.2 11.1003 10.2 11.0968 10.2C11.0932 10.2 11.0896 10.2 11.086 10.2C11.0825 10.2 11.0789 10.2 11.0753 10.2C11.0717 10.2 11.0682 10.2 11.0646 10.2C11.061 10.2 11.0574 10.2 11.0538 10.2C11.0503 10.2 11.0467 10.2 11.0431 10.2C11.0395 10.2 11.0359 10.2 11.0323 10.2C11.0287 10.2 11.0251 10.2 11.0216 10.2C11.018 10.2 11.0144 10.2 11.0108 10.2C11.0072 10.2 11.0036 10.2 11 10.2V11.8C11.0036 11.8 11.0072 11.8 11.0108 11.8C11.0144 11.8 11.018 11.8 11.0216 11.8C11.0251 11.8 11.0287 11.8 11.0323 11.8C11.0359 11.8 11.0395 11.8 11.0431 11.8C11.0467 11.8 11.0503 11.8 11.0538 11.8C11.0574 11.8 11.061 11.8 11.0646 11.8C11.0682 11.8 11.0717 11.8 11.0753 11.8C11.0789 11.8 11.0825 11.8 11.086 11.8C11.0896 11.8 11.0932 11.8 11.0968 11.8C11.1003 11.8 11.1039 11.8 11.1075 11.8C11.111 11.8 11.1146 11.8 11.1182 11.8C11.1217 11.8 11.1253 11.8 11.1289 11.8C11.1324 11.8 11.136 11.8 11.1395 11.8C11.1431 11.8 11.1467 11.8 11.1502 11.8C11.1538 11.8 11.1573 11.8 11.1609 11.8C11.1644 11.8 11.168 11.8 11.1715 11.8C11.1751 11.8 11.1786 11.8 11.1822 11.8C11.1857 11.8 11.1893 11.8 11.1928 11.8C11.1964 11.8 11.1999 11.8 11.2035 11.8C11.207 11.8 11.2105 11.8 11.2141 11.8C11.2176 11.8 11.2211 11.8 11.2247 11.8C11.2282 11.8 11.2318 11.8 11.2353 11.8C11.2388 11.8 11.2424 11.8 11.2459 11.8C11.2494 11.8 11.2529 11.8 11.2565 11.8C11.26 11.8 11.2635 11.8 11.267 11.8C11.2706 11.8 11.2741 11.8 11.2776 11.8C11.2811 11.8 11.2847 11.8 11.2882 11.8C11.2917 11.8 11.2952 11.8 11.2987 11.8C11.3022 11.8 11.3057 11.8 11.3093 11.8C11.3128 11.8 11.3163 11.8 11.3198 11.8C11.3233 11.8 11.3268 11.8 11.3303 11.8C11.3338 11.8 11.3373 11.8 11.3408 11.8C11.3443 11.8 11.3478 11.8 11.3513 11.8C11.3548 11.8 11.3583 11.8 11.3618 11.8C11.3653 11.8 11.3688 11.8 11.3723 11.8C11.3758 11.8 11.3793 11.8 11.3828 11.8C11.3862 11.8 11.3897 11.8 11.3932 11.8C11.3967 11.8 11.4002 11.8 11.4037 11.8C11.4072 11.8 11.4106 11.8 11.4141 11.8C11.4176 11.8 11.4211 11.8 11.4245 11.8C11.428 11.8 11.4315 11.8 11.435 11.8C11.4384 11.8 11.4419 11.8 11.4454 11.8C11.4488 11.8 11.4523 11.8 11.4558 11.8C11.4592 11.8 11.4627 11.8 11.4662 11.8C11.4696 11.8 11.4731 11.8 11.4766 11.8C11.48 11.8 11.4835 11.8 11.4869 11.8C11.4904 11.8 11.4938 11.8 11.4973 11.8C11.5007 11.8 11.5042 11.8 11.5076 11.8C11.5111 11.8 11.5145 11.8 11.518 11.8C11.5214 11.8 11.5249 11.8 11.5283 11.8C11.5317 11.8 11.5352 11.8 11.5386 11.8C11.5421 11.8 11.5455 11.8 11.5489 11.8C11.5524 11.8 11.5558 11.8 11.5592 11.8C11.5627 11.8 11.5661 11.8 11.5695 11.8C11.5729 11.8 11.5764 11.8 11.5798 11.8C11.5832 11.8 11.5866 11.8 11.5901 11.8C11.5935 11.8 11.5969 11.8 11.6003 11.8C11.6037 11.8 11.6071 11.8 11.6106 11.8C11.614 11.8 11.6174 11.8 11.6208 11.8C11.6242 11.8 11.6276 11.8 11.631 11.8C11.6344 11.8 11.6378 11.8 11.6412 11.8C11.6446 11.8 11.648 11.8 11.6514 11.8C11.6548 11.8 11.6582 11.8 11.6616 11.8C11.665 11.8 11.6684 11.8 11.6718 11.8C11.6752 11.8 11.6786 11.8 11.6819 11.8C11.6853 11.8 11.6887 11.8 11.6921 11.8C11.6955 11.8 11.6989 11.8 11.7022 11.8C11.7056 11.8 11.709 11.8 11.7124 11.8C11.7158 11.8 11.7191 11.8 11.7225 11.8C11.7259 11.8 11.7292 11.8 11.7326 11.8C11.736 11.8 11.7393 11.8 11.7427 11.8C11.7461 11.8 11.7494 11.8 11.7528 11.8C11.7562 11.8 11.7595 11.8 11.7629 11.8C11.7662 11.8 11.7696 11.8 11.7729 11.8C11.7763 11.8 11.7796 11.8 11.783 11.8C11.7863 11.8 11.7897 11.8 11.793 11.8C11.7964 11.8 11.7997 11.8 11.803 11.8C11.8064 11.8 11.8097 11.8 11.8131 11.8C11.8164 11.8 11.8197 11.8 11.8231 11.8C11.8264 11.8 11.8297 11.8 11.8331 11.8C11.8364 11.8 11.8397 11.8 11.843 11.8C11.8464 11.8 11.8497 11.8 11.853 11.8C11.8563 11.8 11.8596 11.8 11.863 11.8C11.8663 11.8 11.8696 11.8 11.8729 11.8C11.8762 11.8 11.8795 11.8 11.8828 11.8C11.8861 11.8 11.8894 11.8 11.8927 11.8C11.896 11.8 11.8993 11.8 11.9026 11.8C11.9059 11.8 11.9092 11.8 11.9125 11.8C11.9158 11.8 11.9191 11.8 11.9224 11.8C11.9257 11.8 11.929 11.8 11.9323 11.8C11.9356 11.8 11.9389 11.8 11.9421 11.8C11.9454 11.8 11.9487 11.8 11.952 11.8C11.9553 11.8 11.9585 11.8 11.9618 11.8C11.9651 11.8 11.9684 11.8 11.9716 11.8C11.9749 11.8 11.9782 11.8 11.9814 11.8C11.9847 11.8 11.988 11.8 11.9912 11.8C11.9945 11.8 11.9978 11.8 12.001 11.8C12.0043 11.8 12.0075 11.8 12.0108 11.8C12.014 11.8 12.0173 11.8 12.0205 11.8C12.0238 11.8 12.027 11.8 12.0303 11.8C12.0335 11.8 12.0368 11.8 12.04 11.8C12.0432 11.8 12.0465 11.8 12.0497 11.8C12.0529 11.8 12.0562 11.8 12.0594 11.8C12.0626 11.8 12.0659 11.8 12.0691 11.8C12.0723 11.8 12.0755 11.8 12.0788 11.8C12.082 11.8 12.0852 11.8 12.0884 11.8C12.0917 11.8 12.0949 11.8 12.0981 11.8C12.1013 11.8 12.1045 11.8 12.1077 11.8C12.1109 11.8 12.1141 11.8 12.1173 11.8C12.1205 11.8 12.1237 11.8 12.1269 11.8C12.1301 11.8 12.1333 11.8 12.1365 11.8C12.1397 11.8 12.1429 11.8 12.1461 11.8C12.1493 11.8 12.1525 11.8 12.1557 11.8C12.1589 11.8 12.162 11.8 12.1652 11.8C12.1684 11.8 12.1716 11.8 12.1748 11.8C12.1779 11.8 12.1811 11.8 12.1843 11.8C12.1875 11.8 12.1906 11.8 12.1938 11.8C12.197 11.8 12.2001 11.8 12.2033 11.8C12.2065 11.8 12.2096 11.8 12.2128 11.8C12.2159 11.8 12.2191 11.8 12.2222 11.8C12.2254 11.8 12.2286 11.8 12.2317 11.8C12.2349 11.8 12.238 11.8 12.2411 11.8C12.2443 11.8 12.2474 11.8 12.2506 11.8C12.2537 11.8 12.2568 11.8 12.26 11.8C12.2631 11.8 12.2662 11.8 12.2694 11.8C12.2725 11.8 12.2756 11.8 12.2788 11.8C12.2819 11.8 12.285 11.8 12.2881 11.8C12.2913 11.8 12.2944 11.8 12.2975 11.8C12.3006 11.8 12.3037 11.8 12.3068 11.8C12.3099 11.8 12.313 11.8 12.3161 11.8C12.3193 11.8 12.3224 11.8 12.3255 11.8C12.3286 11.8 12.3317 11.8 12.3348 11.8C12.3379 11.8 12.3409 11.8 12.344 11.8C12.3471 11.8 12.3502 11.8 12.3533 11.8C12.3564 11.8 12.3595 11.8 12.3626 11.8C12.3656 11.8 12.3687 11.8 12.3718 11.8C12.3749 11.8 12.3779 11.8 12.381 11.8C12.3841 11.8 12.3872 11.8 12.3902 11.8C12.3933 11.8 12.3963 11.8 12.3994 11.8C12.4025 11.8 12.4055 11.8 12.4086 11.8C12.4116 11.8 12.4147 11.8 12.4177 11.8C12.4208 11.8 12.4238 11.8 12.4269 11.8C12.4299 11.8 12.433 11.8 12.436 11.8C12.4391 11.8 12.4421 11.8 12.4451 11.8C12.4482 11.8 12.4512 11.8 12.4542 11.8C12.4573 11.8 12.4603 11.8 12.4633 11.8C12.4663 11.8 12.4694 11.8 12.4724 11.8C12.4754 11.8 12.4784 11.8 12.4814 11.8C12.4845 11.8 12.4875 11.8 12.4905 11.8C12.4935 11.8 12.4965 11.8 12.4995 11.8C12.5025 11.8 12.5055 11.8 12.5085 11.8C12.5115 11.8 12.5145 11.8 12.5175 11.8C12.5205 11.8 12.5235 11.8 12.5265 11.8C12.5295 11.8 12.5325 11.8 12.5354 11.8C12.5384 11.8 12.5414 11.8 12.5444 11.8C12.5474 11.8 12.5503 11.8 12.5533 11.8C12.5563 11.8 12.5593 11.8 12.5622 11.8C12.5652 11.8 12.5682 11.8 12.5711 11.8C12.5741 11.8 12.577 11.8 12.58 11.8C12.583 11.8 12.5859 11.8 12.5889 11.8C12.5918 11.8 12.5948 11.8 12.5977 11.8C12.6007 11.8 12.6036 11.8 12.6065 11.8C12.6095 11.8 12.6124 11.8 12.6154 11.8C12.6183 11.8 12.6212 11.8 12.6242 11.8C12.6271 11.8 12.63 11.8 12.6329 11.8C12.6359 11.8 12.6388 11.8 12.6417 11.8C12.6446 11.8 12.6475 11.8 12.6505 11.8C12.6534 11.8 12.6563 11.8 12.6592 11.8C12.6621 11.8 12.665 11.8 12.6679 11.8C12.6708 11.8 12.6737 11.8 12.6766 11.8C12.6795 11.8 12.6824 11.8 12.6853 11.8C12.6882 11.8 12.6911 11.8 12.694 11.8C12.6968 11.8 12.6997 11.8 12.7026 11.8C12.7055 11.8 12.7084 11.8 12.7112 11.8C12.7141 11.8 12.717 11.8 12.7199 11.8C12.7227 11.8 12.7256 11.8 12.7285 11.8C12.7313 11.8 12.7342 11.8 12.737 11.8C12.7399 11.8 12.7428 11.8 12.7456 11.8C12.7485 11.8 12.7513 11.8 12.7542 11.8C12.757 11.8 12.7598 11.8 12.7627 11.8C12.7655 11.8 12.7684 11.8 12.7712 11.8C12.774 11.8 12.7769 11.8 12.7797 11.8C12.7825 11.8 12.7853 11.8 12.7882 11.8C12.791 11.8 12.7938 11.8 12.7966 11.8C12.7995 11.8 12.8023 11.8 12.8051 11.8C12.8079 11.8 12.8107 11.8 12.8135 11.8C12.8163 11.8 12.8191 11.8 12.8219 11.8C12.8247 11.8 12.8275 11.8 12.8303 11.8C12.8331 11.8 12.8359 11.8 12.8387 11.8C12.8415 11.8 12.8443 11.8 12.847 11.8C12.8498 11.8 12.8526 11.8 12.8554 11.8C12.8582 11.8 12.8609 11.8 12.8637 11.8C12.8665 11.8 12.8692 11.8 12.872 11.8C12.8748 11.8 12.8775 11.8 12.8803 11.8C12.883 11.8 12.8858 11.8 12.8886 11.8C12.8913 11.8 12.8941 11.8 12.8968 11.8C12.8996 11.8 12.9023 11.8 12.905 11.8C12.9078 11.8 12.9105 11.8 12.9133 11.8C12.916 11.8 12.9187 11.8 12.9214 11.8C12.9242 11.8 12.9269 11.8 12.9296 11.8C12.9323 11.8 12.9351 11.8 12.9378 11.8C12.9405 11.8 12.9432 11.8 12.9459 11.8C12.9486 11.8 12.9513 11.8 12.954 11.8C12.9568 11.8 12.9595 11.8 12.9622 11.8C12.9649 11.8 12.9675 11.8 12.9702 11.8C12.9729 11.8 12.9756 11.8 12.9783 11.8C12.981 11.8 12.9837 11.8 12.9864 11.8C12.989 11.8 12.9917 11.8 12.9944 11.8C12.9971 11.8 12.9997 11.8 13.0024 11.8C13.0051 11.8 13.0077 11.8 13.0104 11.8C13.0131 11.8 13.0157 11.8 13.0184 11.8C13.021 11.8 13.0237 11.8 13.0263 11.8C13.029 11.8 13.0316 11.8 13.0343 11.8C13.0369 11.8 13.0395 11.8 13.0422 11.8C13.0448 11.8 13.0474 11.8 13.0501 11.8C13.0527 11.8 13.0553 11.8 13.058 11.8C13.0606 11.8 13.0632 11.8 13.0658 11.8C13.0684 11.8 13.071 11.8 13.0737 11.8C13.0763 11.8 13.0789 11.8 13.0815 11.8C13.0841 11.8 13.0867 11.8 13.0893 11.8C13.0919 11.8 13.0945 11.8 13.0971 11.8C13.0997 11.8 13.1023 11.8 13.1048 11.8C13.1074 11.8 13.11 11.8 13.1126 11.8C13.1152 11.8 13.1177 11.8 13.1203 11.8C13.1229 11.8 13.1255 11.8 13.128 11.8C13.1306 11.8 13.1331 11.8 13.1357 11.8C13.1383 11.8 13.1408 11.8 13.1434 11.8C13.1459 11.8 13.1485 11.8 13.151 11.8C13.1536 11.8 13.1561 11.8 13.1587 11.8C13.1612 11.8 13.1637 11.8 13.1663 11.8C13.1688 11.8 13.1713 11.8 13.1739 11.8C13.1764 11.8 13.1789 11.8 13.1814 11.8C13.1839 11.8 13.1865 11.8 13.189 11.8C13.1915 11.8 13.194 11.8 13.1965 11.8C13.199 11.8 13.2015 11.8 13.204 11.8C13.2065 11.8 13.209 11.8 13.2115 11.8C13.214 11.8 13.2165 11.8 13.219 11.8C13.2215 11.8 13.2239 11.8 13.2264 11.8C13.2289 11.8 13.2314 11.8 13.2338 11.8C13.2363 11.8 13.2388 11.8 13.2413 11.8C13.2437 11.8 13.2462 11.8 13.2486 11.8C13.2511 11.8 13.2536 11.8 13.256 11.8C13.2585 11.8 13.2609 11.8 13.2634 11.8C13.2658 11.8 13.2683 11.8 13.2707 11.8C13.2731 11.8 13.2756 11.8 13.278 11.8C13.2804 11.8 13.2829 11.8 13.2853 11.8C13.2877 11.8 13.2901 11.8 13.2926 11.8C13.295 11.8 13.2974 11.8 13.2998 11.8C13.3022 11.8 13.3046 11.8 13.307 11.8C13.3094 11.8 13.3118 11.8 13.3142 11.8C13.3166 11.8 13.319 11.8 13.3214 11.8C13.3238 11.8 13.3262 11.8 13.3286 11.8C13.331 11.8 13.3333 11.8 13.3357 11.8C13.3381 11.8 13.3405 11.8 13.3428 11.8C13.3452 11.8 13.3476 11.8 13.3499 11.8C13.3523 11.8 13.3547 11.8 13.357 11.8C13.3594 11.8 13.3617 11.8 13.3641 11.8C13.3664 11.8 13.3688 11.8 13.3711 11.8C13.3735 11.8 13.3758 11.8 13.3781 11.8C13.3805 11.8 13.3828 11.8 13.3851 11.8C13.3875 11.8 13.3898 11.8 13.3921 11.8C13.3944 11.8 13.3967 11.8 13.3991 11.8C13.4014 11.8 13.4037 11.8 13.406 11.8C13.4083 11.8 13.4106 11.8 13.4129 11.8C13.4152 11.8 13.4175 11.8 13.4198 11.8C13.4221 11.8 13.4244 11.8 13.4267 11.8C13.4289 11.8 13.4312 11.8 13.4335 11.8C13.4358 11.8 13.438 11.8 13.4403 11.8C13.4426 11.8 13.4449 11.8 13.4471 11.8C13.4494 11.8 13.4516 11.8 13.4539 11.8C13.4562 11.8 13.4584 11.8 13.4607 11.8C13.4629 11.8 13.4652 11.8 13.4674 11.8C13.4696 11.8 13.4719 11.8 13.4741 11.8C13.4763 11.8 13.4786 11.8 13.4808 11.8C13.483 11.8 13.4853 11.8 13.4875 11.8C13.4897 11.8 13.4919 11.8 13.4941 11.8C13.4963 11.8 13.4985 11.8 13.5007 11.8C13.503 11.8 13.5052 11.8 13.5073 11.8C13.5095 11.8 13.5117 11.8 13.5139 11.8C13.5161 11.8 13.5183 11.8 13.5205 11.8C13.5227 11.8 13.5249 11.8 13.527 11.8C13.5292 11.8 13.5314 11.8 13.5335 11.8C13.5357 11.8 13.5379 11.8 13.54 11.8C13.5422 11.8 13.5444 11.8 13.5465 11.8C13.5487 11.8 13.5508 11.8 13.553 11.8C13.5551 11.8 13.5572 11.8 13.5594 11.8C13.5615 11.8 13.5637 11.8 13.5658 11.8C13.5679 11.8 13.57 11.8 13.5722 11.8C13.5743 11.8 13.5764 11.8 13.5785 11.8C13.5806 11.8 13.5827 11.8 13.5849 11.8C13.587 11.8 13.5891 11.8 13.5912 11.8C13.5933 11.8 13.5954 11.8 13.5975 11.8C13.5995 11.8 13.6016 11.8 13.6037 11.8C13.6058 11.8 13.6079 11.8 13.61 11.8C13.612 11.8 13.6141 11.8 13.6162 11.8C13.6183 11.8 13.6203 11.8 13.6224 11.8C13.6244 11.8 13.6265 11.8 13.6286 11.8C13.6306 11.8 13.6327 11.8 13.6347 11.8C13.6368 11.8 13.6388 11.8 13.6408 11.8C13.6429 11.8 13.6449 11.8 13.6469 11.8C13.649 11.8 13.651 11.8 13.653 11.8C13.655 11.8 13.6571 11.8 13.6591 11.8C13.6611 11.8 13.6631 11.8 13.6651 11.8C13.6671 11.8 13.6691 11.8 13.6711 11.8C13.6731 11.8 13.6751 11.8 13.6771 11.8C13.6791 11.8 13.6811 11.8 13.6831 11.8C13.6851 11.8 13.687 11.8 13.689 11.8C13.691 11.8 13.693 11.8 13.6949 11.8C13.6969 11.8 13.6989 11.8 13.7008 11.8C13.7028 11.8 13.7047 11.8 13.7067 11.8C13.7086 11.8 13.7106 11.8 13.7125 11.8C13.7145 11.8 13.7164 11.8 13.7184 11.8C13.7203 11.8 13.7222 11.8 13.7241 11.8C13.7261 11.8 13.728 11.8 13.7299 11.8C13.7318 11.8 13.7338 11.8 13.7357 11.8C13.7376 11.8 13.7395 11.8 13.7414 11.8C13.7433 11.8 13.7452 11.8 13.7471 11.8C13.749 11.8 13.7509 11.8 13.7528 11.8C13.7547 11.8 13.7565 11.8 13.7584 11.8C13.7603 11.8 13.7622 11.8 13.7641 11.8C13.7659 11.8 13.7678 11.8 13.7697 11.8C13.7715 11.8 13.7734 11.8 13.7752 11.8C13.7771 11.8 13.7789 11.8 13.7808 11.8C13.7826 11.8 13.7845 11.8 13.7863 11.8C13.7882 11.8 13.79 11.8 13.7918 11.8C13.7937 11.8 13.7955 11.8 13.7973 11.8C13.7991 11.8 13.801 11.8 13.8028 11.8C13.8046 11.8 13.8064 11.8 13.8082 11.8C13.81 11.8 13.8118 11.8 13.8136 11.8C13.8154 11.8 13.8172 11.8 13.819 11.8C13.8208 11.8 13.8226 11.8 13.8243 11.8C13.8261 11.8 13.8279 11.8 13.8297 11.8C13.8314 11.8 13.8332 11.8 13.835 11.8C13.8367 11.8 13.8385 11.8 13.8403 11.8C13.842 11.8 13.8438 11.8 13.8455 11.8C13.8473 11.8 13.849 11.8 13.8508 11.8C13.8525 11.8 13.8542 11.8 13.856 11.8C13.8577 11.8 13.8594 11.8 13.8611 11.8C13.8629 11.8 13.8646 11.8 13.8663 11.8C13.868 11.8 13.8697 11.8 13.8714 11.8C13.8731 11.8 13.8748 11.8 13.8765 11.8C13.8782 11.8 13.8799 11.8 13.8816 11.8C13.8833 11.8 13.885 11.8 13.8867 11.8C13.8884 11.8 13.89 11.8 13.8917 11.8C13.8934 11.8 13.895 11.8 13.8967 11.8C13.8984 11.8 13.9 11.8 13.9017 11.8C13.9033 11.8 13.905 11.8 13.9066 11.8C13.9083 11.8 13.9099 11.8 13.9116 11.8C13.9132 11.8 13.9148 11.8 13.9165 11.8C13.9181 11.8 13.9197 11.8 13.9213 11.8C13.923 11.8 13.9246 11.8 13.9262 11.8C13.9278 11.8 13.9294 11.8 13.931 11.8C13.9326 11.8 13.9342 11.8 13.9358 11.8C13.9374 11.8 13.939 11.8 13.9406 11.8C13.9422 11.8 13.9438 11.8 13.9453 11.8C13.9469 11.8 13.9485 11.8 13.9501 11.8C13.9516 11.8 13.9532 11.8 13.9547 11.8C13.9563 11.8 13.9579 11.8 13.9594 11.8C13.961 11.8 13.9625 11.8 13.9641 11.8C13.9656 11.8 13.9671 11.8 13.9687 11.8C13.9702 11.8 13.9717 11.8 13.9733 11.8C13.9748 11.8 13.9763 11.8 13.9778 11.8C13.9793 11.8 13.9808 11.8 13.9824 11.8C13.9839 11.8 13.9854 11.8 13.9869 11.8C13.9884 11.8 13.9899 11.8 13.9913 11.8C13.9928 11.8 13.9943 11.8 13.9958 11.8C13.9973 11.8 13.9988 11.8 14.0002 11.8C14.0017 11.8 14.0032 11.8 14.0046 11.8C14.0061 11.8 14.0076 11.8 14.009 11.8C14.0105 11.8 14.0119 11.8 14.0134 11.8C14.0148 11.8 14.0162 11.8 14.0177 11.8C14.0191 11.8 14.0205 11.8 14.022 11.8C14.0234 11.8 14.0248 11.8 14.0262 11.8C14.0277 11.8 14.0291 11.8 14.0305 11.8C14.0319 11.8 14.0333 11.8 14.0347 11.8C14.0361 11.8 14.0375 11.8 14.0389 11.8C14.0403 11.8 14.0417 11.8 14.043 11.8C14.0444 11.8 14.0458 11.8 14.0472 11.8C14.0485 11.8 14.0499 11.8 14.0513 11.8C14.0526 11.8 14.054 11.8 14.0554 11.8C14.0567 11.8 14.0581 11.8 14.0594 11.8C14.0607 11.8 14.0621 11.8 14.0634 11.8C14.0648 11.8 14.0661 11.8 14.0674 11.8C14.0687 11.8 14.0701 11.8 14.0714 11.8C14.0727 11.8 14.074 11.8 14.0753 11.8C14.0766 11.8 14.0779 11.8 14.0792 11.8C14.0805 11.8 14.0818 11.8 14.0831 11.8C14.0844 11.8 14.0857 11.8 14.087 11.8C14.0883 11.8 14.0895 11.8 14.0908 11.8C14.0921 11.8 14.0933 11.8 14.0946 11.8C14.0959 11.8 14.0971 11.8 14.0984 11.8C14.0996 11.8 14.1009 11.8 14.1021 11.8C14.1034 11.8 14.1046 11.8 14.1058 11.8C14.1071 11.8 14.1083 11.8 14.1095 11.8C14.1108 11.8 14.112 11.8 14.1132 11.8C14.1144 11.8 14.1156 11.8 14.1168 11.8C14.118 11.8 14.1192 11.8 14.1204 11.8C14.1216 11.8 14.1228 11.8 14.124 11.8C14.1252 11.8 14.1264 11.8 14.1275 11.8C14.1287 11.8 14.1299 11.8 14.1311 11.8C14.1322 11.8 14.1334 11.8 14.1346 11.8C14.1357 11.8 14.1369 11.8 14.138 11.8C14.1392 11.8 14.1403 11.8 14.1415 11.8C14.1426 11.8 14.1437 11.8 14.1449 11.8C14.146 11.8 14.1471 11.8 14.1482 11.8C14.1494 11.8 14.1505 11.8 14.1516 11.8C14.1527 11.8 14.1538 11.8 14.1549 11.8C14.156 11.8 14.1571 11.8 14.1582 11.8C14.1593 11.8 14.1604 11.8 14.1615 11.8C14.1625 11.8 14.1636 11.8 14.1647 11.8C14.1658 11.8 14.1668 11.8 14.1679 11.8C14.169 11.8 14.17 11.8 14.1711 11.8C14.1721 11.8 14.1732 11.8 14.1742 11.8C14.1753 11.8 14.1763 11.8 14.1773 11.8C14.1784 11.8 14.1794 11.8 14.1804 11.8C14.1814 11.8 14.1825 11.8 14.1835 11.8C14.1845 11.8 14.1855 11.8 14.1865 11.8C14.1875 11.8 14.1885 11.8 14.1895 11.8C14.1905 11.8 14.1915 11.8 14.1925 11.8C14.1935 11.8 14.1944 11.8 14.1954 11.8C14.1964 11.8 14.1974 11.8 14.1983 11.8C14.1993 11.8 14.2003 11.8 14.2012 11.8C14.2022 11.8 14.2031 11.8 14.2041 11.8C14.205 11.8 14.2059 11.8 14.2069 11.8C14.2078 11.8 14.2087 11.8 14.2097 11.8C14.2106 11.8 14.2115 11.8 14.2124 11.8C14.2134 11.8 14.2143 11.8 14.2152 11.8C14.2161 11.8 14.217 11.8 14.2179 11.8C14.2188 11.8 14.2197 11.8 14.2205 11.8C14.2214 11.8 14.2223 11.8 14.2232 11.8C14.2241 11.8 14.2249 11.8 14.2258 11.8C14.2267 11.8 14.2275 11.8 14.2284 11.8C14.2292 11.8 14.2301 11.8 14.2309 11.8C14.2318 11.8 14.2326 11.8 14.2335 11.8C14.2343 11.8 14.2351 11.8 14.236 11.8C14.2368 11.8 14.2376 11.8 14.2384 11.8C14.2392 11.8 14.2401 11.8 14.2409 11.8C14.2417 11.8 14.2425 11.8 14.2433 11.8C14.2441 11.8 14.2448 11.8 14.2456 11.8C14.2464 11.8 14.2472 11.8 14.248 11.8C14.2488 11.8 14.2495 11.8 14.2503 11.8C14.2511 11.8 14.2518 11.8 14.2526 11.8C14.2533 11.8 14.2541 11.8 14.2548 11.8C14.2556 11.8 14.2563 11.8 14.257 11.8C14.2578 11.8 14.2585 11.8 14.2592 11.8C14.26 11.8 14.2607 11.8 14.2614 11.8C14.2621 11.8 14.2628 11.8 14.2635 11.8C14.2642 11.8 14.2649 11.8 14.2656 11.8C14.2663 11.8 14.267 11.8 14.2677 11.8C14.2684 11.8 14.269 11.8 14.2697 11.8C14.2704 11.8 14.2711 11.8 14.2717 11.8C14.2724 11.8 14.273 11.8 14.2737 11.8C14.2743 11.8 14.275 11.8 14.2756 11.8C14.2763 11.8 14.2769 11.8 14.2775 11.8C14.2782 11.8 14.2788 11.8 14.2794 11.8C14.28 11.8 14.2807 11.8 14.2813 11.8C14.2819 11.8 14.2825 11.8 14.2831 11.8C14.2837 11.8 14.2843 11.8 14.2849 11.8C14.2855 11.8 14.286 11.8 14.2866 11.8C14.2872 11.8 14.2878 11.8 14.2884 11.8C14.2889 11.8 14.2895 11.8 14.29 11.8C14.2906 11.8 14.2912 11.8 14.2917 11.8C14.2922 11.8 14.2928 11.8 14.2933 11.8C14.2939 11.8 14.2944 11.8 14.2949 11.8C14.2955 11.8 14.296 11.8 14.2965 11.8C14.297 11.8 14.2975 11.8 14.298 11.8C14.2985 11.8 14.299 11.8 14.2995 11.8C14.3 11.8 14.3005 11.8 14.301 11.8C14.3015 11.8 14.302 11.8 14.3024 11.8C14.3029 11.8 14.3034 11.8 14.3038 11.8C14.3043 11.8 14.3048 11.8 14.3052 11.8C14.3057 11.8 14.3061 11.8 14.3066 11.8C14.307 11.8 14.3074 11.8 14.3079 11.8C14.3083 11.8 14.3087 11.8 14.3091 11.8C14.3096 11.8 14.31 11.8 14.3104 11.8C14.3108 11.8 14.3112 11.8 14.3116 11.8C14.312 11.8 14.3124 11.8 14.3128 11.8C14.3132 11.8 14.3135 11.8 14.3139 11.8C14.3143 11.8 14.3147 11.8 14.315 11.8C14.3154 11.8 14.3158 11.8 14.3161 11.8C14.3165 11.8 14.3168 11.8 14.3172 11.8C14.3175 11.8 14.3179 11.8 14.3182 11.8C14.3185 11.8 14.3189 11.8 14.3192 11.8C14.3195 11.8 14.3198 11.8 14.3201 11.8C14.3204 11.8 14.3208 11.8 14.3211 11.8C14.3214 11.8 14.3216 11.8 14.3219 11.8C14.3222 11.8 14.3225 11.8 14.3228 11.8C14.3231 11.8 14.3233 11.8 14.3236 11.8C14.3239 11.8 14.3241 11.8 14.3244 11.8C14.3247 11.8 14.3249 11.8 14.3252 11.8C14.3254 11.8 14.3256 11.8 14.3259 11.8C14.3261 11.8 14.3263 11.8 14.3266 11.8C14.3268 11.8 14.327 11.8 14.3272 11.8C14.3274 11.8 14.3276 11.8 14.3279 11.8C14.3281 11.8 14.3282 11.8 14.3284 11.8C14.3286 11.8 14.3288 11.8 14.329 11.8C14.3292 11.8 14.3294 11.8 14.3295 11.8C14.3297 11.8 14.3299 11.8 14.33 11.8C14.3302 11.8 14.3303 11.8 14.3305 11.8C14.3306 11.8 14.3308 11.8 14.3309 11.8C14.331 11.8 14.3312 11.8 14.3313 11.8C14.3314 11.8 14.3315 11.8 14.3316 11.8C14.3317 11.8 14.3319 11.8 14.332 11.8C14.3321 11.8 14.3322 11.8 14.3322 11.8C14.3323 11.8 14.3324 11.8 14.3325 11.8C14.3326 11.8 14.3327 11.8 14.3327 11.8C14.3328 11.8 14.3329 11.8 14.3329 11.8C14.333 11.8 14.333 11.8 14.3331 11.8C14.3331 11.8 14.3331 11.8 14.3332 11.8C14.3332 11.8 14.3332 11.8 14.3333 11.8C14.3333 11.8 14.3333 11.8 14.3333 11.8C14.3333 11.8 14.3333 11.8 14.3333 11ZM11 10.2C10.9964 10.2 10.9928 10.2 10.9892 10.2C10.9856 10.2 10.982 10.2 10.9784 10.2C10.9749 10.2 10.9713 10.2 10.9677 10.2C10.9641 10.2 10.9605 10.2 10.9569 10.2C10.9533 10.2 10.9497 10.2 10.9462 10.2C10.9426 10.2 10.939 10.2 10.9354 10.2C10.9318 10.2 10.9283 10.2 10.9247 10.2C10.9211 10.2 10.9175 10.2 10.914 10.2C10.9104 10.2 10.9068 10.2 10.9032 10.2C10.8997 10.2 10.8961 10.2 10.8925 10.2C10.889 10.2 10.8854 10.2 10.8818 10.2C10.8783 10.2 10.8747 10.2 10.8711 10.2C10.8676 10.2 10.864 10.2 10.8605 10.2C10.8569 10.2 10.8533 10.2 10.8498 10.2C10.8462 10.2 10.8427 10.2 10.8391 10.2C10.8356 10.2 10.832 10.2 10.8285 10.2C10.8249 10.2 10.8214 10.2 10.8178 10.2C10.8143 10.2 10.8107 10.2 10.8072 10.2C10.8036 10.2 10.8001 10.2 10.7965 10.2C10.793 10.2 10.7895 10.2 10.7859 10.2C10.7824 10.2 10.7789 10.2 10.7753 10.2C10.7718 10.2 10.7682 10.2 10.7647 10.2C10.7612 10.2 10.7576 10.2 10.7541 10.2C10.7506 10.2 10.7471 10.2 10.7435 10.2C10.74 10.2 10.7365 10.2 10.733 10.2C10.7294 10.2 10.7259 10.2 10.7224 10.2C10.7189 10.2 10.7154 10.2 10.7118 10.2C10.7083 10.2 10.7048 10.2 10.7013 10.2C10.6978 10.2 10.6943 10.2 10.6907 10.2C10.6872 10.2 10.6837 10.2 10.6802 10.2C10.6767 10.2 10.6732 10.2 10.6697 10.2C10.6662 10.2 10.6627 10.2 10.6592 10.2C10.6557 10.2 10.6522 10.2 10.6487 10.2C10.6452 10.2 10.6417 10.2 10.6382 10.2C10.6347 10.2 10.6312 10.2 10.6277 10.2C10.6242 10.2 10.6207 10.2 10.6172 10.2C10.6138 10.2 10.6103 10.2 10.6068 10.2C10.6033 10.2 10.5998 10.2 10.5963 10.2C10.5928 10.2 10.5894 10.2 10.5859 10.2C10.5824 10.2 10.5789 10.2 10.5755 10.2C10.572 10.2 10.5685 10.2 10.565 10.2C10.5616 10.2 10.5581 10.2 10.5546 10.2C10.5512 10.2 10.5477 10.2 10.5442 10.2C10.5408 10.2 10.5373 10.2 10.5338 10.2C10.5304 10.2 10.5269 10.2 10.5234 10.2C10.52 10.2 10.5165 10.2 10.5131 10.2C10.5096 10.2 10.5062 10.2 10.5027 10.2C10.4993 10.2 10.4958 10.2 10.4924 10.2C10.4889 10.2 10.4855 10.2 10.482 10.2C10.4786 10.2 10.4751 10.2 10.4717 10.2C10.4683 10.2 10.4648 10.2 10.4614 10.2C10.4579 10.2 10.4545 10.2 10.4511 10.2C10.4476 10.2 10.4442 10.2 10.4408 10.2C10.4373 10.2 10.4339 10.2 10.4305 10.2C10.4271 10.2 10.4236 10.2 10.4202 10.2C10.4168 10.2 10.4134 10.2 10.4099 10.2C10.4065 10.2 10.4031 10.2 10.3997 10.2C10.3963 10.2 10.3929 10.2 10.3894 10.2C10.386 10.2 10.3826 10.2 10.3792 10.2C10.3758 10.2 10.3724 10.2 10.369 10.2C10.3656 10.2 10.3622 10.2 10.3588 10.2C10.3554 10.2 10.352 10.2 10.3486 10.2C10.3452 10.2 10.3418 10.2 10.3384 10.2C10.335 10.2 10.3316 10.2 10.3282 10.2C10.3248 10.2 10.3214 10.2 10.3181 10.2C10.3147 10.2 10.3113 10.2 10.3079 10.2C10.3045 10.2 10.3011 10.2 10.2978 10.2C10.2944 10.2 10.291 10.2 10.2876 10.2C10.2842 10.2 10.2809 10.2 10.2775 10.2C10.2741 10.2 10.2708 10.2 10.2674 10.2C10.264 10.2 10.2607 10.2 10.2573 10.2C10.2539 10.2 10.2506 10.2 10.2472 10.2C10.2438 10.2 10.2405 10.2 10.2371 10.2C10.2338 10.2 10.2304 10.2 10.2271 10.2C10.2237 10.2 10.2204 10.2 10.217 10.2C10.2137 10.2 10.2103 10.2 10.207 10.2C10.2036 10.2 10.2003 10.2 10.197 10.2C10.1936 10.2 10.1903 10.2 10.1869 10.2C10.1836 10.2 10.1803 10.2 10.1769 10.2C10.1736 10.2 10.1703 10.2 10.1669 10.2C10.1636 10.2 10.1603 10.2 10.157 10.2C10.1536 10.2 10.1503 10.2 10.147 10.2C10.1437 10.2 10.1404 10.2 10.137 10.2C10.1337 10.2 10.1304 10.2 10.1271 10.2C10.1238 10.2 10.1205 10.2 10.1172 10.2C10.1139 10.2 10.1106 10.2 10.1073 10.2C10.104 10.2 10.1007 10.2 10.0974 10.2C10.0941 10.2 10.0908 10.2 10.0875 10.2C10.0842 10.2 10.0809 10.2 10.0776 10.2C10.0743 10.2 10.071 10.2 10.0677 10.2C10.0644 10.2 10.0611 10.2 10.0579 10.2C10.0546 10.2 10.0513 10.2 10.048 10.2C10.0447 10.2 10.0415 10.2 10.0382 10.2C10.0349 10.2 10.0316 10.2 10.0284 10.2C10.0251 10.2 10.0218 10.2 10.0186 10.2C10.0153 10.2 10.012 10.2 10.0088 10.2C10.0055 10.2 10.0022 10.2 9.99899 10.2C9.99573 10.2 9.99248 10.2 9.98922 10.2C9.98597 10.2 9.98272 10.2 9.97947 10.2C9.97622 10.2 9.97298 10.2 9.96973 10.2C9.96649 10.2 9.96324 10.2 9.96 10.2C9.95676 10.2 9.95353 10.2 9.95029 10.2C9.94706 10.2 9.94382 10.2 9.94059 10.2C9.93736 10.2 9.93413 10.2 9.9309 10.2C9.92768 10.2 9.92445 10.2 9.92123 10.2C9.91801 10.2 9.91479 10.2 9.91157 10.2C9.90835 10.2 9.90514 10.2 9.90192 10.2C9.89871 10.2 9.8955 10.2 9.89229 10.2C9.88908 10.2 9.88587 10.2 9.88267 10.2C9.87946 10.2 9.87626 10.2 9.87306 10.2C9.86986 10.2 9.86666 10.2 9.86347 10.2C9.86027 10.2 9.85708 10.2 9.85389 10.2C9.8507 10.2 9.84751 10.2 9.84432 10.2C9.84114 10.2 9.83795 10.2 9.83477 10.2C9.83159 10.2 9.82841 10.2 9.82523 10.2C9.82206 10.2 9.81888 10.2 9.81571 10.2C9.81254 10.2 9.80937 10.2 9.8062 10.2C9.80303 10.2 9.79986 10.2 9.7967 10.2C9.79354 10.2 9.79038 10.2 9.78722 10.2C9.78406 10.2 9.7809 10.2 9.77775 10.2C9.7746 10.2 9.77145 10.2 9.7683 10.2C9.76515 10.2 9.762 10.2 9.75886 10.2C9.75571 10.2 9.75257 10.2 9.74943 10.2C9.74629 10.2 9.74315 10.2 9.74002 10.2C9.73688 10.2 9.73375 10.2 9.73062 10.2C9.72749 10.2 9.72436 10.2 9.72124 10.2C9.71811 10.2 9.71499 10.2 9.71187 10.2C9.70875 10.2 9.70563 10.2 9.70252 10.2C9.6994 10.2 9.69629 10.2 9.69318 10.2C9.69007 10.2 9.68696 10.2 9.68385 10.2C9.68075 10.2 9.67764 10.2 9.67454 10.2C9.67144 10.2 9.66834 10.2 9.66525 10.2C9.66215 10.2 9.65906 10.2 9.65597 10.2C9.65287 10.2 9.64979 10.2 9.6467 10.2C9.64361 10.2 9.64053 10.2 9.63745 10.2C9.63437 10.2 9.63129 10.2 9.62821 10.2C9.62514 10.2 9.62206 10.2 9.61899 10.2C9.61592 10.2 9.61285 10.2 9.60978 10.2C9.60672 10.2 9.60365 10.2 9.60059 10.2C9.59753 10.2 9.59447 10.2 9.59142 10.2C9.58836 10.2 9.58531 10.2 9.58225 10.2C9.5792 10.2 9.57615 10.2 9.57311 10.2C9.57006 10.2 9.56702 10.2 9.56398 10.2C9.56094 10.2 9.5579 10.2 9.55486 10.2C9.55183 10.2 9.54879 10.2 9.54576 10.2C9.54273 10.2 9.5397 10.2 9.53668 10.2C9.53365 10.2 9.53063 10.2 9.52761 10.2C9.52459 10.2 9.52157 10.2 9.51855 10.2C9.51554 10.2 9.51253 10.2 9.50952 10.2C9.50651 10.2 9.5035 10.2 9.50049 10.2C9.49749 10.2 9.49449 10.2 9.49149 10.2C9.48849 10.2 9.48549 10.2 9.4825 10.2C9.4795 10.2 9.47651 10.2 9.47352 10.2C9.47053 10.2 9.46754 10.2 9.46456 10.2C9.46158 10.2 9.45859 10.2 9.45562 10.2C9.45264 10.2 9.44966 10.2 9.44669 10.2C9.44371 10.2 9.44074 10.2 9.43778 10.2C9.43481 10.2 9.43184 10.2 9.42888 10.2C9.42592 10.2 9.42296 10.2 9.42 10.2C9.41704 10.2 9.41409 10.2 9.41114 10.2C9.40818 10.2 9.40523 10.2 9.40229 10.2C9.39934 10.2 9.3964 10.2 9.39346 10.2C9.39052 10.2 9.38758 10.2 9.38464 10.2C9.38171 10.2 9.37877 10.2 9.37584 10.2C9.37291 10.2 9.36998 10.2 9.36706 10.2C9.36413 10.2 9.36121 10.2 9.35829 10.2C9.35537 10.2 9.35246 10.2 9.34954 10.2C9.34663 10.2 9.34372 10.2 9.34081 10.2C9.3379 10.2 9.335 10.2 9.33209 10.2C9.32919 10.2 9.32629 10.2 9.32339 10.2C9.3205 10.2 9.3176 10.2 9.31471 10.2C9.31182 10.2 9.30893 10.2 9.30604 10.2C9.30316 10.2 9.30027 10.2 9.29739 10.2C9.29451 10.2 9.29164 10.2 9.28876 10.2C9.28589 10.2 9.28301 10.2 9.28014 10.2C9.27728 10.2 9.27441 10.2 9.27155 10.2C9.26868 10.2 9.26582 10.2 9.26296 10.2C9.26011 10.2 9.25725 10.2 9.2544 10.2C9.25155 10.2 9.2487 10.2 9.24585 10.2C9.243 10.2 9.24016 10.2 9.23732 10.2C9.23448 10.2 9.23164 10.2 9.22881 10.2C9.22597 10.2 9.22314 10.2 9.22031 10.2C9.21748 10.2 9.21465 10.2 9.21183 10.2C9.20901 10.2 9.20619 10.2 9.20337 10.2C9.20055 10.2 9.19773 10.2 9.19492 10.2C9.19211 10.2 9.1893 10.2 9.1865 10.2C9.18369 10.2 9.18089 10.2 9.17809 10.2C9.17529 10.2 9.17249 10.2 9.16969 10.2C9.1669 10.2 9.16411 10.2 9.16132 10.2C9.15853 10.2 9.15575 10.2 9.15296 10.2C9.15018 10.2 9.1474 10.2 9.14462 10.2C9.14185 10.2 9.13907 10.2 9.1363 10.2C9.13353 10.2 9.13076 10.2 9.128 10.2C9.12523 10.2 9.12247 10.2 9.11971 10.2C9.11695 10.2 9.1142 10.2 9.11144 10.2C9.10869 10.2 9.10594 10.2 9.10319 10.2C9.10045 10.2 9.0977 10.2 9.09496 10.2C9.09222 10.2 9.08948 10.2 9.08675 10.2C9.08401 10.2 9.08128 10.2 9.07855 10.2C9.07582 10.2 9.0731 10.2 9.07038 10.2C9.06765 10.2 9.06493 10.2 9.06222 10.2C9.0595 10.2 9.05679 10.2 9.05408 10.2C9.05136 10.2 9.04866 10.2 9.04595 10.2C9.04325 10.2 9.04055 10.2 9.03785 10.2C9.03515 10.2 9.03245 10.2 9.02976 10.2C9.02707 10.2 9.02438 10.2 9.02169 10.2C9.01901 10.2 9.01632 10.2 9.01364 10.2C9.01096 10.2 9.00829 10.2 9.00561 10.2C9.00294 10.2 9.00027 10.2 8.9976 10.2C8.99493 10.2 8.99227 10.2 8.98961 10.2C8.98695 10.2 8.98429 10.2 8.98163 10.2C8.97898 10.2 8.97633 10.2 8.97368 10.2C8.97103 10.2 8.96838 10.2 8.96574 10.2C8.9631 10.2 8.96046 10.2 8.95782 10.2C8.95519 10.2 8.95255 10.2 8.94992 10.2C8.94729 10.2 8.94467 10.2 8.94204 10.2C8.93942 10.2 8.9368 10.2 8.93418 10.2C8.93157 10.2 8.92895 10.2 8.92634 10.2C8.92373 10.2 8.92112 10.2 8.91852 10.2C8.91591 10.2 8.91331 10.2 8.91071 10.2C8.90812 10.2 8.90552 10.2 8.90293 10.2C8.90034 10.2 8.89775 10.2 8.89516 10.2C8.89258 10.2 8.89 10.2 8.88742 10.2C8.88484 10.2 8.88226 10.2 8.87969 10.2C8.87712 10.2 8.87455 10.2 8.87198 10.2C8.86942 10.2 8.86686 10.2 8.8643 10.2C8.86174 10.2 8.85918 10.2 8.85663 10.2C8.85407 10.2 8.85153 10.2 8.84898 10.2C8.84643 10.2 8.84389 10.2 8.84135 10.2C8.83881 10.2 8.83627 10.2 8.83374 10.2C8.83121 10.2 8.82868 10.2 8.82615 10.2C8.82363 10.2 8.8211 10.2 8.81858 10.2C8.81606 10.2 8.81355 10.2 8.81103 10.2C8.80852 10.2 8.80601 10.2 8.8035 10.2C8.80099 10.2 8.79849 10.2 8.79599 10.2C8.79349 10.2 8.791 10.2 8.7885 10.2C8.78601 10.2 8.78352 10.2 8.78103 10.2C8.77854 10.2 8.77606 10.2 8.77358 10.2C8.7711 10.2 8.76863 10.2 8.76615 10.2C8.76368 10.2 8.76121 10.2 8.75874 10.2C8.75628 10.2 8.75381 10.2 8.75135 10.2C8.74889 10.2 8.74644 10.2 8.74398 10.2C8.74153 10.2 8.73908 10.2 8.73664 10.2C8.73419 10.2 8.73175 10.2 8.72931 10.2C8.72687 10.2 8.72443 10.2 8.722 10.2C8.71957 10.2 8.71714 10.2 8.71471 10.2C8.71229 10.2 8.70986 10.2 8.70745 10.2C8.70503 10.2 8.70261 10.2 8.7002 10.2C8.69779 10.2 8.69538 10.2 8.69297 10.2C8.69057 10.2 8.68817 10.2 8.68577 10.2C8.68337 10.2 8.68098 10.2 8.67858 10.2C8.67619 10.2 8.67381 10.2 8.67142 10.2C8.66904 10.2 8.66666 10.2 8.66428 10.2C8.6619 10.2 8.65953 10.2 8.65716 10.2C8.65479 10.2 8.65242 10.2 8.65006 10.2C8.64769 10.2 8.64533 10.2 8.64298 10.2C8.64062 10.2 8.63827 10.2 8.63592 10.2C8.63357 10.2 8.63122 10.2 8.62888 10.2C8.62654 10.2 8.6242 10.2 8.62187 10.2C8.61953 10.2 8.6172 10.2 8.61487 10.2C8.61254 10.2 8.61022 10.2 8.6079 10.2C8.60558 10.2 8.60326 10.2 8.60095 10.2C8.59863 10.2 8.59632 10.2 8.59401 10.2C8.59171 10.2 8.5894 10.2 8.5871 10.2C8.58481 10.2 8.58251 10.2 8.58022 10.2C8.57792 10.2 8.57564 10.2 8.57335 10.2C8.57107 10.2 8.56878 10.2 8.56651 10.2C8.56423 10.2 8.56195 10.2 8.55968 10.2C8.55741 10.2 8.55514 10.2 8.55288 10.2C8.55062 10.2 8.54836 10.2 8.5461 10.2C8.54384 10.2 8.54159 10.2 8.53934 10.2C8.53709 10.2 8.53485 10.2 8.53261 10.2C8.53036 10.2 8.52813 10.2 8.52589 10.2C8.52366 10.2 8.52143 10.2 8.5192 10.2C8.51697 10.2 8.51475 10.2 8.51253 10.2C8.51031 10.2 8.50809 10.2 8.50588 10.2C8.50367 10.2 8.50146 10.2 8.49925 10.2C8.49705 10.2 8.49485 10.2 8.49265 10.2C8.49045 10.2 8.48826 10.2 8.48607 10.2C8.48388 10.2 8.48169 10.2 8.47951 10.2C8.47733 10.2 8.47515 10.2 8.47297 10.2C8.4708 10.2 8.46862 10.2 8.46646 10.2C8.46429 10.2 8.46212 10.2 8.45996 10.2C8.4578 10.2 8.45565 10.2 8.45349 10.2C8.45134 10.2 8.44919 10.2 8.44705 10.2C8.4449 10.2 8.44276 10.2 8.44062 10.2C8.43848 10.2 8.43635 10.2 8.43422 10.2C8.43209 10.2 8.42996 10.2 8.42784 10.2C8.42572 10.2 8.4236 10.2 8.42148 10.2C8.41937 10.2 8.41725 10.2 8.41515 10.2C8.41304 10.2 8.41093 10.2 8.40883 10.2C8.40673 10.2 8.40464 10.2 8.40255 10.2C8.40045 10.2 8.39837 10.2 8.39628 10.2C8.3942 10.2 8.39211 10.2 8.39004 10.2C8.38796 10.2 8.38589 10.2 8.38382 10.2C8.38175 10.2 8.37968 10.2 8.37762 10.2C8.37556 10.2 8.3735 10.2 8.37145 10.2C8.36939 10.2 8.36734 10.2 8.3653 10.2C8.36325 10.2 8.36121 10.2 8.35917 10.2C8.35713 10.2 8.3551 10.2 8.35307 10.2C8.35103 10.2 8.34901 10.2 8.34698 10.2C8.34496 10.2 8.34294 10.2 8.34093 10.2C8.33891 10.2 8.3369 10.2 8.33489 10.2C8.33289 10.2 8.33088 10.2 8.32888 10.2C8.32688 10.2 8.32489 10.2 8.3229 10.2C8.3209 10.2 8.31892 10.2 8.31693 10.2C8.31495 10.2 8.31297 10.2 8.31099 10.2C8.30902 10.2 8.30704 10.2 8.30508 10.2C8.30311 10.2 8.30114 10.2 8.29918 10.2C8.29722 10.2 8.29527 10.2 8.29331 10.2C8.29136 10.2 8.28941 10.2 8.28747 10.2C8.28553 10.2 8.28359 10.2 8.28165 10.2C8.27971 10.2 8.27778 10.2 8.27585 10.2C8.27392 10.2 8.272 10.2 8.27008 10.2C8.26816 10.2 8.26624 10.2 8.26433 10.2C8.26242 10.2 8.26051 10.2 8.25861 10.2C8.2567 10.2 8.2548 10.2 8.2529 10.2C8.25101 10.2 8.24912 10.2 8.24723 10.2C8.24534 10.2 8.24346 10.2 8.24158 10.2C8.2397 10.2 8.23782 10.2 8.23595 10.2C8.23408 10.2 8.23221 10.2 8.23034 10.2C8.22848 10.2 8.22662 10.2 8.22476 10.2C8.22291 10.2 8.22106 10.2 8.21921 10.2C8.21736 10.2 8.21552 10.2 8.21368 10.2C8.21184 10.2 8.21001 10.2 8.20817 10.2C8.20634 10.2 8.20452 10.2 8.20269 10.2C8.20087 10.2 8.19905 10.2 8.19724 10.2C8.19542 10.2 8.19361 10.2 8.1918 10.2C8.19 10.2 8.1882 10.2 8.1864 10.2C8.1846 10.2 8.18281 10.2 8.18102 10.2C8.17922 10.2 8.17744 10.2 8.17566 10.2C8.17388 10.2 8.1721 10.2 8.17032 10.2C8.16855 10.2 8.16678 10.2 8.16502 10.2C8.16325 10.2 8.16149 10.2 8.15973 10.2C8.15798 10.2 8.15623 10.2 8.15448 10.2C8.15273 10.2 8.15098 10.2 8.14924 10.2C8.1475 10.2 8.14577 10.2 8.14404 10.2C8.14231 10.2 8.14058 10.2 8.13886 10.2C8.13713 10.2 8.13541 10.2 8.1337 10.2C8.13198 10.2 8.13027 10.2 8.12857 10.2C8.12686 10.2 8.12516 10.2 8.12346 10.2C8.12176 10.2 8.12007 10.2 8.11838 10.2C8.11669 10.2 8.11501 10.2 8.11333 10.2C8.11164 10.2 8.10997 10.2 8.1083 10.2C8.10662 10.2 8.10496 10.2 8.10329 10.2C8.10163 10.2 8.09997 10.2 8.09831 10.2C8.09666 10.2 8.09501 10.2 8.09336 10.2C8.09171 10.2 8.09007 10.2 8.08843 10.2C8.08679 10.2 8.08516 10.2 8.08353 10.2C8.0819 10.2 8.08028 10.2 8.07866 10.2C8.07703 10.2 8.07542 10.2 8.07381 10.2C8.07219 10.2 8.07059 10.2 8.06898 10.2C8.06738 10.2 8.06578 10.2 8.06418 10.2C8.06259 10.2 8.061 10.2 8.05941 10.2C8.05783 10.2 8.05624 10.2 8.05467 10.2C8.05309 10.2 8.05152 10.2 8.04995 10.2C8.04838 10.2 8.04681 10.2 8.04525 10.2C8.04369 10.2 8.04214 10.2 8.04059 10.2C8.03904 10.2 8.03749 10.2 8.03595 10.2C8.0344 10.2 8.03287 10.2 8.03133 10.2C8.0298 10.2 8.02827 10.2 8.02674 10.2C8.02522 10.2 8.0237 10.2 8.02218 10.2C8.02067 10.2 8.01915 10.2 8.01765 10.2C8.01614 10.2 8.01464 10.2 8.01314 10.2C8.01164 10.2 8.01015 10.2 8.00866 10.2C8.00717 10.2 8.00568 10.2 8.0042 10.2C8.00272 10.2 8.00124 10.2 7.99977 10.2C7.9983 10.2 7.99683 10.2 7.99537 10.2C7.99391 10.2 7.99245 10.2 7.99099 10.2C7.98954 10.2 7.98809 10.2 7.98665 10.2C7.9852 10.2 7.98376 10.2 7.98233 10.2C7.98089 10.2 7.97946 10.2 7.97803 10.2C7.9766 10.2 7.97518 10.2 7.97376 10.2C7.97234 10.2 7.97093 10.2 7.96952 10.2C7.96811 10.2 7.96671 10.2 7.96531 10.2C7.96391 10.2 7.96251 10.2 7.96112 10.2C7.95973 10.2 7.95835 10.2 7.95696 10.2C7.95558 10.2 7.9542 10.2 7.95283 10.2C7.95146 10.2 7.95009 10.2 7.94873 10.2C7.94736 10.2 7.946 10.2 7.94465 10.2C7.9433 10.2 7.94195 10.2 7.9406 10.2C7.93926 10.2 7.93791 10.2 7.93658 10.2C7.93524 10.2 7.93391 10.2 7.93258 10.2C7.93126 10.2 7.92993 10.2 7.92862 10.2C7.9273 10.2 7.92599 10.2 7.92468 10.2C7.92337 10.2 7.92206 10.2 7.92077 10.2C7.91947 10.2 7.91817 10.2 7.91688 10.2C7.91559 10.2 7.91431 10.2 7.91302 10.2C7.91174 10.2 7.91047 10.2 7.9092 10.2C7.90792 10.2 7.90666 10.2 7.9054 10.2C7.90413 10.2 7.90288 10.2 7.90162 10.2C7.90037 10.2 7.89912 10.2 7.89788 10.2C7.89663 10.2 7.8954 10.2 7.89416 10.2C7.89293 10.2 7.8917 10.2 7.89047 10.2C7.88925 10.2 7.88803 10.2 7.88681 10.2C7.8856 10.2 7.88439 10.2 7.88318 10.2C7.88197 10.2 7.88077 10.2 7.87958 10.2C7.87838 10.2 7.87719 10.2 7.876 10.2C7.87481 10.2 7.87363 10.2 7.87245 10.2C7.87127 10.2 7.8701 10.2 7.86893 10.2C7.86776 10.2 7.8666 10.2 7.86544 10.2C7.86428 10.2 7.86313 10.2 7.86198 10.2C7.86083 10.2 7.85969 10.2 7.85855 10.2C7.85741 10.2 7.85627 10.2 7.85514 10.2C7.85401 10.2 7.85289 10.2 7.85176 10.2C7.85064 10.2 7.84953 10.2 7.84842 10.2C7.84731 10.2 7.8462 10.2 7.8451 10.2C7.844 10.2 7.8429 10.2 7.84181 10.2C7.84071 10.2 7.83963 10.2 7.83855 10.2C7.83746 10.2 7.83639 10.2 7.83531 10.2C7.83424 10.2 7.83317 10.2 7.83211 10.2C7.83105 10.2 7.82999 10.2 7.82893 10.2C7.82788 10.2 7.82683 10.2 7.82579 10.2C7.82475 10.2 7.82371 10.2 7.82267 10.2C7.82164 10.2 7.82061 10.2 7.81959 10.2C7.81856 10.2 7.81754 10.2 7.81653 10.2C7.81551 10.2 7.8145 10.2 7.8135 10.2C7.81249 10.2 7.81149 10.2 7.8105 10.2C7.8095 10.2 7.80851 10.2 7.80753 10.2C7.80654 10.2 7.80556 10.2 7.80459 10.2C7.80361 10.2 7.80264 10.2 7.80168 10.2C7.80071 10.2 7.79975 10.2 7.79879 10.2C7.79784 10.2 7.79689 10.2 7.79594 10.2C7.795 10.2 7.79405 10.2 7.79312 10.2C7.79218 10.2 7.79125 10.2 7.79033 10.2C7.7894 10.2 7.78848 10.2 7.78756 10.2C7.78665 10.2 7.78574 10.2 7.78483 10.2C7.78392 10.2 7.78302 10.2 7.78212 10.2C7.78123 10.2 7.78034 10.2 7.77945 10.2C7.77856 10.2 7.77768 10.2 7.77681 10.2C7.77593 10.2 7.77506 10.2 7.77419 10.2C7.77333 10.2 7.77247 10.2 7.77161 10.2C7.77075 10.2 7.7699 10.2 7.76906 10.2C7.76821 10.2 7.76737 10.2 7.76653 10.2C7.7657 10.2 7.76486 10.2 7.76404 10.2C7.76321 10.2 7.76239 10.2 7.76157 10.2C7.76076 10.2 7.75995 10.2 7.75914 10.2C7.75834 10.2 7.75753 10.2 7.75674 10.2C7.75594 10.2 7.75515 10.2 7.75437 10.2C7.75358 10.2 7.7528 10.2 7.75202 10.2C7.75125 10.2 7.75048 10.2 7.74971 10.2C7.74895 10.2 7.74819 10.2 7.74743 10.2C7.74668 10.2 7.74593 10.2 7.74518 10.2C7.74444 10.2 7.7437 10.2 7.74296 10.2C7.74223 10.2 7.7415 10.2 7.74077 10.2C7.74005 10.2 7.73933 10.2 7.73861 10.2C7.7379 10.2 7.73719 10.2 7.73649 10.2C7.73578 10.2 7.73508 10.2 7.73439 10.2C7.73369 10.2 7.73301 10.2 7.73232 10.2C7.73164 10.2 7.73096 10.2 7.73029 10.2C7.72961 10.2 7.72895 10.2 7.72828 10.2C7.72762 10.2 7.72696 10.2 7.72631 10.2C7.72566 10.2 7.72501 10.2 7.72437 10.2C7.72373 10.2 7.72309 10.2 7.72246 10.2C7.72183 10.2 7.7212 10.2 7.72058 10.2C7.71996 10.2 7.71934 10.2 7.71873 10.2C7.71812 10.2 7.71751 10.2 7.71691 10.2C7.71631 10.2 7.71572 10.2 7.71513 10.2C7.71454 10.2 7.71395 10.2 7.71337 10.2C7.71279 10.2 7.71222 10.2 7.71165 10.2C7.71108 10.2 7.71052 10.2 7.70996 10.2C7.7094 10.2 7.70885 10.2 7.7083 10.2C7.70775 10.2 7.70721 10.2 7.70667 10.2C7.70613 10.2 7.7056 10.2 7.70507 10.2C7.70455 10.2 7.70403 10.2 7.70351 10.2C7.70299 10.2 7.70248 10.2 7.70198 10.2C7.70147 10.2 7.70097 10.2 7.70048 10.2C7.69998 10.2 7.69949 10.2 7.69901 10.2C7.69852 10.2 7.69804 10.2 7.69757 10.2C7.69709 10.2 7.69663 10.2 7.69616 10.2C7.6957 10.2 7.69524 10.2 7.69479 10.2C7.69434 10.2 7.69389 10.2 7.69345 10.2C7.69301 10.2 7.69257 10.2 7.69214 10.2C7.69171 10.2 7.69128 10.2 7.69086 10.2C7.69044 10.2 7.69003 10.2 7.68962 10.2C7.68921 10.2 7.6888 10.2 7.6884 10.2C7.688 10.2 7.68761 10.2 7.68722 10.2C7.68684 10.2 7.68645 10.2 7.68608 10.2C7.6857 10.2 7.68533 10.2 7.68496 10.2C7.68459 10.2 7.68423 10.2 7.68388 10.2C7.68352 10.2 7.68317 10.2 7.68283 10.2C7.68248 10.2 7.68214 10.2 7.68181 10.2C7.68147 10.2 7.68115 10.2 7.68082 10.2C7.6805 10.2 7.68018 10.2 7.67987 10.2C7.67956 10.2 7.67925 10.2 7.67895 10.2C7.67865 10.2 7.67835 10.2 7.67806 10.2C7.67777 10.2 7.67749 10.2 7.67721 10.2C7.67693 10.2 7.67665 10.2 7.67639 10.2C7.67612 10.2 7.67586 10.2 7.6756 10.2C7.67534 10.2 7.67509 10.2 7.67484 10.2C7.6746 10.2 7.67436 10.2 7.67412 10.2C7.67388 10.2 7.67365 10.2 7.67343 10.2C7.67321 10.2 7.67299 10.2 7.67277 10.2C7.67256 10.2 7.67235 10.2 7.67215 10.2C7.67195 10.2 7.67175 10.2 7.67156 10.2C7.67137 10.2 7.67118 10.2 7.671 10.2C7.67082 10.2 7.67065 10.2 7.67048 10.2C7.67031 10.2 7.67015 10.2 7.66999 10.2C7.66983 10.2 7.66968 10.2 7.66953 10.2C7.66939 10.2 7.66925 10.2 7.66911 10.2C7.66898 10.2 7.66885 10.2 7.66872 10.2C7.6686 10.2 7.66848 10.2 7.66837 10.2C7.66825 10.2 7.66815 10.2 7.66804 10.2C7.66794 10.2 7.66785 10.2 7.66776 10.2C7.66767 10.2 7.66758 10.2 7.6675 10.2C7.66742 10.2 7.66735 10.2 7.66728 10.2C7.66721 10.2 7.66715 10.2 7.66709 10.2C7.66704 10.2 7.66699 10.2 7.66694 10.2C7.66689 10.2 7.66685 10.2 7.66682 10.2C7.66679 10.2 7.66676 10.2 7.66674 10.2C7.66671 10.2 7.6667 10.2 7.66668 10.2C7.66667 10.2 7.66667 10.2 7.66667 11C7.66667 11.8 7.66667 11.8 7.66668 11.8C7.6667 11.8 7.66671 11.8 7.66674 11.8C7.66676 11.8 7.66679 11.8 7.66682 11.8C7.66685 11.8 7.66689 11.8 7.66694 11.8C7.66699 11.8 7.66704 11.8 7.66709 11.8C7.66715 11.8 7.66721 11.8 7.66728 11.8C7.66735 11.8 7.66742 11.8 7.6675 11.8C7.66758 11.8 7.66767 11.8 7.66776 11.8C7.66785 11.8 7.66794 11.8 7.66804 11.8C7.66815 11.8 7.66825 11.8 7.66837 11.8C7.66848 11.8 7.6686 11.8 7.66872 11.8C7.66885 11.8 7.66898 11.8 7.66911 11.8C7.66925 11.8 7.66939 11.8 7.66953 11.8C7.66968 11.8 7.66983 11.8 7.66999 11.8C7.67015 11.8 7.67031 11.8 7.67048 11.8C7.67065 11.8 7.67082 11.8 7.671 11.8C7.67118 11.8 7.67137 11.8 7.67156 11.8C7.67175 11.8 7.67195 11.8 7.67215 11.8C7.67235 11.8 7.67256 11.8 7.67277 11.8C7.67299 11.8 7.67321 11.8 7.67343 11.8C7.67365 11.8 7.67388 11.8 7.67412 11.8C7.67436 11.8 7.6746 11.8 7.67484 11.8C7.67509 11.8 7.67534 11.8 7.6756 11.8C7.67586 11.8 7.67612 11.8 7.67639 11.8C7.67665 11.8 7.67693 11.8 7.67721 11.8C7.67749 11.8 7.67777 11.8 7.67806 11.8C7.67835 11.8 7.67865 11.8 7.67895 11.8C7.67925 11.8 7.67956 11.8 7.67987 11.8C7.68018 11.8 7.6805 11.8 7.68082 11.8C7.68115 11.8 7.68147 11.8 7.68181 11.8C7.68214 11.8 7.68248 11.8 7.68283 11.8C7.68317 11.8 7.68352 11.8 7.68388 11.8C7.68423 11.8 7.68459 11.8 7.68496 11.8C7.68533 11.8 7.6857 11.8 7.68608 11.8C7.68645 11.8 7.68684 11.8 7.68722 11.8C7.68761 11.8 7.688 11.8 7.6884 11.8C7.6888 11.8 7.68921 11.8 7.68962 11.8C7.69003 11.8 7.69044 11.8 7.69086 11.8C7.69128 11.8 7.69171 11.8 7.69214 11.8C7.69257 11.8 7.69301 11.8 7.69345 11.8C7.69389 11.8 7.69434 11.8 7.69479 11.8C7.69524 11.8 7.6957 11.8 7.69616 11.8C7.69663 11.8 7.69709 11.8 7.69757 11.8C7.69804 11.8 7.69852 11.8 7.69901 11.8C7.69949 11.8 7.69998 11.8 7.70048 11.8C7.70097 11.8 7.70147 11.8 7.70198 11.8C7.70248 11.8 7.70299 11.8 7.70351 11.8C7.70403 11.8 7.70455 11.8 7.70507 11.8C7.7056 11.8 7.70613 11.8 7.70667 11.8C7.70721 11.8 7.70775 11.8 7.7083 11.8C7.70885 11.8 7.7094 11.8 7.70996 11.8C7.71052 11.8 7.71108 11.8 7.71165 11.8C7.71222 11.8 7.71279 11.8 7.71337 11.8C7.71395 11.8 7.71454 11.8 7.71513 11.8C7.71572 11.8 7.71631 11.8 7.71691 11.8C7.71751 11.8 7.71812 11.8 7.71873 11.8C7.71934 11.8 7.71996 11.8 7.72058 11.8C7.7212 11.8 7.72183 11.8 7.72246 11.8C7.72309 11.8 7.72373 11.8 7.72437 11.8C7.72501 11.8 7.72566 11.8 7.72631 11.8C7.72696 11.8 7.72762 11.8 7.72828 11.8C7.72895 11.8 7.72961 11.8 7.73029 11.8C7.73096 11.8 7.73164 11.8 7.73232 11.8C7.73301 11.8 7.73369 11.8 7.73439 11.8C7.73508 11.8 7.73578 11.8 7.73649 11.8C7.73719 11.8 7.7379 11.8 7.73861 11.8C7.73933 11.8 7.74005 11.8 7.74077 11.8C7.7415 11.8 7.74223 11.8 7.74296 11.8C7.7437 11.8 7.74444 11.8 7.74518 11.8C7.74593 11.8 7.74668 11.8 7.74743 11.8C7.74819 11.8 7.74895 11.8 7.74971 11.8C7.75048 11.8 7.75125 11.8 7.75202 11.8C7.7528 11.8 7.75358 11.8 7.75437 11.8C7.75515 11.8 7.75594 11.8 7.75674 11.8C7.75753 11.8 7.75834 11.8 7.75914 11.8C7.75995 11.8 7.76076 11.8 7.76157 11.8C7.76239 11.8 7.76321 11.8 7.76404 11.8C7.76486 11.8 7.7657 11.8 7.76653 11.8C7.76737 11.8 7.76821 11.8 7.76906 11.8C7.7699 11.8 7.77075 11.8 7.77161 11.8C7.77247 11.8 7.77333 11.8 7.77419 11.8C7.77506 11.8 7.77593 11.8 7.77681 11.8C7.77768 11.8 7.77856 11.8 7.77945 11.8C7.78034 11.8 7.78123 11.8 7.78212 11.8C7.78302 11.8 7.78392 11.8 7.78483 11.8C7.78574 11.8 7.78665 11.8 7.78756 11.8C7.78848 11.8 7.7894 11.8 7.79033 11.8C7.79125 11.8 7.79218 11.8 7.79312 11.8C7.79405 11.8 7.795 11.8 7.79594 11.8C7.79689 11.8 7.79784 11.8 7.79879 11.8C7.79975 11.8 7.80071 11.8 7.80168 11.8C7.80264 11.8 7.80361 11.8 7.80459 11.8C7.80556 11.8 7.80654 11.8 7.80753 11.8C7.80851 11.8 7.8095 11.8 7.8105 11.8C7.81149 11.8 7.81249 11.8 7.8135 11.8C7.8145 11.8 7.81551 11.8 7.81653 11.8C7.81754 11.8 7.81856 11.8 7.81959 11.8C7.82061 11.8 7.82164 11.8 7.82267 11.8C7.82371 11.8 7.82475 11.8 7.82579 11.8C7.82683 11.8 7.82788 11.8 7.82893 11.8C7.82999 11.8 7.83105 11.8 7.83211 11.8C7.83317 11.8 7.83424 11.8 7.83531 11.8C7.83639 11.8 7.83746 11.8 7.83855 11.8C7.83963 11.8 7.84071 11.8 7.84181 11.8C7.8429 11.8 7.844 11.8 7.8451 11.8C7.8462 11.8 7.84731 11.8 7.84842 11.8C7.84953 11.8 7.85064 11.8 7.85176 11.8C7.85289 11.8 7.85401 11.8 7.85514 11.8C7.85627 11.8 7.85741 11.8 7.85855 11.8C7.85969 11.8 7.86083 11.8 7.86198 11.8C7.86313 11.8 7.86428 11.8 7.86544 11.8C7.8666 11.8 7.86776 11.8 7.86893 11.8C7.8701 11.8 7.87127 11.8 7.87245 11.8C7.87363 11.8 7.87481 11.8 7.876 11.8C7.87719 11.8 7.87838 11.8 7.87958 11.8C7.88077 11.8 7.88197 11.8 7.88318 11.8C7.88439 11.8 7.8856 11.8 7.88681 11.8C7.88803 11.8 7.88925 11.8 7.89047 11.8C7.8917 11.8 7.89293 11.8 7.89416 11.8C7.8954 11.8 7.89663 11.8 7.89788 11.8C7.89912 11.8 7.90037 11.8 7.90162 11.8C7.90288 11.8 7.90413 11.8 7.9054 11.8C7.90666 11.8 7.90792 11.8 7.9092 11.8C7.91047 11.8 7.91174 11.8 7.91302 11.8C7.91431 11.8 7.91559 11.8 7.91688 11.8C7.91817 11.8 7.91947 11.8 7.92077 11.8C7.92206 11.8 7.92337 11.8 7.92468 11.8C7.92599 11.8 7.9273 11.8 7.92862 11.8C7.92993 11.8 7.93126 11.8 7.93258 11.8C7.93391 11.8 7.93524 11.8 7.93658 11.8C7.93791 11.8 7.93926 11.8 7.9406 11.8C7.94195 11.8 7.9433 11.8 7.94465 11.8C7.946 11.8 7.94736 11.8 7.94873 11.8C7.95009 11.8 7.95146 11.8 7.95283 11.8C7.9542 11.8 7.95558 11.8 7.95696 11.8C7.95835 11.8 7.95973 11.8 7.96112 11.8C7.96251 11.8 7.96391 11.8 7.96531 11.8C7.96671 11.8 7.96811 11.8 7.96952 11.8C7.97093 11.8 7.97234 11.8 7.97376 11.8C7.97518 11.8 7.9766 11.8 7.97803 11.8C7.97946 11.8 7.98089 11.8 7.98233 11.8C7.98376 11.8 7.9852 11.8 7.98665 11.8C7.98809 11.8 7.98954 11.8 7.99099 11.8C7.99245 11.8 7.99391 11.8 7.99537 11.8C7.99683 11.8 7.9983 11.8 7.99977 11.8C8.00124 11.8 8.00272 11.8 8.0042 11.8C8.00568 11.8 8.00717 11.8 8.00866 11.8C8.01015 11.8 8.01164 11.8 8.01314 11.8C8.01464 11.8 8.01614 11.8 8.01765 11.8C8.01915 11.8 8.02067 11.8 8.02218 11.8C8.0237 11.8 8.02522 11.8 8.02674 11.8C8.02827 11.8 8.0298 11.8 8.03133 11.8C8.03287 11.8 8.0344 11.8 8.03595 11.8C8.03749 11.8 8.03904 11.8 8.04059 11.8C8.04214 11.8 8.04369 11.8 8.04525 11.8C8.04681 11.8 8.04838 11.8 8.04995 11.8C8.05152 11.8 8.05309 11.8 8.05467 11.8C8.05624 11.8 8.05783 11.8 8.05941 11.8C8.061 11.8 8.06259 11.8 8.06418 11.8C8.06578 11.8 8.06738 11.8 8.06898 11.8C8.07059 11.8 8.07219 11.8 8.07381 11.8C8.07542 11.8 8.07703 11.8 8.07866 11.8C8.08028 11.8 8.0819 11.8 8.08353 11.8C8.08516 11.8 8.08679 11.8 8.08843 11.8C8.09007 11.8 8.09171 11.8 8.09336 11.8C8.09501 11.8 8.09666 11.8 8.09831 11.8C8.09997 11.8 8.10163 11.8 8.10329 11.8C8.10496 11.8 8.10662 11.8 8.1083 11.8C8.10997 11.8 8.11164 11.8 8.11333 11.8C8.11501 11.8 8.11669 11.8 8.11838 11.8C8.12007 11.8 8.12176 11.8 8.12346 11.8C8.12516 11.8 8.12686 11.8 8.12857 11.8C8.13027 11.8 8.13198 11.8 8.1337 11.8C8.13541 11.8 8.13713 11.8 8.13886 11.8C8.14058 11.8 8.14231 11.8 8.14404 11.8C8.14577 11.8 8.1475 11.8 8.14924 11.8C8.15098 11.8 8.15273 11.8 8.15448 11.8C8.15623 11.8 8.15798 11.8 8.15973 11.8C8.16149 11.8 8.16325 11.8 8.16502 11.8C8.16678 11.8 8.16855 11.8 8.17032 11.8C8.1721 11.8 8.17388 11.8 8.17566 11.8C8.17744 11.8 8.17922 11.8 8.18102 11.8C8.18281 11.8 8.1846 11.8 8.1864 11.8C8.1882 11.8 8.19 11.8 8.1918 11.8C8.19361 11.8 8.19542 11.8 8.19724 11.8C8.19905 11.8 8.20087 11.8 8.20269 11.8C8.20452 11.8 8.20634 11.8 8.20817 11.8C8.21001 11.8 8.21184 11.8 8.21368 11.8C8.21552 11.8 8.21736 11.8 8.21921 11.8C8.22106 11.8 8.22291 11.8 8.22476 11.8C8.22662 11.8 8.22848 11.8 8.23034 11.8C8.23221 11.8 8.23408 11.8 8.23595 11.8C8.23782 11.8 8.2397 11.8 8.24158 11.8C8.24346 11.8 8.24534 11.8 8.24723 11.8C8.24912 11.8 8.25101 11.8 8.2529 11.8C8.2548 11.8 8.2567 11.8 8.25861 11.8C8.26051 11.8 8.26242 11.8 8.26433 11.8C8.26624 11.8 8.26816 11.8 8.27008 11.8C8.272 11.8 8.27392 11.8 8.27585 11.8C8.27778 11.8 8.27971 11.8 8.28165 11.8C8.28359 11.8 8.28553 11.8 8.28747 11.8C8.28941 11.8 8.29136 11.8 8.29331 11.8C8.29527 11.8 8.29722 11.8 8.29918 11.8C8.30114 11.8 8.30311 11.8 8.30508 11.8C8.30704 11.8 8.30902 11.8 8.31099 11.8C8.31297 11.8 8.31495 11.8 8.31693 11.8C8.31892 11.8 8.3209 11.8 8.3229 11.8C8.32489 11.8 8.32688 11.8 8.32888 11.8C8.33088 11.8 8.33289 11.8 8.33489 11.8C8.3369 11.8 8.33891 11.8 8.34093 11.8C8.34294 11.8 8.34496 11.8 8.34698 11.8C8.34901 11.8 8.35103 11.8 8.35307 11.8C8.3551 11.8 8.35713 11.8 8.35917 11.8C8.36121 11.8 8.36325 11.8 8.3653 11.8C8.36734 11.8 8.36939 11.8 8.37145 11.8C8.3735 11.8 8.37556 11.8 8.37762 11.8C8.37968 11.8 8.38175 11.8 8.38382 11.8C8.38589 11.8 8.38796 11.8 8.39004 11.8C8.39211 11.8 8.3942 11.8 8.39628 11.8C8.39837 11.8 8.40045 11.8 8.40255 11.8C8.40464 11.8 8.40673 11.8 8.40883 11.8C8.41093 11.8 8.41304 11.8 8.41515 11.8C8.41725 11.8 8.41937 11.8 8.42148 11.8C8.4236 11.8 8.42572 11.8 8.42784 11.8C8.42996 11.8 8.43209 11.8 8.43422 11.8C8.43635 11.8 8.43848 11.8 8.44062 11.8C8.44276 11.8 8.4449 11.8 8.44705 11.8C8.44919 11.8 8.45134 11.8 8.45349 11.8C8.45565 11.8 8.4578 11.8 8.45996 11.8C8.46212 11.8 8.46429 11.8 8.46646 11.8C8.46862 11.8 8.4708 11.8 8.47297 11.8C8.47515 11.8 8.47733 11.8 8.47951 11.8C8.48169 11.8 8.48388 11.8 8.48607 11.8C8.48826 11.8 8.49045 11.8 8.49265 11.8C8.49485 11.8 8.49705 11.8 8.49925 11.8C8.50146 11.8 8.50367 11.8 8.50588 11.8C8.50809 11.8 8.51031 11.8 8.51253 11.8C8.51475 11.8 8.51697 11.8 8.5192 11.8C8.52143 11.8 8.52366 11.8 8.52589 11.8C8.52813 11.8 8.53036 11.8 8.53261 11.8C8.53485 11.8 8.53709 11.8 8.53934 11.8C8.54159 11.8 8.54384 11.8 8.5461 11.8C8.54836 11.8 8.55062 11.8 8.55288 11.8C8.55514 11.8 8.55741 11.8 8.55968 11.8C8.56195 11.8 8.56423 11.8 8.56651 11.8C8.56878 11.8 8.57107 11.8 8.57335 11.8C8.57564 11.8 8.57792 11.8 8.58022 11.8C8.58251 11.8 8.58481 11.8 8.5871 11.8C8.5894 11.8 8.59171 11.8 8.59401 11.8C8.59632 11.8 8.59863 11.8 8.60095 11.8C8.60326 11.8 8.60558 11.8 8.6079 11.8C8.61022 11.8 8.61254 11.8 8.61487 11.8C8.6172 11.8 8.61953 11.8 8.62187 11.8C8.6242 11.8 8.62654 11.8 8.62888 11.8C8.63122 11.8 8.63357 11.8 8.63592 11.8C8.63827 11.8 8.64062 11.8 8.64298 11.8C8.64533 11.8 8.64769 11.8 8.65006 11.8C8.65242 11.8 8.65479 11.8 8.65716 11.8C8.65953 11.8 8.6619 11.8 8.66428 11.8C8.66666 11.8 8.66904 11.8 8.67142 11.8C8.67381 11.8 8.67619 11.8 8.67858 11.8C8.68098 11.8 8.68337 11.8 8.68577 11.8C8.68817 11.8 8.69057 11.8 8.69297 11.8C8.69538 11.8 8.69779 11.8 8.7002 11.8C8.70261 11.8 8.70503 11.8 8.70745 11.8C8.70986 11.8 8.71229 11.8 8.71471 11.8C8.71714 11.8 8.71957 11.8 8.722 11.8C8.72443 11.8 8.72687 11.8 8.72931 11.8C8.73175 11.8 8.73419 11.8 8.73664 11.8C8.73908 11.8 8.74153 11.8 8.74398 11.8C8.74644 11.8 8.74889 11.8 8.75135 11.8C8.75381 11.8 8.75628 11.8 8.75874 11.8C8.76121 11.8 8.76368 11.8 8.76615 11.8C8.76863 11.8 8.7711 11.8 8.77358 11.8C8.77606 11.8 8.77854 11.8 8.78103 11.8C8.78352 11.8 8.78601 11.8 8.7885 11.8C8.791 11.8 8.79349 11.8 8.79599 11.8C8.79849 11.8 8.80099 11.8 8.8035 11.8C8.80601 11.8 8.80852 11.8 8.81103 11.8C8.81355 11.8 8.81606 11.8 8.81858 11.8C8.8211 11.8 8.82363 11.8 8.82615 11.8C8.82868 11.8 8.83121 11.8 8.83374 11.8C8.83627 11.8 8.83881 11.8 8.84135 11.8C8.84389 11.8 8.84643 11.8 8.84898 11.8C8.85153 11.8 8.85407 11.8 8.85663 11.8C8.85918 11.8 8.86174 11.8 8.8643 11.8C8.86686 11.8 8.86942 11.8 8.87198 11.8C8.87455 11.8 8.87712 11.8 8.87969 11.8C8.88226 11.8 8.88484 11.8 8.88742 11.8C8.89 11.8 8.89258 11.8 8.89516 11.8C8.89775 11.8 8.90034 11.8 8.90293 11.8C8.90552 11.8 8.90812 11.8 8.91071 11.8C8.91331 11.8 8.91591 11.8 8.91852 11.8C8.92112 11.8 8.92373 11.8 8.92634 11.8C8.92895 11.8 8.93157 11.8 8.93418 11.8C8.9368 11.8 8.93942 11.8 8.94204 11.8C8.94467 11.8 8.94729 11.8 8.94992 11.8C8.95255 11.8 8.95519 11.8 8.95782 11.8C8.96046 11.8 8.9631 11.8 8.96574 11.8C8.96838 11.8 8.97103 11.8 8.97368 11.8C8.97633 11.8 8.97898 11.8 8.98163 11.8C8.98429 11.8 8.98695 11.8 8.98961 11.8C8.99227 11.8 8.99493 11.8 8.9976 11.8C9.00027 11.8 9.00294 11.8 9.00561 11.8C9.00829 11.8 9.01096 11.8 9.01364 11.8C9.01632 11.8 9.01901 11.8 9.02169 11.8C9.02438 11.8 9.02707 11.8 9.02976 11.8C9.03245 11.8 9.03515 11.8 9.03785 11.8C9.04055 11.8 9.04325 11.8 9.04595 11.8C9.04866 11.8 9.05136 11.8 9.05408 11.8C9.05679 11.8 9.0595 11.8 9.06222 11.8C9.06493 11.8 9.06765 11.8 9.07038 11.8C9.0731 11.8 9.07582 11.8 9.07855 11.8C9.08128 11.8 9.08401 11.8 9.08675 11.8C9.08948 11.8 9.09222 11.8 9.09496 11.8C9.0977 11.8 9.10045 11.8 9.10319 11.8C9.10594 11.8 9.10869 11.8 9.11144 11.8C9.1142 11.8 9.11695 11.8 9.11971 11.8C9.12247 11.8 9.12523 11.8 9.128 11.8C9.13076 11.8 9.13353 11.8 9.1363 11.8C9.13907 11.8 9.14185 11.8 9.14462 11.8C9.1474 11.8 9.15018 11.8 9.15296 11.8C9.15575 11.8 9.15853 11.8 9.16132 11.8C9.16411 11.8 9.1669 11.8 9.16969 11.8C9.17249 11.8 9.17529 11.8 9.17809 11.8C9.18089 11.8 9.18369 11.8 9.1865 11.8C9.1893 11.8 9.19211 11.8 9.19492 11.8C9.19773 11.8 9.20055 11.8 9.20337 11.8C9.20619 11.8 9.20901 11.8 9.21183 11.8C9.21465 11.8 9.21748 11.8 9.22031 11.8C9.22314 11.8 9.22597 11.8 9.22881 11.8C9.23164 11.8 9.23448 11.8 9.23732 11.8C9.24016 11.8 9.243 11.8 9.24585 11.8C9.2487 11.8 9.25155 11.8 9.2544 11.8C9.25725 11.8 9.26011 11.8 9.26296 11.8C9.26582 11.8 9.26868 11.8 9.27155 11.8C9.27441 11.8 9.27728 11.8 9.28014 11.8C9.28301 11.8 9.28589 11.8 9.28876 11.8C9.29164 11.8 9.29451 11.8 9.29739 11.8C9.30027 11.8 9.30316 11.8 9.30604 11.8C9.30893 11.8 9.31182 11.8 9.31471 11.8C9.3176 11.8 9.3205 11.8 9.32339 11.8C9.32629 11.8 9.32919 11.8 9.33209 11.8C9.335 11.8 9.3379 11.8 9.34081 11.8C9.34372 11.8 9.34663 11.8 9.34954 11.8C9.35246 11.8 9.35537 11.8 9.35829 11.8C9.36121 11.8 9.36413 11.8 9.36706 11.8C9.36998 11.8 9.37291 11.8 9.37584 11.8C9.37877 11.8 9.38171 11.8 9.38464 11.8C9.38758 11.8 9.39052 11.8 9.39346 11.8C9.3964 11.8 9.39934 11.8 9.40229 11.8C9.40523 11.8 9.40818 11.8 9.41114 11.8C9.41409 11.8 9.41704 11.8 9.42 11.8C9.42296 11.8 9.42592 11.8 9.42888 11.8C9.43184 11.8 9.43481 11.8 9.43778 11.8C9.44074 11.8 9.44371 11.8 9.44669 11.8C9.44966 11.8 9.45264 11.8 9.45562 11.8C9.45859 11.8 9.46158 11.8 9.46456 11.8C9.46754 11.8 9.47053 11.8 9.47352 11.8C9.47651 11.8 9.4795 11.8 9.4825 11.8C9.48549 11.8 9.48849 11.8 9.49149 11.8C9.49449 11.8 9.49749 11.8 9.50049 11.8C9.5035 11.8 9.50651 11.8 9.50952 11.8C9.51253 11.8 9.51554 11.8 9.51855 11.8C9.52157 11.8 9.52459 11.8 9.52761 11.8C9.53063 11.8 9.53365 11.8 9.53668 11.8C9.5397 11.8 9.54273 11.8 9.54576 11.8C9.54879 11.8 9.55183 11.8 9.55486 11.8C9.5579 11.8 9.56094 11.8 9.56398 11.8C9.56702 11.8 9.57006 11.8 9.57311 11.8C9.57615 11.8 9.5792 11.8 9.58225 11.8C9.58531 11.8 9.58836 11.8 9.59142 11.8C9.59447 11.8 9.59753 11.8 9.60059 11.8C9.60365 11.8 9.60672 11.8 9.60978 11.8C9.61285 11.8 9.61592 11.8 9.61899 11.8C9.62206 11.8 9.62514 11.8 9.62821 11.8C9.63129 11.8 9.63437 11.8 9.63745 11.8C9.64053 11.8 9.64361 11.8 9.6467 11.8C9.64979 11.8 9.65287 11.8 9.65597 11.8C9.65906 11.8 9.66215 11.8 9.66525 11.8C9.66834 11.8 9.67144 11.8 9.67454 11.8C9.67764 11.8 9.68075 11.8 9.68385 11.8C9.68696 11.8 9.69007 11.8 9.69318 11.8C9.69629 11.8 9.6994 11.8 9.70252 11.8C9.70563 11.8 9.70875 11.8 9.71187 11.8C9.71499 11.8 9.71811 11.8 9.72124 11.8C9.72436 11.8 9.72749 11.8 9.73062 11.8C9.73375 11.8 9.73688 11.8 9.74002 11.8C9.74315 11.8 9.74629 11.8 9.74943 11.8C9.75257 11.8 9.75571 11.8 9.75886 11.8C9.762 11.8 9.76515 11.8 9.7683 11.8C9.77145 11.8 9.7746 11.8 9.77775 11.8C9.7809 11.8 9.78406 11.8 9.78722 11.8C9.79038 11.8 9.79354 11.8 9.7967 11.8C9.79986 11.8 9.80303 11.8 9.8062 11.8C9.80937 11.8 9.81254 11.8 9.81571 11.8C9.81888 11.8 9.82206 11.8 9.82523 11.8C9.82841 11.8 9.83159 11.8 9.83477 11.8C9.83795 11.8 9.84114 11.8 9.84432 11.8C9.84751 11.8 9.8507 11.8 9.85389 11.8C9.85708 11.8 9.86027 11.8 9.86347 11.8C9.86666 11.8 9.86986 11.8 9.87306 11.8C9.87626 11.8 9.87946 11.8 9.88267 11.8C9.88587 11.8 9.88908 11.8 9.89229 11.8C9.8955 11.8 9.89871 11.8 9.90192 11.8C9.90514 11.8 9.90835 11.8 9.91157 11.8C9.91479 11.8 9.91801 11.8 9.92123 11.8C9.92445 11.8 9.92768 11.8 9.9309 11.8C9.93413 11.8 9.93736 11.8 9.94059 11.8C9.94382 11.8 9.94706 11.8 9.95029 11.8C9.95353 11.8 9.95676 11.8 9.96 11.8C9.96324 11.8 9.96649 11.8 9.96973 11.8C9.97298 11.8 9.97622 11.8 9.97947 11.8C9.98272 11.8 9.98597 11.8 9.98922 11.8C9.99248 11.8 9.99573 11.8 9.99899 11.8C10.0022 11.8 10.0055 11.8 10.0088 11.8C10.012 11.8 10.0153 11.8 10.0186 11.8C10.0218 11.8 10.0251 11.8 10.0284 11.8C10.0316 11.8 10.0349 11.8 10.0382 11.8C10.0415 11.8 10.0447 11.8 10.048 11.8C10.0513 11.8 10.0546 11.8 10.0579 11.8C10.0611 11.8 10.0644 11.8 10.0677 11.8C10.071 11.8 10.0743 11.8 10.0776 11.8C10.0809 11.8 10.0842 11.8 10.0875 11.8C10.0908 11.8 10.0941 11.8 10.0974 11.8C10.1007 11.8 10.104 11.8 10.1073 11.8C10.1106 11.8 10.1139 11.8 10.1172 11.8C10.1205 11.8 10.1238 11.8 10.1271 11.8C10.1304 11.8 10.1337 11.8 10.137 11.8C10.1404 11.8 10.1437 11.8 10.147 11.8C10.1503 11.8 10.1536 11.8 10.157 11.8C10.1603 11.8 10.1636 11.8 10.1669 11.8C10.1703 11.8 10.1736 11.8 10.1769 11.8C10.1803 11.8 10.1836 11.8 10.1869 11.8C10.1903 11.8 10.1936 11.8 10.197 11.8C10.2003 11.8 10.2036 11.8 10.207 11.8C10.2103 11.8 10.2137 11.8 10.217 11.8C10.2204 11.8 10.2237 11.8 10.2271 11.8C10.2304 11.8 10.2338 11.8 10.2371 11.8C10.2405 11.8 10.2438 11.8 10.2472 11.8C10.2506 11.8 10.2539 11.8 10.2573 11.8C10.2607 11.8 10.264 11.8 10.2674 11.8C10.2708 11.8 10.2741 11.8 10.2775 11.8C10.2809 11.8 10.2842 11.8 10.2876 11.8C10.291 11.8 10.2944 11.8 10.2978 11.8C10.3011 11.8 10.3045 11.8 10.3079 11.8C10.3113 11.8 10.3147 11.8 10.3181 11.8C10.3214 11.8 10.3248 11.8 10.3282 11.8C10.3316 11.8 10.335 11.8 10.3384 11.8C10.3418 11.8 10.3452 11.8 10.3486 11.8C10.352 11.8 10.3554 11.8 10.3588 11.8C10.3622 11.8 10.3656 11.8 10.369 11.8C10.3724 11.8 10.3758 11.8 10.3792 11.8C10.3826 11.8 10.386 11.8 10.3894 11.8C10.3929 11.8 10.3963 11.8 10.3997 11.8C10.4031 11.8 10.4065 11.8 10.4099 11.8C10.4134 11.8 10.4168 11.8 10.4202 11.8C10.4236 11.8 10.4271 11.8 10.4305 11.8C10.4339 11.8 10.4373 11.8 10.4408 11.8C10.4442 11.8 10.4476 11.8 10.4511 11.8C10.4545 11.8 10.4579 11.8 10.4614 11.8C10.4648 11.8 10.4683 11.8 10.4717 11.8C10.4751 11.8 10.4786 11.8 10.482 11.8C10.4855 11.8 10.4889 11.8 10.4924 11.8C10.4958 11.8 10.4993 11.8 10.5027 11.8C10.5062 11.8 10.5096 11.8 10.5131 11.8C10.5165 11.8 10.52 11.8 10.5234 11.8C10.5269 11.8 10.5304 11.8 10.5338 11.8C10.5373 11.8 10.5408 11.8 10.5442 11.8C10.5477 11.8 10.5512 11.8 10.5546 11.8C10.5581 11.8 10.5616 11.8 10.565 11.8C10.5685 11.8 10.572 11.8 10.5755 11.8C10.5789 11.8 10.5824 11.8 10.5859 11.8C10.5894 11.8 10.5928 11.8 10.5963 11.8C10.5998 11.8 10.6033 11.8 10.6068 11.8C10.6103 11.8 10.6138 11.8 10.6172 11.8C10.6207 11.8 10.6242 11.8 10.6277 11.8C10.6312 11.8 10.6347 11.8 10.6382 11.8C10.6417 11.8 10.6452 11.8 10.6487 11.8C10.6522 11.8 10.6557 11.8 10.6592 11.8C10.6627 11.8 10.6662 11.8 10.6697 11.8C10.6732 11.8 10.6767 11.8 10.6802 11.8C10.6837 11.8 10.6872 11.8 10.6907 11.8C10.6943 11.8 10.6978 11.8 10.7013 11.8C10.7048 11.8 10.7083 11.8 10.7118 11.8C10.7154 11.8 10.7189 11.8 10.7224 11.8C10.7259 11.8 10.7294 11.8 10.733 11.8C10.7365 11.8 10.74 11.8 10.7435 11.8C10.7471 11.8 10.7506 11.8 10.7541 11.8C10.7576 11.8 10.7612 11.8 10.7647 11.8C10.7682 11.8 10.7718 11.8 10.7753 11.8C10.7789 11.8 10.7824 11.8 10.7859 11.8C10.7895 11.8 10.793 11.8 10.7965 11.8C10.8001 11.8 10.8036 11.8 10.8072 11.8C10.8107 11.8 10.8143 11.8 10.8178 11.8C10.8214 11.8 10.8249 11.8 10.8285 11.8C10.832 11.8 10.8356 11.8 10.8391 11.8C10.8427 11.8 10.8462 11.8 10.8498 11.8C10.8533 11.8 10.8569 11.8 10.8605 11.8C10.864 11.8 10.8676 11.8 10.8711 11.8C10.8747 11.8 10.8783 11.8 10.8818 11.8C10.8854 11.8 10.889 11.8 10.8925 11.8C10.8961 11.8 10.8997 11.8 10.9032 11.8C10.9068 11.8 10.9104 11.8 10.914 11.8C10.9175 11.8 10.9211 11.8 10.9247 11.8C10.9283 11.8 10.9318 11.8 10.9354 11.8C10.939 11.8 10.9426 11.8 10.9462 11.8C10.9497 11.8 10.9533 11.8 10.9569 11.8C10.9605 11.8 10.9641 11.8 10.9677 11.8C10.9713 11.8 10.9749 11.8 10.9784 11.8C10.982 11.8 10.9856 11.8 10.9892 11.8C10.9928 11.8 10.9964 11.8 11 11.8V10.2Z" fill="#1E1E1E" fill-opacity="0.4"/>
</svg>
