<svg width="28" height="28" viewBox="0 0 28 28" fill="none" xmlns="http://www.w3.org/2000/svg">
<path fill-rule="evenodd" clip-rule="evenodd" d="M0.666504 14.0204C0.666504 6.99649 6.27984 0.666992 14.0265 0.666992C21.5998 0.666992 27.3332 6.87631 27.3332 13.9803C27.3332 22.2193 20.6132 27.3337 13.9998 27.3337C11.8132 27.3337 9.3865 26.7461 7.43984 25.5977C6.75984 25.1838 6.1865 24.8766 5.45317 25.117L2.75984 25.9182C2.07984 26.1319 1.4665 25.5977 1.6665 24.8766L2.55984 21.8855C2.7065 21.4715 2.67984 21.0309 2.4665 20.6837C1.31984 18.5739 0.666504 16.2637 0.666504 14.0204ZM12.2665 14.0204C12.2665 14.9684 13.0265 15.7296 13.9732 15.7429C14.9198 15.7429 15.6798 14.9684 15.6798 14.0337C15.6798 13.0856 14.9198 12.3245 13.9732 12.3245C13.0398 12.3111 12.2665 13.0856 12.2665 14.0204ZM18.4132 14.0337C18.4132 14.9684 19.1732 15.7429 20.1198 15.7429C21.0665 15.7429 21.8265 14.9684 21.8265 14.0337C21.8265 13.0856 21.0665 12.3245 20.1198 12.3245C19.1732 12.3245 18.4132 13.0856 18.4132 14.0337ZM7.8265 15.7429C6.89317 15.7429 6.11984 14.9684 6.11984 14.0337C6.11984 13.0856 6.87984 12.3245 7.8265 12.3245C8.77317 12.3245 9.53317 13.0856 9.53317 14.0337C9.53317 14.9684 8.77317 15.7296 7.8265 15.7429Z" fill="#8CC540"/>
</svg>
