<svg width="12" height="10" viewBox="0 0 12 10" fill="none" xmlns="http://www.w3.org/2000/svg">
<path d="M5.53798 9.63481C5.50614 9.6348 5.47466 9.62821 5.4455 9.61545C5.41633 9.60269 5.39013 9.58404 5.36852 9.56066L0.799591 4.61839C0.769134 4.58544 0.748942 4.54433 0.741488 4.50008C0.734034 4.45584 0.73964 4.41038 0.757622 4.36927C0.775603 4.32816 0.805178 4.29318 0.842729 4.26862C0.880279 4.24406 0.924175 4.23098 0.969045 4.23098H3.16828C3.2013 4.23098 3.23393 4.23807 3.26398 4.25176C3.29403 4.26545 3.32079 4.28542 3.34246 4.31034L4.86941 6.06705C5.03444 5.71429 5.35389 5.12694 5.91448 4.41123C6.74321 3.35315 8.28471 1.79705 10.922 0.392315C10.973 0.36517 11.0323 0.358125 11.0882 0.372571C11.1441 0.387016 11.1926 0.421903 11.2241 0.470342C11.2555 0.51878 11.2676 0.57725 11.2581 0.634205C11.2485 0.69116 11.218 0.742461 11.1724 0.777976C11.1624 0.785846 10.1455 1.58662 8.97521 3.05336C7.89817 4.40313 6.46643 6.61021 5.76191 9.45951C5.74954 9.50957 5.72075 9.55404 5.68015 9.58583C5.63955 9.61762 5.58947 9.6349 5.53791 9.6349L5.53798 9.63481Z" fill="white"/>
</svg>
