<svg width="25" height="26" viewBox="0 0 25 26" fill="none" xmlns="http://www.w3.org/2000/svg">
<path d="M21.5457 20.1514C20.0953 17.8457 18.2442 15.2963 15.9923 12.5407L24.5801 0H17.7862L12.6335 7.51694L7.59533 0H0.381592L9.00755 12.8219C7.13732 15.2588 5.45793 17.5458 3.93121 19.7015C3.85487 19.7952 3.79762 19.889 3.74037 19.9827L7.86251 24.0317C8.33961 23.2069 8.85487 22.4009 9.38923 21.6323C9.92358 20.8637 10.477 20.1327 11.0304 19.4391C11.5839 18.7455 12.0228 18.2206 12.3854 17.827C13.5304 18.858 14.5419 20.1139 15.4388 21.5948C16.3167 23.0757 17.1373 24.5379 17.8816 26H24.9999C24.1602 24.4066 23.0152 22.4758 21.5457 20.1514Z" fill="#1E1E1E"/>
<path d="M6.79389 25.9812H0C0.744275 24.6128 1.58397 23.2069 2.51908 21.7822L6.79389 25.9812Z" fill="#00AB9D"/>
</svg>
