<svg width="18" height="18" viewBox="0 0 18 18" fill="none" xmlns="http://www.w3.org/2000/svg">
<path fill-rule="evenodd" clip-rule="evenodd" d="M1.3125 3.14638C1.3125 2.34944 1.96662 1.69531 2.76357 1.69531H11.6775V3.62655C11.6775 4.97391 12.7808 6.07155 14.1286 6.07155H16.0674V14.8528C16.0674 15.6498 15.4133 16.3039 14.6163 16.3039H2.76357C1.96662 16.3039 1.3125 15.6498 1.3125 14.8528V3.14638ZM16.0674 3.18003V5.07155H14.1286C13.3302 5.07155 12.6775 4.41869 12.6775 3.62655V1.69531H14.6043C15.4248 1.73755 16.0628 2.35898 16.0674 3.18003ZM17.0674 6.07155V14.8528C17.0674 16.202 15.9656 17.3039 14.6163 17.3039H2.76357C1.41434 17.3039 0.3125 16.202 0.3125 14.8528V3.14638C0.3125 1.79715 1.41434 0.695312 2.76357 0.695312H11.6775H12.1775H14.6163H14.6164H14.6277L14.6283 0.69534C15.9639 0.701531 17.0674 1.74439 17.0674 3.14638V3.17741C17.0674 3.18125 17.0674 3.18509 17.0674 3.18893V5.57155V6.07155H17.0674Z" fill="#1E1E1E"/>
<path d="M4.91942 11.6008C4.23655 11.6008 3.74878 11.4063 3.35857 11.0173C3.01713 10.6283 2.82202 10.0935 2.82202 9.41273C2.82202 9.07235 2.8708 8.7806 2.96835 8.48885C3.06591 8.19711 3.21224 8.00261 3.40734 7.80811C3.60245 7.61361 3.79756 7.46773 4.09022 7.37048C4.3341 7.27323 4.62676 7.22461 4.91942 7.22461C5.11453 7.22461 5.26086 7.22461 5.40719 7.27323C5.55352 7.32186 5.69985 7.32186 5.7974 7.37048C5.89496 7.41911 5.99251 7.41911 6.09007 7.46773C6.13884 7.51636 6.18762 7.51636 6.2364 7.56498L5.94374 8.34298C5.84618 8.29436 5.69985 8.24573 5.50474 8.19711C5.30964 8.14848 5.16331 8.09986 4.91942 8.09986C4.77309 8.09986 4.62676 8.14848 4.48043 8.19711C4.3341 8.24573 4.23655 8.34298 4.09022 8.44023C3.99266 8.53748 3.89511 8.68335 3.84633 8.82923C3.79756 8.9751 3.79756 9.1696 3.79756 9.41273C3.79756 9.60723 3.79756 9.80172 3.84633 9.9476C3.89511 10.0935 3.94389 10.2393 4.04144 10.3852C4.13899 10.5311 4.23655 10.5797 4.43166 10.677C4.62676 10.7742 4.77309 10.7742 4.9682 10.7742C5.11453 10.7742 5.21208 10.7742 5.35841 10.7256C5.50474 10.677 5.55352 10.677 5.65107 10.677C5.74863 10.677 5.7974 10.6283 5.89496 10.5797C5.94374 10.5311 5.99251 10.5311 6.09007 10.4825L6.33395 11.2118C6.18762 11.3091 6.04129 11.3577 5.7974 11.4063C5.50474 11.5522 5.26086 11.6008 4.91942 11.6008Z" fill="#1E1E1E"/>
<path d="M8.13875 10.8228C8.28508 10.8228 8.38263 10.8228 8.48019 10.7742C8.57774 10.7256 8.62652 10.7256 8.6753 10.677C8.72407 10.6283 8.77285 10.5797 8.77285 10.5311C8.77285 10.4825 8.82163 10.4338 8.82163 10.3366C8.82163 10.1907 8.77285 10.0935 8.62652 9.99622C8.48019 9.89897 8.28508 9.80173 7.94364 9.70448C7.79731 9.65585 7.65098 9.60723 7.55343 9.5586C7.45588 9.50998 7.30955 9.41273 7.16322 9.31548C7.01688 9.21823 6.96811 9.12098 6.91933 8.9751C6.87055 8.82923 6.82178 8.68335 6.82178 8.48886C6.82178 8.29436 6.87055 8.09986 6.91933 7.95398C6.96811 7.80811 7.11444 7.66223 7.21199 7.56498C7.35832 7.46773 7.50465 7.37048 7.69976 7.32186C7.89487 7.27323 8.08997 7.22461 8.33386 7.22461C8.62652 7.22461 8.8704 7.27323 9.06551 7.32186C9.26062 7.37048 9.45572 7.46773 9.55328 7.51636L9.30939 8.24573C9.21184 8.19711 9.06551 8.14848 8.91918 8.09986C8.77285 8.05123 8.62652 8.05123 8.38263 8.05123C8.13875 8.05123 7.99242 8.09986 7.89487 8.14848C7.79731 8.19711 7.74854 8.29436 7.74854 8.44023C7.74854 8.53748 7.74854 8.5861 7.79731 8.63473C7.84609 8.68335 7.89487 8.73198 7.94364 8.7806C7.99242 8.82923 8.08997 8.87785 8.18753 8.87785C8.28508 8.87785 8.38263 8.92648 8.48019 8.9751C8.67529 9.07235 8.8704 9.12098 9.06551 9.21823C9.26062 9.31548 9.35817 9.3641 9.45572 9.50998C9.55328 9.65585 9.65083 9.7531 9.69961 9.89897C9.74838 10.0448 9.79716 10.1907 9.79716 10.4338C9.79716 10.8228 9.65083 11.1146 9.40695 11.3091C9.11429 11.5036 8.72407 11.6495 8.18753 11.6495C7.99242 11.6495 7.84609 11.6495 7.69976 11.6008C7.55343 11.5522 7.4071 11.5522 7.30955 11.5036C7.21199 11.455 7.11444 11.455 7.01688 11.4063C6.91933 11.3577 6.87055 11.3577 6.82178 11.3091L7.06566 10.5797C7.16321 10.6283 7.35832 10.7256 7.50465 10.7742C7.65098 10.7742 7.89487 10.8228 8.13875 10.8228Z" fill="#1E1E1E"/>
<path d="M11.9188 11.5524C11.7481 11.1926 11.5774 10.8182 11.4116 10.4341C11.2457 10.0499 11.0896 9.66578 10.9384 9.2865C10.7872 8.90723 10.6506 8.54741 10.5238 8.20217C10.397 7.85694 10.2897 7.54574 10.197 7.27344H11.2604C11.3384 7.52142 11.4311 7.78886 11.5286 8.07575C11.6262 8.36263 11.7286 8.64466 11.831 8.93154C11.9335 9.21357 12.031 9.48587 12.1237 9.74844C12.2164 10.0062 12.3091 10.2347 12.392 10.4195C12.4749 10.2298 12.5627 10.0062 12.6554 9.74844C12.7529 9.49073 12.8505 9.21843 12.9529 8.93154C13.0553 8.64952 13.1529 8.36263 13.2553 8.07575C13.3529 7.78886 13.4407 7.52142 13.5236 7.27344H14.5528C14.4552 7.54574 14.3479 7.85694 14.2211 8.20217C14.0943 8.54741 13.9577 8.91209 13.8114 9.2865C13.6651 9.66578 13.5041 10.0499 13.3431 10.4341C13.1773 10.823 13.0114 11.1926 12.8407 11.5524H11.9188Z" fill="#1E1E1E"/>
</svg>
