<svg width="231" height="96" viewBox="0 0 231 96" fill="none" xmlns="http://www.w3.org/2000/svg">
<g clip-path="url(#clip0_46_19830)">
<path d="M230.174 63.8987C216.993 41.6948 160.337 17.8129 122.379 17.6142C81.3492 17.2907 58.9631 25.8488 15.5356 58.9087C15.6266 55.0983 15.9828 52.0089 15.8936 49.1739C15.908 45.9441 15.8955 42.5284 15.2803 39.3898C15.1456 38.46 13.4865 36.9915 12.5151 36.9423C11.5436 36.8931 10.158 38.4228 9.97782 39.3982C8.43703 48.7348 7.21109 58.0258 5.85465 67.5255C5.49847 70.6149 6.76614 72.7097 9.57688 73.252C20.2398 74.7456 30.9297 76.4251 41.7231 77.71C44.1652 77.9259 46.891 76.7717 50.0393 76.3158C46.3626 68.6841 40.8302 70.4346 36.4412 68.9817C31.8678 67.3657 27.1142 66.7251 21.2814 65.2914C32.8388 52.9853 45.1192 44.5617 58.5367 38.4415C107.646 15.7607 156.702 21.567 205.208 49.0975C211.521 52.7399 217.47 57.1946 223.653 61.0458C225.519 61.7248 227.228 62.4266 230.174 63.8987Z" fill="white"/>
</g>
<defs>
<clipPath id="clip0_46_19830">
<rect width="222.794" height="63.6063" fill="white" transform="matrix(-0.989676 0.143326 0.143326 0.989676 221.057 0.949219)"/>
</clipPath>
</defs>
</svg>
