<svg width="14" height="17" viewBox="0 0 14 17" fill="none" xmlns="http://www.w3.org/2000/svg">
<path d="M0.75 6.41602L1.57776 12.5355C1.80103 14.1861 1.91266 15.0114 2.47796 15.5054C3.04326 15.9993 3.87606 15.9993 5.54166 15.9993H7.62501C9.29061 15.9993 10.1234 15.9993 10.6887 15.5054C11.254 15.0114 11.3656 14.1861 11.5889 12.5355L12.4167 6.41602" stroke="#AAAAAA" stroke-width="1.5" stroke-linecap="round" stroke-linejoin="round"/>
<path d="M4.08325 3.5V3.5C4.08325 3.03534 4.08325 2.80302 4.12168 2.60982C4.27949 1.81644 4.89969 1.19624 5.69307 1.03843C5.88627 1 6.1186 1 6.58325 1V1C7.04791 1 7.28023 1 7.47343 1.03843C8.26681 1.19624 8.88701 1.81644 9.04482 2.60982C9.08325 2.80302 9.08325 3.03534 9.08325 3.5V3.5" stroke="#AAAAAA" stroke-width="1.5" stroke-linecap="round" stroke-linejoin="round"/>
<path d="M12.4167 3.5L0.75 3.5" stroke="#AAAAAA" stroke-width="1.5" stroke-linecap="round" stroke-linejoin="round"/>
</svg>
