<svg width="16" height="16" viewBox="0 0 16 16" fill="none" xmlns="http://www.w3.org/2000/svg">
<path d="M9.75 3.625V3.625C9.75 3.04388 9.75 2.75332 9.69006 2.51404C9.51075 1.79819 8.95181 1.23925 8.23596 1.05994C7.99668 1 7.70612 1 7.125 1H5C3.11438 1 2.17157 1 1.58579 1.58579C1 2.17157 1 3.11438 1 5V7.125C1 7.70612 1 7.99668 1.05994 8.23596C1.23925 8.95181 1.79819 9.51075 2.51404 9.69006C2.75332 9.75 3.04388 9.75 3.625 9.75V9.75" stroke="#7E7E7E" stroke-width="1.5"/>
<rect x="6.25" y="6.25" width="8.75" height="8.75" rx="2" stroke="#7E7E7E" stroke-width="1.5"/>
</svg>
