<svg width="16" height="17" viewBox="0 0 16 17" fill="none" xmlns="http://www.w3.org/2000/svg">
<path fill-rule="evenodd" clip-rule="evenodd" d="M11.8567 1.30763L11.945 1.36947L12.0334 1.43123C12.5072 1.76218 12.8735 2.01808 13.1241 2.33332C13.7025 3.06109 13.874 4.03182 13.5801 4.91376C13.4528 5.29578 13.1964 5.66176 12.8648 6.13506L12.8029 6.22336L7.56101 13.716L7.51427 13.7829C7.24094 14.1741 7.02502 14.4832 6.73121 14.7243C6.43739 14.9654 6.09215 15.1169 5.65509 15.3087L5.58039 15.3415L4.79711 15.6858L4.7446 15.7089C4.11605 15.9852 3.56823 16.2261 3.11971 16.3486C2.64901 16.4772 2.08856 16.5329 1.5837 16.1797C1.07883 15.8265 0.939003 15.2809 0.898462 14.7946C0.859833 14.3313 0.898318 13.7341 0.942475 13.0489L0.946163 12.9916L1.00112 12.1378L1.00633 12.0564C1.03667 11.5801 1.06063 11.2038 1.18645 10.8451C1.31226 10.4865 1.52859 10.1777 1.80245 9.78681L1.84925 9.71997L7.09115 2.22736L7.15291 2.13899C7.48385 1.66521 7.73976 1.29886 8.055 1.04832C8.78277 0.469919 9.75349 0.298352 10.6354 0.592253C11.0175 0.719559 11.3834 0.975997 11.8567 1.30763ZM11.0852 2.59855C10.4808 2.17571 10.3076 2.06409 10.1612 2.01532C9.76033 1.88173 9.31909 1.95971 8.98829 2.22262C8.86751 2.31861 8.74306 2.48284 8.32022 3.08723L7.76909 3.875L11.0227 6.15127L11.5738 5.36349C11.9967 4.7591 12.1083 4.58589 12.1571 4.43953C12.2907 4.03865 12.2127 3.59741 11.9498 3.26661C11.8538 3.14583 11.6896 3.02138 11.0852 2.59855ZM10.1628 7.38034L6.90922 5.10408L3.07832 10.5798C2.73612 11.069 2.65091 11.2019 2.60189 11.3416C2.55287 11.4814 2.53637 11.6384 2.49802 12.2341L2.44307 13.088C2.39418 13.8474 2.36504 14.3313 2.39328 14.67C2.4067 14.8311 2.43036 14.9105 2.44522 14.9451L2.44606 14.947L2.44817 14.9472C2.48574 14.9493 2.56849 14.9442 2.7244 14.9016C3.05226 14.8121 3.49684 14.6188 4.1935 14.3126L4.97678 13.9683C5.52325 13.7281 5.66511 13.6588 5.7796 13.5648C5.89408 13.4708 5.98974 13.3452 6.33194 12.8561L10.1628 7.38034ZM14.408 14.7939H9.64963C9.18538 14.7939 8.80778 15.1764 8.80778 15.6467C8.80778 16.1179 9.18538 16.4996 9.64963 16.4996H14.408C14.8723 16.4996 15.2499 16.1179 15.2499 15.6467C15.2499 15.1764 14.8723 14.7939 14.408 14.7939Z" fill="#AAAAAA"/>
</svg>
