<svg width="15" height="17" viewBox="0 0 15 17" fill="none" xmlns="http://www.w3.org/2000/svg">
<path fill-rule="evenodd" clip-rule="evenodd" d="M11.107 1.30812L11.1953 1.36996L11.2836 1.43172C11.7574 1.76266 12.1238 2.01857 12.3743 2.33381C12.9527 3.06158 13.1243 4.03231 12.8304 4.91425C12.7031 5.29627 12.4466 5.66225 12.115 6.13554L12.0532 6.22385L6.81126 13.7165L6.76452 13.7833C6.49118 14.1746 6.27527 14.4837 5.98145 14.7248C5.68763 14.9659 5.34239 15.1174 4.90534 15.3092L4.83064 15.342L4.04736 15.6863L3.99485 15.7094C3.36629 15.9857 2.81847 16.2266 2.36996 16.3491C1.89925 16.4777 1.3388 16.5334 0.83394 16.1801C0.329076 15.8269 0.189247 15.2814 0.148706 14.7951C0.110077 14.3318 0.148562 13.7346 0.192719 13.0494L0.196407 12.9921L0.251366 12.1383L0.256571 12.0569C0.286911 11.5805 0.310878 11.2043 0.436693 10.8456C0.562508 10.487 0.778835 10.1782 1.05269 9.78729L1.09949 9.72046L6.34139 2.22784L6.40315 2.13948C6.7341 1.6657 6.99 1.29935 7.30524 1.04881C8.03301 0.470408 9.00374 0.298841 9.88568 0.592741C10.2677 0.720047 10.6337 0.976485 11.107 1.30812ZM10.3354 2.59904C9.73102 2.1762 9.55781 2.06458 9.41146 2.0158C9.01057 1.88221 8.56933 1.9602 8.23853 2.22311C8.11776 2.3191 7.9933 2.48333 7.57047 3.08771L7.01933 3.87549L10.273 6.15175L10.8241 5.36398C11.2469 4.75959 11.3585 4.58638 11.4073 4.44002C11.5409 4.03914 11.4629 3.5979 11.2 3.2671C11.104 3.14632 10.9398 3.02187 10.3354 2.59904ZM9.41308 7.38083L6.15946 5.10457L2.32856 10.5803C1.98637 11.0695 1.90116 11.2024 1.85213 11.3421C1.80311 11.4819 1.78661 11.6389 1.74827 12.2346L1.69331 13.0885C1.64443 13.8479 1.61528 14.3318 1.64352 14.6705C1.65695 14.8315 1.68061 14.911 1.69546 14.9456L1.6963 14.9475L1.69841 14.9476C1.73599 14.9497 1.81874 14.9447 1.97464 14.9021C2.30251 14.8126 2.74708 14.6193 3.44374 14.3131L4.22702 13.9688C4.7735 13.7286 4.91536 13.6592 5.02984 13.5653C5.14433 13.4713 5.23999 13.3457 5.58218 12.8566L9.41308 7.38083ZM13.6583 14.7944H8.89988C8.43562 14.7944 8.05803 15.1769 8.05803 15.6472C8.05803 16.1184 8.43562 16.5 8.89988 16.5H13.6583C14.1225 16.5 14.5001 16.1184 14.5001 15.6472C14.5001 15.1769 14.1225 14.7944 13.6583 14.7944Z" fill="white"/>
</svg>
