<svg width="18" height="19" viewBox="0 0 18 19" fill="none" xmlns="http://www.w3.org/2000/svg">
<path d="M10.7499 4.49996V4.49996C10.7499 3.56811 10.7499 3.10219 10.5976 2.73467C10.3946 2.24458 10.0053 1.85522 9.51518 1.65223C9.14766 1.5 8.68174 1.5 7.74989 1.5H4.75C2.86438 1.5 1.92157 1.5 1.33579 2.08579C0.75 2.67157 0.75 3.61438 0.75 5.5V8.4999C0.75 9.43174 0.75 9.89766 0.902227 10.2652C1.10522 10.7553 1.49458 11.1446 1.98467 11.3476C2.35219 11.4999 2.81811 11.4999 3.74996 11.4999V11.4999" stroke="#AAAAAA" stroke-width="1.5"/>
<rect x="6.75" y="7.5" width="9.99985" height="9.99985" rx="2" stroke="#AAAAAA" stroke-width="1.5"/>
</svg>
