<svg width="20" height="20" viewBox="0 0 20 20" fill="none" xmlns="http://www.w3.org/2000/svg">
<path d="M1 13.375V14.5V15C1 16.8856 1 17.8284 1.58579 18.4142C2.17157 19 3.11438 19 5 19H5.5H6.625M1 6.625V5.5V5C1 3.11438 1 2.17157 1.58579 1.58579C2.17157 1 3.11438 1 5 1H5.5H6.625M19 6.625V5.5V5C19 3.11438 19 2.17157 18.4142 1.58579C17.8284 1 16.8856 1 15 1H14.5H13.375M19 13.375V14.5V15C19 16.8856 19 17.8284 18.4142 18.4142C17.8284 19 16.8856 19 15 19H14.5H13.375" stroke="#A5A5A5" stroke-width="2" stroke-linecap="round" stroke-linejoin="round"/>
</svg>
