<svg width="18" height="16" viewBox="0 0 18 16" fill="none" xmlns="http://www.w3.org/2000/svg">
<path d="M7.13314 9.9724C6.65397 9.49406 6.3623 8.84406 6.3623 8.1149C6.3623 6.65406 7.53897 5.47656 8.99897 5.47656C9.72147 5.47656 10.3865 5.76906 10.8573 6.2474" stroke="#1E1E1E" stroke-width="1.5" stroke-linecap="round" stroke-linejoin="round"/>
<path d="M11.5868 8.58203C11.3935 9.65703 10.5468 10.5054 9.47266 10.7004" stroke="#1E1E1E" stroke-width="1.5" stroke-linecap="round" stroke-linejoin="round"/>
<path d="M4.54518 12.56C3.22268 11.5217 2.10268 10.005 1.29102 8.11415C2.11102 6.21499 3.23852 4.68999 4.56935 3.64332C5.89185 2.59665 7.41768 2.02832 8.99935 2.02832C10.5902 2.02832 12.1152 2.60499 13.446 3.65915" stroke="#1E1E1E" stroke-width="1.5" stroke-linecap="round" stroke-linejoin="round"/>
<path d="M15.2063 5.49219C15.7796 6.25385 16.2838 7.13302 16.708 8.11385C15.0688 11.9114 12.1721 14.1989 8.99965 14.1989C8.28048 14.1989 7.57132 14.0822 6.88965 13.8547" stroke="#1E1E1E" stroke-width="1.5" stroke-linecap="round" stroke-linejoin="round"/>
<path d="M15.5718 1.54102L2.42676 14.686" stroke="#1E1E1E" stroke-width="1.5" stroke-linecap="round" stroke-linejoin="round"/>
</svg>
