<svg width="20" height="22" viewBox="0 0 20 22" fill="none" xmlns="http://www.w3.org/2000/svg">
<g opacity="0.4">
<path d="M19 9.1877V20.5877C19 20.7877 18.8 20.9877 18.6 20.9877H13C12.7 20.9877 12.6 20.7877 12.6 20.5877V17.4877C12.6 16.0877 11.5 14.9877 10.1 14.9877C8.7 14.9877 7.6 16.0877 7.6 17.4877V20.5877C7.6 20.7877 7.4 20.9877 7.2 20.9877H1.4C1.2 20.9877 1 20.7877 1 20.5877V9.28769C1 9.18769 1.1 9.08769 1.1 8.98769L9.9 1.0877C10 0.987695 10.3 0.987695 10.5 1.0877L19 8.98769C19 8.98769 19 9.0877 19 9.1877Z" stroke="#1E1E1E" stroke-width="1.6" stroke-linecap="round" stroke-linejoin="round"/>
</g>
<path d="M11.1 11.5875C11 11.2875 10.8 10.9875 10.6 10.6875C10.4 10.3875 10.2 10.0875 10 9.8875C9.9 9.9875 9.8 10.0875 9.7 10.1875C9.6 10.2875 9.4 10.4875 9.4 10.5875C9.3 10.6875 9.2 10.8875 9.1 11.0875C9 11.2875 8.9 11.3875 8.9 11.4875H7.5C7.8 11.0875 8 10.6875 8.3 10.1875C8.6 9.7875 8.9 9.2875 9.3 8.7875L7.5 6.1875H8.9L9.9 7.7875L11 6.1875H12.4L10.6 8.7875C11 9.3875 11.4 9.8875 11.7 10.3875C12 10.8875 12.2 11.2875 12.4 11.5875H11.1Z" fill="#1E1E1E" fill-opacity="0.4"/>
</svg>
