<svg width="15" height="15" viewBox="0 0 15 15" fill="none" xmlns="http://www.w3.org/2000/svg">
<g clip-path="url(#clip0_3971_7230)">
<path fill-rule="evenodd" clip-rule="evenodd" d="M1.5 2.41C1.5 1.9 1.91 1.5 2.39 1.5H9.52V2.82C9.52 4.14 10.59 5.23 11.91 5.23H13.26V12.39C13.26 12.9 12.85 13.3 12.37 13.3H2.39C1.91 13.3 1.5 12.9 1.5 12.39V2.41ZM12.31 1.5H11.02V2.82C11.02 3.32 11.43 3.73 11.91 3.73H13.21V2.45C13.21 1.93 12.82 1.53 12.3 1.5H12.31ZM12.35 0H12.38C13.69 0 14.77 1.04 14.77 2.41V12.4C14.77 13.72 13.7 14.81 12.38 14.81H2.39C1.06 14.81 0 13.72 0 12.4V2.41C0 1.09 1.07 0 2.39 0H12.35Z" fill="#7E7E7E"/>
<path d="M7.22998 6V10.5" stroke="#7E7E7E" stroke-linecap="round" stroke-linejoin="round"/>
<path d="M5.2998 7.93L7.2298 6L9.1598 7.93" stroke="#7E7E7E" stroke-linecap="round" stroke-linejoin="round"/>
</g>
<defs>
<clipPath id="clip0_3971_7230">
<rect width="14.77" height="14.81" fill="white"/>
</clipPath>
</defs>
</svg>
