<svg width="16" height="15" viewBox="0 0 16 15" fill="none" xmlns="http://www.w3.org/2000/svg">
<g clip-path="url(#clip0_3971_7222)">
<path d="M5.85986 8.17982L7.61986 6.41982C7.66986 6.36982 7.75986 6.36982 7.81986 6.41982L9.57986 8.17982" stroke="#7E7E7E" stroke-linecap="round" stroke-linejoin="round"/>
<path d="M7.70996 10.4998V6.31982" stroke="#7E7E7E" stroke-linecap="round" stroke-linejoin="round"/>
<path d="M0.75 2.98C0.75 2.2 0.75 1.81 0.9 1.51C1.03 1.25 1.25 1.03 1.51 0.9C1.81 0.75 2.2 0.75 2.98 0.75H5.37C5.72 0.75 5.89 0.75 6.05 0.8C6.19 0.84 6.32 0.91 6.43 1.01C6.56 1.12 6.65 1.26 6.85 1.55L7.65 2.75C7.84 3.04 7.94 3.19 8.07 3.29C8.18 3.38 8.31 3.45 8.45 3.5C8.61 3.55 8.78 3.55 9.13 3.55H12.45C13.23 3.55 13.62 3.55 13.92 3.7C14.18 3.83 14.4 4.05 14.53 4.31C14.68 4.61 14.68 5 14.68 5.78V11.54C14.68 12.32 14.68 12.71 14.53 13.01C14.4 13.27 14.18 13.49 13.92 13.62C13.62 13.77 13.23 13.77 12.45 13.77H2.98C2.2 13.77 1.81 13.77 1.51 13.62C1.25 13.49 1.03 13.27 0.9 13.01C0.75 12.71 0.75 12.32 0.75 11.54V2.98Z" stroke="#7E7E7E" stroke-width="1.5" stroke-miterlimit="10"/>
</g>
<defs>
<clipPath id="clip0_3971_7222">
<rect width="15.43" height="14.5" fill="white"/>
</clipPath>
</defs>
</svg>
