<svg width="18" height="18" viewBox="0 0 18 18" fill="none" xmlns="http://www.w3.org/2000/svg">
<path d="M8.99995 1V8.55556M8.99995 8.55556L6.77772 6.77778M8.99995 8.55556L11.2222 6.77778" stroke="white" stroke-width="1.6" stroke-linecap="round" stroke-linejoin="round"/>
<path d="M1 10.7773H3.66667H5.04131C5.35559 10.7773 5.51272 10.7773 5.66583 10.8012C5.80419 10.8228 5.93989 10.8588 6.07071 10.9087C6.21549 10.964 6.35193 11.0419 6.62479 11.1979V11.1979C7.4867 11.6904 7.91765 11.9366 8.37509 12.0341C8.78708 12.1218 9.21292 12.1218 9.62491 12.0341C10.0823 11.9366 10.5133 11.6904 11.3752 11.1979V11.1979C11.6481 11.0419 11.7845 10.964 11.9293 10.9087C12.0601 10.8588 12.1958 10.8228 12.3342 10.8012C12.4873 10.7773 12.6444 10.7773 12.9587 10.7773H14.3333H17V12.9996C17 14.8852 17 15.828 16.4142 16.4138C15.8284 16.9996 14.8856 16.9996 13 16.9996H5C3.11438 16.9996 2.17157 16.9996 1.58579 16.4138C1 15.828 1 14.8852 1 12.9996V10.7773Z" stroke="white" stroke-width="1.6"/>
<path d="M1 10.7769V9.27706C1 9.02822 1 8.9038 1.01508 8.78171C1.0329 8.63738 1.06641 8.49543 1.11501 8.35838C1.15613 8.24243 1.21177 8.13115 1.32305 7.90858L2.15424 6.24621C2.43766 5.67937 2.57937 5.39594 2.78233 5.18114C3.02193 4.92755 3.32369 4.74105 3.65766 4.64015C3.94055 4.55469 4.25743 4.55469 4.89118 4.55469H5M17 10.7769V9.20406C17 8.98014 17 8.86817 16.9877 8.75791C16.9732 8.62757 16.9459 8.49896 16.9063 8.37396C16.8727 8.26822 16.8272 8.16591 16.7363 7.96128L16.0299 6.3719C15.76 5.76471 15.6251 5.46111 15.4213 5.23043C15.1807 4.95813 14.8704 4.75652 14.5239 4.64725C14.2303 4.55469 13.8981 4.55469 13.2336 4.55469H13" stroke="white" stroke-width="1.6" stroke-linecap="round"/>
</svg>
