<svg width="19" height="19" viewBox="0 0 19 19" fill="none" xmlns="http://www.w3.org/2000/svg">
<path d="M7 2L1.5 2C1.22386 2 1 2.22386 1 2.5L1 17.5C1 17.7761 1.22386 18 1.5 18L16.5 18C16.7761 18 17 17.7761 17 17.5V12M11 4L5.14645 9.85355C5.05268 9.94732 5 10.0745 5 10.2071V13.5C5 13.7761 5.22386 14 5.5 14H8.79289C8.9255 14 9.05268 13.9473 9.14645 13.8536L15 8L17.6464 5.35355C17.8417 5.15829 17.8417 4.84171 17.6464 4.64645L14.3536 1.35355C14.1583 1.15829 13.8417 1.15829 13.6464 1.35355L11 4Z" stroke="#1E1E1E" stroke-opacity="0.4" stroke-width="1.5" stroke-linecap="round" stroke-linejoin="round"/>
</svg>
