<svg width="20" height="20" viewBox="0 0 20 20" fill="none" xmlns="http://www.w3.org/2000/svg">
<circle cx="10" cy="10" r="10" fill="#1E1E1E" fill-opacity="0.4"/>
<g clip-path="url(#clip0_2032_15614)">
<path d="M5.60358 13.535V12.8164C5.6169 12.5546 5.70154 12.3015 5.84833 12.0843C5.99512 11.8671 6.19849 11.6942 6.43643 11.5843C8.72335 10.6657 11.2767 10.6657 13.5636 11.5843C13.8015 11.6942 14.0049 11.8671 14.1517 12.0843C14.2985 12.3015 14.3831 12.5546 14.3964 12.8164V13.535C14.3963 13.7276 14.3583 13.9183 14.2845 14.0962C14.2106 14.2741 14.1024 14.4357 13.9661 14.5717C13.8298 14.7078 13.668 14.8156 13.49 14.8891C13.3119 14.9626 13.1212 15.0003 12.9286 15H7.07143C6.87883 15.0003 6.68807 14.9626 6.51004 14.8891C6.33201 14.8156 6.17021 14.7078 6.03388 14.5717C5.89756 14.4357 5.78939 14.2741 5.71556 14.0962C5.64172 13.9183 5.60367 13.7276 5.60358 13.535ZM10 5C9.51682 4.99986 9.04445 5.14301 8.64263 5.41135C8.24081 5.67969 7.92759 6.06116 7.74259 6.50752C7.55759 6.95388 7.50911 7.44508 7.60329 7.919C7.69746 8.39291 7.93007 8.82825 8.27168 9.16997C8.61329 9.51168 9.04856 9.74441 9.52245 9.83872C9.99634 9.93304 10.4876 9.8847 10.934 9.69983C11.3804 9.51496 11.7619 9.20185 12.0304 8.80011C12.2989 8.39837 12.4421 7.92604 12.4421 7.44286C12.4422 7.12209 12.3791 6.80445 12.2565 6.50807C12.1338 6.21169 11.9539 5.94239 11.7271 5.71554C11.5003 5.48869 11.2311 5.30874 10.9347 5.18597C10.6384 5.06319 10.3208 5 10 5Z" fill="white"/>
</g>
<defs>
<clipPath id="clip0_2032_15614">
<rect width="10" height="10" fill="white" transform="translate(5 5)"/>
</clipPath>
</defs>
</svg>
