<svg width="32" height="32" viewBox="0 0 32 32" fill="none" xmlns="http://www.w3.org/2000/svg">
<path d="M16.69 24.0002V20.4802C16.69 19.9902 16.3 19.6002 15.81 19.6002H12.29C11.8 19.6002 11.41 19.9902 11.41 20.4802V24.0002M19.34 24.0002H8.76C7.79 24.0002 7 23.2102 7 22.2402V11.6702C7 10.7002 7.79 9.91016 8.76 9.91016H15.96C16.43 9.91016 16.88 10.1002 17.21 10.4302L20.58 13.8002C20.91 14.1302 21.1 14.5802 21.1 15.0502V22.2502C21.1 23.2202 20.31 24.0102 19.34 24.0102V24.0002Z" stroke="#1E1E1E" stroke-opacity="0.4" stroke-width="1.5"/>
<path d="M24 7.5V12.5M21.5 10H26.5" stroke="#1E1E1E" stroke-opacity="0.4" stroke-width="1.6" stroke-linecap="round"/>
</svg>
