<svg width="164" height="40" viewBox="0 0 164 40" fill="none" xmlns="http://www.w3.org/2000/svg">
<g clip-path="url(#clip0_3992_50969)">
<path d="M28.8671 31.4173C26.9239 28.3034 24.4438 24.8604 21.4267 21.1389L32.9325 4.20215H23.8302L16.9267 14.354L10.1766 4.20215H0.511719L12.0687 21.5186C9.56295 24.8097 7.31293 27.8984 5.26745 30.8097C5.16518 30.9363 5.08847 31.0629 5.01177 31.1895L10.5346 36.6578C11.1738 35.5439 11.8641 34.4553 12.58 33.4173C13.296 32.3794 14.0374 31.392 14.7789 30.4553C15.5204 29.5186 16.1085 28.8097 16.5943 28.2781C18.1284 29.6705 19.4835 31.3667 20.6852 33.3667C21.8614 35.3667 22.9608 37.3414 23.958 39.3161H33.495C32.37 37.1642 30.8359 34.5566 28.8671 31.4173Z" fill="white"/>
<path d="M34.7734 26.1771C34.7734 23.8226 35.1314 21.7467 35.8729 19.9745C36.6144 18.2024 37.5604 16.734 38.7621 15.5442C39.9638 14.3543 41.319 13.4682 42.8786 12.8606C44.4383 12.253 46.0236 11.9492 47.6599 11.9492C51.4696 11.9492 54.4867 13.1138 56.7112 15.4176C58.9356 17.7214 60.0351 21.1391 60.0351 25.6201C60.0351 26.0505 60.0095 26.5315 59.9839 27.0631C59.9584 27.5948 59.9072 28.0505 59.8817 28.4555H42.5974C42.7764 29.9999 43.4923 31.2404 44.7963 32.1518C46.1003 33.0631 47.8389 33.5188 50.0122 33.5188C51.4185 33.5188 52.7736 33.3923 54.1288 33.1391C55.4839 32.8859 56.5833 32.5821 57.4271 32.2024L58.4498 38.329C58.0407 38.5315 57.5038 38.734 56.8135 38.9366C56.1231 39.1391 55.3816 39.3163 54.5379 39.4682C53.6941 39.6201 52.7992 39.7467 51.8532 39.848C50.9071 39.9492 49.9355 39.9999 48.9895 39.9999C46.5605 39.9999 44.4639 39.6454 42.6741 38.9366C40.8843 38.2277 39.4013 37.2657 38.2252 36.0252C37.049 34.7847 36.1797 33.3416 35.6172 31.6454C35.0547 29.9492 34.7734 28.1264 34.7734 26.1771ZM52.6714 23.291C52.6458 22.6581 52.518 22.0252 52.339 21.4176C52.16 20.81 51.8532 20.2783 51.4696 19.7973C51.0861 19.3163 50.5747 18.9366 49.9867 18.6328C49.3986 18.329 48.6571 18.1771 47.7622 18.1771C46.9185 18.1771 46.177 18.329 45.5633 18.6074C44.9497 18.8859 44.4383 19.2657 44.0292 19.7467C43.6201 20.2277 43.3133 20.7593 43.0832 21.3923C42.8531 22.0252 42.6997 22.6581 42.5974 23.291H52.6714Z" fill="white"/>
<path d="M75.5298 33.1137C74.9928 32.8859 74.5582 32.5821 74.2769 32.2023C73.9957 31.8226 73.7911 31.3669 73.6888 30.8352C73.5866 30.3036 73.5354 29.696 73.5354 29.0125V12.8099L65.916 5.26562V30.5314C65.916 31.9492 66.0694 33.215 66.3507 34.3542C66.6319 35.4935 67.1944 36.4555 67.9871 37.2403C68.7797 38.0251 69.8791 38.658 71.2598 39.0884C72.6405 39.5188 74.4303 39.772 76.6548 39.7973L77.7287 33.5694C76.8082 33.4935 76.0667 33.3416 75.5298 33.1137Z" fill="white"/>
<path d="M80.7969 26.1771C80.7969 23.8226 81.1548 21.7467 81.8963 19.9745C82.6378 18.2024 83.5838 16.734 84.7856 15.5442C85.9873 14.3543 87.3424 13.4682 88.9021 12.8606C90.4618 12.253 92.047 11.9492 93.6834 11.9492C97.4931 11.9492 100.51 13.1138 102.735 15.4176C104.959 17.7214 106.059 21.1391 106.059 25.6201C106.059 26.0505 106.033 26.5315 106.007 27.0631C105.982 27.5948 105.931 28.0505 105.905 28.4555H88.6208C88.7998 29.9999 89.5157 31.2404 90.8197 32.1518C92.1237 33.0631 93.8624 33.5188 96.0357 33.5188C97.4419 33.5188 98.7971 33.3923 100.152 33.1391C101.507 32.8859 102.607 32.5821 103.451 32.2024L104.473 38.329C104.064 38.5315 103.527 38.734 102.837 38.9366C102.147 39.1391 101.405 39.3163 100.561 39.4682C99.7175 39.6201 98.8226 39.7467 97.8766 39.848C96.9306 39.9492 95.959 39.9999 95.0129 39.9999C92.5839 39.9999 90.4873 39.6454 88.6975 38.9366C86.9077 38.2277 85.4248 37.2657 84.2486 36.0252C83.0725 34.7847 82.2031 33.3416 81.6406 31.6454C81.0781 29.9492 80.7969 28.1264 80.7969 26.1771ZM98.6948 23.291C98.6692 22.6581 98.5414 22.0252 98.3624 21.4176C98.1834 20.81 97.8766 20.2783 97.4931 19.7973C97.1096 19.3163 96.5982 18.9366 96.0101 18.6328C95.422 18.329 94.6805 18.1771 93.7857 18.1771C92.9419 18.1771 92.2004 18.329 91.5868 18.6074C90.9731 18.8859 90.4618 19.2657 90.0527 19.7467C89.6436 20.2277 89.3367 20.7593 89.1066 21.3923C88.8765 22.0252 88.7231 22.6581 88.6208 23.291H98.6948Z" fill="white"/>
<path d="M121.604 11.9492C123.854 11.9492 125.721 12.2024 127.229 12.7087C128.738 13.215 129.939 13.9492 130.834 14.8859C131.729 15.8226 132.368 16.9872 132.752 18.329C133.135 19.6707 133.314 21.1897 133.314 22.8353V38.5315C132.215 38.7593 130.706 39.0378 128.763 39.3669C126.82 39.6961 124.468 39.848 121.706 39.848C119.968 39.848 118.382 39.6961 116.976 39.3923C115.57 39.0885 114.343 38.5821 113.32 37.8986C112.297 37.215 111.505 36.3036 110.968 35.1897C110.431 34.0758 110.149 32.7087 110.149 31.0885C110.149 29.4682 110.456 28.2277 111.095 27.1391C111.735 26.0505 112.578 25.1897 113.627 24.5568C114.675 23.9239 115.902 23.4429 117.257 23.1644C118.613 22.8859 120.044 22.734 121.502 22.734C122.499 22.734 123.368 22.7847 124.135 22.8606C124.902 22.9366 125.516 23.0631 126.002 23.1897V22.4809C126.002 21.1897 125.618 20.1771 124.826 19.3923C124.033 18.6074 122.678 18.2277 120.735 18.2277C119.431 18.2277 118.152 18.329 116.899 18.5062C115.647 18.6834 114.547 18.9619 113.627 19.291L112.655 13.215C113.09 13.0885 113.652 12.9366 114.317 12.7847C114.982 12.6328 115.698 12.5062 116.49 12.3796C117.283 12.253 118.101 12.1518 118.971 12.0758C119.84 11.9999 120.709 11.9492 121.604 11.9492ZM122.218 34.0252C122.959 34.0252 123.675 33.9999 124.365 33.9745C125.056 33.9492 125.593 33.8986 126.002 33.8226V28.1011C125.695 28.0252 125.235 27.9745 124.621 27.8986C124.008 27.8226 123.445 27.7973 122.934 27.7973C122.218 27.7973 121.553 27.848 120.914 27.9239C120.275 27.9999 119.738 28.1771 119.252 28.4049C118.766 28.6328 118.408 28.9619 118.127 29.3669C117.846 29.772 117.718 30.2783 117.718 30.8859C117.718 32.0758 118.127 32.8859 118.919 33.3416C119.712 33.7973 120.811 34.0252 122.218 34.0252Z" fill="white"/>
<path d="M162.871 19.2903C162.488 17.7966 161.874 16.5308 160.979 15.4422C160.084 14.3536 158.883 13.5182 157.374 12.9359C155.866 12.3536 153.948 12.0498 151.672 12.0498C149.397 12.0498 147.275 12.2017 145.229 12.5308C143.184 12.8599 141.522 13.189 140.218 13.5688V39.2903H147.837V18.7333C148.323 18.6574 148.86 18.6068 149.474 18.5561C150.087 18.5055 150.675 18.4802 151.212 18.4802C152.976 18.4802 154.204 18.9865 154.843 19.9992C155.482 21.0118 155.815 22.7333 155.815 25.1637V35.265L163.434 27.7207V24.2523C163.434 22.4296 163.255 20.784 162.871 19.2903Z" fill="white"/>
<path d="M9.10237 39.291H0C0.99717 37.4429 2.12218 35.5442 3.37504 33.6201L9.10237 39.291Z" fill="white"/>
<path d="M73.5344 0V8.75949L65.915 1.21519L73.5344 0Z" fill="white"/>
<path d="M163.434 31.7471V39.2914H155.814L163.434 31.7471Z" fill="white"/>
</g>
<defs>
<clipPath id="clip0_3992_50969">
<rect width="163.434" height="40" fill="white"/>
</clipPath>
</defs>
</svg>
