<svg width="120" height="30" viewBox="0 0 120 30" fill="none" xmlns="http://www.w3.org/2000/svg">
<path d="M21.1953 23.5637C19.7685 21.2283 17.9475 18.646 15.7322 15.8549L24.1802 3.15234H17.4969L12.4281 10.7663L7.47186 3.15234H0.375488L8.8611 16.1397C7.0213 18.608 5.36923 20.9245 3.86735 23.108C3.79226 23.203 3.73594 23.2979 3.67962 23.3928L7.73469 27.4941C8.20402 26.6587 8.71091 25.8422 9.23656 25.0637C9.76222 24.2853 10.3067 23.5447 10.8511 22.8422C11.3955 22.1397 11.8273 21.608 12.184 21.2093C13.3104 22.2536 14.3054 23.5258 15.1878 25.0258C16.0513 26.5258 16.8586 28.0068 17.5908 29.4878H24.5933C23.7672 27.8739 22.6408 25.9182 21.1953 23.5637Z" fill="#1E1E1E"/>
<path d="M25.5317 19.6338C25.5317 17.868 25.7946 16.311 26.339 14.9819C26.8834 13.6528 27.578 12.5515 28.4604 11.6591C29.3428 10.7667 30.3377 10.1021 31.4829 9.64643C32.6281 9.19074 33.7921 8.96289 34.9936 8.96289C37.7908 8.96289 40.0061 9.83631 41.6394 11.5642C43.2727 13.292 44.0799 15.8553 44.0799 19.2161C44.0799 19.5388 44.0612 19.8996 44.0424 20.2983C44.0236 20.6971 43.9861 21.0388 43.9673 21.3426H31.2764C31.4078 22.5009 31.9335 23.4312 32.8909 24.1148C33.8484 24.7983 35.125 25.1401 36.7207 25.1401C37.7533 25.1401 38.7483 25.0452 39.7433 24.8553C40.7382 24.6654 41.5455 24.4376 42.165 24.1528L42.916 28.7477C42.6156 28.8996 42.2213 29.0515 41.7145 29.2034C41.2076 29.3553 40.6632 29.4882 40.0436 29.6021C39.4241 29.7161 38.767 29.811 38.0724 29.8869C37.3778 29.9629 36.6644 30.0009 35.9698 30.0009C34.1863 30.0009 32.6469 29.735 31.3327 29.2034C30.0186 28.6718 28.9297 27.9502 28.0662 27.0199C27.2026 26.0895 26.5643 25.0072 26.1513 23.735C25.7382 22.4629 25.5317 21.0958 25.5317 19.6338ZM38.6732 17.4692C38.6544 16.9945 38.5605 16.5199 38.4291 16.0642C38.2977 15.6085 38.0724 15.2097 37.7908 14.849C37.5092 14.4882 37.1337 14.2034 36.702 13.9755C36.2702 13.7477 35.7257 13.6338 35.0687 13.6338C34.4491 13.6338 33.9047 13.7477 33.4541 13.9566C33.0036 14.1654 32.6281 14.4502 32.3277 14.811C32.0274 15.1718 31.8021 15.5705 31.6331 16.0452C31.4642 16.5199 31.3515 16.9945 31.2764 17.4692H38.6732Z" fill="#1E1E1E"/>
<path d="M55.4568 24.8363C55.0625 24.6654 54.7434 24.4375 54.5369 24.1527C54.3304 23.8679 54.1802 23.5261 54.1051 23.1274C54.03 22.7287 53.9924 22.273 53.9924 21.7603V9.60842L48.3979 3.9502V22.8996C48.3979 23.9629 48.5106 24.9122 48.7171 25.7666C48.9236 26.6211 49.3366 27.3426 49.9186 27.9312C50.5006 28.5198 51.3078 28.9945 52.3216 29.3173C53.3354 29.6401 54.6495 29.8299 56.2828 29.8489L57.0713 25.178C56.3954 25.1211 55.851 25.0072 55.4568 24.8363Z" fill="#1E1E1E"/>
<path d="M59.3242 19.6338C59.3242 17.868 59.587 16.311 60.1315 14.9819C60.6759 13.6528 61.3705 12.5515 62.2529 11.6591C63.1352 10.7667 64.1302 10.1021 65.2754 9.64643C66.4206 9.19074 67.5845 8.96289 68.786 8.96289C71.5833 8.96289 73.7986 9.83631 75.4319 11.5642C77.0651 13.292 77.8724 15.8553 77.8724 19.2161C77.8724 19.5388 77.8536 19.8996 77.8349 20.2983C77.8161 20.6971 77.7785 21.0388 77.7598 21.3426H65.0689C65.2003 22.5009 65.726 23.4312 66.6834 24.1148C67.6409 24.7983 68.9175 25.1401 70.5132 25.1401C71.5457 25.1401 72.5407 25.0452 73.5357 24.8553C74.5307 24.6654 75.338 24.4376 75.9575 24.1528L76.7085 28.7477C76.4081 28.8996 76.0138 29.0515 75.507 29.2034C75.0001 29.3553 74.4556 29.4882 73.8361 29.6021C73.2166 29.7161 72.5595 29.811 71.8649 29.8869C71.1703 29.9629 70.4569 30.0009 69.7623 30.0009C67.9788 30.0009 66.4394 29.735 65.1252 29.2034C63.8111 28.6718 62.7222 27.9502 61.8586 27.0199C60.9951 26.0895 60.3568 25.0072 59.9437 23.735C59.5307 22.4629 59.3242 21.0958 59.3242 19.6338ZM72.4656 17.4692C72.4469 16.9945 72.353 16.5199 72.2216 16.0642C72.0902 15.6085 71.8649 15.2097 71.5833 14.849C71.3017 14.4882 70.9262 14.2034 70.4944 13.9755C70.0626 13.7477 69.5182 13.6338 68.8611 13.6338C68.2416 13.6338 67.6972 13.7477 67.2466 13.9566C66.7961 14.1654 66.4206 14.4502 66.1202 14.811C65.8198 15.1718 65.5946 15.5705 65.4256 16.0452C65.2566 16.5199 65.144 16.9945 65.0689 17.4692H72.4656Z" fill="#1E1E1E"/>
<path d="M89.2865 8.96289C90.9386 8.96289 92.309 9.15276 93.4167 9.53251C94.5243 9.91226 95.4066 10.4629 96.0637 11.1654C96.7208 11.868 97.1901 12.7414 97.4717 13.7477C97.7533 14.754 97.8847 15.8933 97.8847 17.1274V28.8996C97.0775 29.0705 95.9698 29.2793 94.5431 29.5262C93.1163 29.773 91.3891 29.8869 89.3616 29.8869C88.085 29.8869 86.921 29.773 85.8885 29.5452C84.856 29.3173 83.9548 28.9376 83.2039 28.4249C82.453 27.9123 81.871 27.2287 81.4767 26.3933C81.0825 25.5578 80.876 24.5325 80.876 23.3173C80.876 22.1591 81.1013 21.1718 81.5706 20.3553C82.0399 19.5388 82.6595 18.8933 83.4292 18.4186C84.1989 17.9439 85.1 17.5831 86.095 17.3743C87.09 17.1654 88.1413 17.0515 89.2114 17.0515C89.9436 17.0515 90.5819 17.0895 91.1451 17.1464C91.7083 17.2034 92.1588 17.2983 92.5155 17.3933V16.8616C92.5155 15.8933 92.2339 15.1338 91.6519 14.5452C91.07 13.9566 90.075 13.6718 88.6482 13.6718C87.6907 13.6718 86.7521 13.7477 85.8322 13.8806C84.9123 14.0135 84.105 14.2224 83.4292 14.4692L82.7158 9.91226C83.0349 9.81732 83.4479 9.7034 83.9361 9.58947C84.4242 9.47555 84.9498 9.38061 85.5318 9.28568C86.1138 9.19074 86.7145 9.11479 87.3528 9.05783C87.9911 9.00087 88.6294 8.96289 89.2865 8.96289ZM89.7371 25.5199C90.2815 25.5199 90.8071 25.5009 91.314 25.4819C91.8209 25.4629 92.2151 25.4249 92.5155 25.368V21.0768C92.2902 21.0199 91.9523 20.9819 91.5018 20.9249C91.0512 20.868 90.6382 20.849 90.2627 20.849C89.7371 20.849 89.2489 20.8869 88.7796 20.9439C88.3103 21.0009 87.916 21.1338 87.5593 21.3047C87.2026 21.4755 86.9398 21.7224 86.7333 22.0262C86.5268 22.33 86.4329 22.7097 86.4329 23.1654C86.4329 24.0578 86.7333 24.6654 87.3153 25.0072C87.8973 25.349 88.7045 25.5199 89.7371 25.5199Z" fill="#1E1E1E"/>
<path d="M119.587 14.4685C119.305 13.3482 118.855 12.3988 118.198 11.5824C117.541 10.7659 116.658 10.1394 115.551 9.70264C114.443 9.26593 113.035 9.03809 111.364 9.03809C109.712 9.03809 108.135 9.15201 106.633 9.39885C105.131 9.64568 103.911 9.89252 102.954 10.1773V29.4685H108.548V14.0507C108.905 13.9938 109.299 13.9558 109.75 13.9178C110.2 13.8799 110.632 13.8609 111.026 13.8609C112.322 13.8609 113.223 14.2406 113.692 15.0001C114.161 15.7596 114.405 17.0507 114.405 18.8735V26.4495L120 20.7912V18.19C120 16.8229 119.869 15.5887 119.587 14.4685Z" fill="#1E1E1E"/>
<path d="M6.68335 29.468H0C0.732165 28.0819 1.5582 26.6579 2.4781 25.2148L6.68335 29.468Z" fill="#00AB9D"/>
<path d="M53.9924 0V6.56962L48.3979 0.911392L53.9924 0Z" fill="#8CBF43"/>
<path d="M120 23.8105V29.4688H114.405L120 23.8105Z" fill="#9F1461"/>
</svg>
