<svg width="29" height="20" viewBox="0 0 29 20" fill="none" xmlns="http://www.w3.org/2000/svg">
<path d="M14.5 18.3667C13.079 19.1932 11.426 19.6668 9.66667 19.6668C4.32583 19.6668 0 15.3362 0 10.0002C0 4.65933 4.32583 0.333496 9.66667 0.333496C11.426 0.333496 13.079 0.807162 14.5 1.63366C11.6097 3.29633 9.66667 6.41866 9.66667 10.0002C9.66667 13.5768 11.6097 16.6992 14.5 18.3667Z" fill="#8CC540"/>
<path d="M29 10.0002C29 15.3362 24.6693 19.6668 19.3333 19.6668C17.5692 19.6668 15.921 19.198 14.5 18.3667C17.3903 16.6992 19.3333 13.5768 19.3333 10.0002C19.3333 6.4235 17.3903 3.30116 14.5 1.63366C15.921 0.802329 17.5692 0.333496 19.3333 0.333496C24.6693 0.333496 29 4.65933 29 10.0002Z" fill="#8CC540"/>
</svg>
