<svg width="29" height="20" viewBox="0 0 29 20" fill="none" xmlns="http://www.w3.org/2000/svg">
<path d="M14.1405 18.4362C12.784 19.1696 11.2357 19.5866 9.58678 19.5866C4.29008 19.5866 0 15.2966 0 9.99986C0 4.70796 4.29008 0.413086 9.58678 0.413086C11.2357 0.413086 12.784 0.830111 14.1405 1.5635C11.2693 3.27953 9.34711 6.4192 9.34711 9.99986C9.34711 13.5805 11.2693 16.7202 14.1405 18.4362Z" fill="#8CC540"/>
<path d="M19.1735 9.99965C19.1735 13.4509 17.352 16.4707 14.6198 18.158C11.7629 16.557 9.82642 13.4988 9.82642 9.99965C9.82642 6.50048 11.7629 3.4423 14.6198 1.84131C17.352 3.52858 19.1735 6.55321 19.1735 9.99965Z" fill="#8CC540"/>
<path d="M19.1738 0.17334C17.3379 0.17334 15.6123 0.68144 14.1407 1.56342C14.3037 1.6497 14.4619 1.74557 14.6201 1.84144C15.967 1.08409 17.5249 0.652679 19.1738 0.652679C24.3267 0.652679 28.5209 4.84689 28.5209 9.99979C28.5209 15.1527 24.3267 19.3469 19.1738 19.3469C17.5249 19.3469 15.967 18.9155 14.6201 18.1581C14.4619 18.254 14.3037 18.3499 14.1407 18.4362C15.6123 19.3181 17.3379 19.8262 19.1738 19.8262C24.5903 19.8262 29.0003 15.4163 29.0003 9.99979C29.0003 4.58326 24.5903 0.17334 19.1738 0.17334Z" fill="#8CC540"/>
</svg>
