<svg width="29" height="20" viewBox="0 0 29 20" fill="none" xmlns="http://www.w3.org/2000/svg">
<path d="M9.82645 19.3469C4.67355 19.3469 0.479339 15.1527 0.479339 9.99979C0.479339 4.84689 4.67355 0.652679 9.82645 0.652679C11.4754 0.652679 13.0332 1.08408 14.3802 1.84144C14.5336 1.74078 14.6965 1.6497 14.8595 1.56342C13.3879 0.681436 11.6671 0.17334 9.82645 0.17334C4.40992 0.17334 0 4.58326 0 9.99979C0 15.4163 4.40992 19.8262 9.82645 19.8262C11.6671 19.8262 13.3879 19.3181 14.8595 18.4362C14.6965 18.3499 14.5336 18.2588 14.3802 18.1581C13.0332 18.9155 11.4754 19.3469 9.82645 19.3469Z" fill="#8CC540"/>
<path d="M14.3801 18.158C11.6479 16.4707 9.82642 13.4509 9.82642 9.99966C9.82642 6.55321 11.6479 3.52858 14.3801 1.84131C17.237 3.4423 19.1735 6.50048 19.1735 9.99966C19.1735 13.4988 17.237 16.557 14.3801 18.158Z" fill="#8CC540"/>
<path d="M29 9.99986C29 15.2966 24.7099 19.5866 19.4132 19.5866C17.7643 19.5866 16.2112 19.1696 14.8595 18.4362C17.7307 16.7154 19.6529 13.5757 19.6529 9.99986C19.6529 6.424 17.7307 3.28432 14.8595 1.5635C16.2112 0.830108 17.7643 0.413086 19.4132 0.413086C24.7099 0.413086 29 4.70796 29 9.99986Z" fill="#8CC540"/>
</svg>
