<svg width="30" height="20" viewBox="0 0 30 20" fill="none" xmlns="http://www.w3.org/2000/svg">
<g clip-path="url(#clip0_2031_5717)">
<path d="M19.7561 0C17.9854 0 16.322 0.463415 14.878 1.27805C13.4341 0.463415 11.7707 0 10 0C4.48293 0 0 4.4878 0 10C0 15.5171 4.48293 20 10 20C11.7707 20 13.4341 19.5366 14.878 18.722C16.322 19.5366 17.9854 20 19.7561 20C25.2683 20 29.7561 15.5171 29.7561 10C29.7561 4.4878 25.2683 0 19.7561 0ZM10 19.5122C4.7561 19.5122 0.487805 15.2488 0.487805 10C0.487805 4.7561 4.7561 0.487805 10 0.487805C11.5805 0.487805 13.0732 0.878049 14.3902 1.57073C11.6049 3.34146 9.7561 6.45854 9.7561 10C9.7561 13.5463 11.6049 16.6634 14.3951 18.4341C13.078 19.122 11.5854 19.5122 10 19.5122ZM19.7561 19.5122C18.1707 19.5122 16.678 19.122 15.361 18.4341C18.1463 16.6585 20 13.5415 20 10C20 6.46341 18.1512 3.34634 15.3659 1.57073C16.6829 0.878049 18.1756 0.487805 19.7561 0.487805C25 0.487805 29.2683 4.7561 29.2683 10C29.2683 15.2488 25 19.5122 19.7561 19.5122Z" fill="#8CC540"/>
</g>
<defs>
<clipPath id="clip0_2031_5717">
<rect width="29.7561" height="20" fill="white"/>
</clipPath>
</defs>
</svg>
