<svg width="15" height="17" viewBox="0 0 15 17" fill="none" xmlns="http://www.w3.org/2000/svg">
<g clip-path="url(#clip0_3970_7205)">
<path d="M8.08986 8.99021C8.01986 8.81021 7.91986 8.64022 7.80986 8.50022C7.70986 8.36021 7.59986 8.18021 7.45986 8.08021C7.42986 8.12021 7.35986 8.19022 7.31986 8.26022C7.27986 8.33022 7.17986 8.44022 7.14986 8.51022C7.11986 8.58022 7.04986 8.69022 6.97986 8.79022C6.90986 8.90021 6.87986 8.97022 6.87986 9.00022H6.10986C6.24986 8.75022 6.38986 8.51022 6.55986 8.26022C6.72986 8.01022 6.90986 7.73021 7.11986 7.45021L6.14986 5.97021H6.94986L7.50986 6.85021L8.09986 5.97021H8.86986L7.89986 7.42022C8.13986 7.74022 8.34986 8.02022 8.52986 8.30022C8.69986 8.58022 8.80986 8.79022 8.90986 8.97022L8.10986 9.01022L8.08986 8.99021Z" fill="#7E7E7E"/>
<path d="M8.56 14.25C8.56 13.84 8.22 13.5 7.81 13.5H2.41C1.91 13.5 1.5 13.08 1.5 12.56V2.44C1.5 1.92 1.91 1.5 2.41 1.5H12.51C13.04 1.5 13.46 1.93 13.46 2.45V10.37C13.46 10.78 13.8 11.12 14.21 11.12C14.62 11.12 14.96 10.78 14.96 10.37V2.44C14.96 1.09 13.87 0 12.52 0H2.41C1.08 0 0 1.09 0 2.44V12.56C0 13.9 1.08 15 2.41 15H7.81C8.22 15 8.56 14.66 8.56 14.25Z" fill="#7E7E7E"/>
<path d="M12.1499 12.1499V16.1099M14.1299 14.1299H10.1699" stroke="#7E7E7E" stroke-linecap="round" stroke-linejoin="round"/>
<path d="M7.5001 4.08013C7.5001 4.08013 10.3201 3.83013 12.9301 7.08013C13.1001 7.29013 13.1001 7.61013 12.9601 7.89013C12.3001 8.81013 10.4501 10.9601 7.5001 10.9301C7.5001 10.9301 4.5101 11.0801 2.0401 7.86013C1.8701 7.65013 1.8701 7.29013 2.0401 7.08013C2.7301 6.20013 4.6101 4.19013 7.5001 4.08013ZM7.5001 4.08013C5.6201 4.08013 4.1201 5.63013 4.1201 7.51013C4.1201 9.39013 5.6201 10.9401 7.5001 10.9401M7.5001 4.09013C9.3801 4.09013 10.8801 5.64013 10.8801 7.52013C10.8801 9.40013 9.3501 10.9501 7.5001 10.9501" stroke="#7E7E7E" stroke-width="0.85" stroke-linecap="round" stroke-linejoin="round"/>
</g>
<defs>
<clipPath id="clip0_3970_7205">
<rect width="14.96" height="16.61" fill="white"/>
</clipPath>
</defs>
</svg>
