<svg width="16" height="17" viewBox="0 0 16 17" fill="none" xmlns="http://www.w3.org/2000/svg">
<g clip-path="url(#clip0_3971_7215)">
<path d="M8.67 13.0002H2.98C2.4 13.0002 1.99 13.0002 1.85 12.9302C1.73 12.8702 1.63 12.7702 1.57 12.6502C1.5 12.5102 1.5 12.1002 1.5 11.5202V2.98023C1.5 2.40023 1.5 1.99023 1.57 1.85023C1.63 1.73023 1.73 1.63023 1.85 1.57023C1.99 1.50023 2.4 1.50023 2.98 1.50023H5.37C5.59 1.50023 5.78 1.50023 5.83 1.51023C5.88 1.52023 5.92 1.55023 5.96 1.58023C6 1.61023 6.11 1.78023 6.23 1.96023L7.03 3.16023C7.25 3.49023 7.38 3.68023 7.59 3.86023C7.78 4.02023 8 4.13023 8.24 4.21023C8.5 4.29023 8.74 4.29023 9.14 4.29023H12.46C13.04 4.29023 13.45 4.29023 13.59 4.36023C13.71 4.42023 13.81 4.52023 13.87 4.64023C13.94 4.78023 13.94 5.19023 13.94 5.77023V11.2602H15.44V5.76023C15.44 4.89023 15.44 4.41023 15.21 3.95023C15 3.54023 14.68 3.22023 14.27 3.01023C13.81 2.78023 13.33 2.78023 12.46 2.78023H9.14C8.92 2.78023 8.73 2.78023 8.68 2.77023C8.63 2.76023 8.59 2.73023 8.55 2.70023C8.51 2.67023 8.4 2.50023 8.28 2.32023L7.48 1.12023C7.26 0.790234 7.13 0.600234 6.92 0.420234C6.73 0.260234 6.52 0.150234 6.27 0.0702344C6.01 -0.00976562 5.77 -0.00976562 5.37 -0.00976562H2.98C2.11 -0.00976562 1.63 -0.00976562 1.17 0.220234C0.77 0.440234 0.44 0.760234 0.23 1.17023C0 1.63023 0 2.11023 0 2.98023V11.5202C0 12.3902 0 12.8702 0.23 13.3302C0.44 13.7402 0.76 14.0602 1.17 14.2702C1.63 14.5002 2.11 14.5002 2.98 14.5002H8.67V13.0002Z" fill="#7E7E7E"/>
<path d="M12.2598 11.77V15.73M14.2398 13.75H10.2798" stroke="#7E7E7E" stroke-linecap="round" stroke-linejoin="round"/>
</g>
<defs>
<clipPath id="clip0_3971_7215">
<rect width="15.43" height="16.23" fill="white"/>
</clipPath>
</defs>
</svg>
