<svg width="15" height="17" viewBox="0 0 15 17" fill="none" xmlns="http://www.w3.org/2000/svg">
<g clip-path="url(#clip0_3970_7188)">
<path d="M8.59018 10.2298C8.43018 9.93976 8.26018 9.60977 8.10018 9.31977C7.94018 8.98977 7.69018 8.73977 7.48018 8.52977C7.40018 8.60977 7.32018 8.73977 7.19018 8.85977C7.07018 8.97976 6.98018 9.14977 6.86018 9.31977C6.74018 9.48977 6.65018 9.64977 6.53018 9.81977C6.45018 9.98977 6.37018 10.1498 6.32018 10.2298H4.93018C5.18018 9.81977 5.42018 9.35977 5.75018 8.89977C6.08018 8.43976 6.41018 7.94977 6.78018 7.44977L5.02018 4.75977H6.50018L7.53018 6.32977L8.60018 4.75977H9.99018L8.23018 7.40977C8.68018 7.98977 9.05018 8.52977 9.38018 9.02977C9.67018 9.52977 9.91018 9.89977 10.0802 10.2698L8.60018 10.2298H8.59018Z" fill="#7E7E7E"/>
<path d="M7.81 13.5H2.42C1.91 13.5 1.5 13.09 1.5 12.58V2.44C1.5 1.92 1.92 1.5 2.44 1.5H12.58C13.09 1.5 13.5 1.91 13.5 2.42V10.38C13.5 10.79 13.84 11.13 14.25 11.13C14.66 11.13 15 10.79 15 10.38V2.44C15 1.1 13.9 0 12.56 0H2.42C1.08 0 0 1.08 0 2.42V12.56C0 13.9 1.1 15 2.44 15H7.81C8.22 15 8.56 14.66 8.56 14.25C8.56 13.84 8.22 13.5 7.81 13.5Z" fill="#7E7E7E"/>
<path d="M12.1499 12.1499V16.1099M14.1299 14.1299H10.1699" stroke="#7E7E7E" stroke-linecap="round" stroke-linejoin="round"/>
</g>
<defs>
<clipPath id="clip0_3970_7188">
<rect width="15" height="16.61" fill="white"/>
</clipPath>
</defs>
</svg>
