<svg width="13" height="17" viewBox="0 0 13 17" fill="none" xmlns="http://www.w3.org/2000/svg">
<path d="M1 6.55469L1.74137 12.0356C1.96464 13.6861 2.07627 14.5114 2.64157 15.0054C3.20687 15.4994 4.03967 15.4994 5.70528 15.4994H7.18391C8.84951 15.4994 9.68231 15.4994 10.2476 15.0054C10.8129 14.5114 10.9245 13.6861 11.1478 12.0356L11.8892 6.55469" stroke="#7E7E7E" stroke-width="1.5" stroke-linecap="round" stroke-linejoin="round"/>
<path d="M4.11133 3.8334V3.8334C4.11133 3.52372 4.11133 3.36889 4.12844 3.2389C4.24662 2.34147 4.9528 1.63529 5.85023 1.51712C5.98022 1.5 6.13505 1.5 6.44472 1.5V1.5C6.7544 1.5 6.90923 1.5 7.03922 1.51712C7.93665 1.63529 8.64283 2.34147 8.761 3.2389C8.77812 3.36889 8.77812 3.52372 8.77812 3.8334V3.8334" stroke="#7E7E7E" stroke-width="1.5" stroke-linecap="round" stroke-linejoin="round"/>
<path d="M11.8892 3.83301L1 3.83301" stroke="#7E7E7E" stroke-width="1.5" stroke-linecap="round" stroke-linejoin="round"/>
</svg>
