<svg width="16" height="18" viewBox="0 0 16 18" fill="none" xmlns="http://www.w3.org/2000/svg">
<path fill-rule="evenodd" clip-rule="evenodd" d="M11.6361 1.49789L11.6547 1.51085L11.6732 1.52381L11.6732 1.52383L11.6733 1.52387C11.9997 1.7522 12.2721 1.94283 12.4867 2.11341C12.7099 2.29085 12.9093 2.47613 13.0701 2.70713C13.5311 3.36932 13.678 4.20055 13.4719 4.98063C13.4 5.25276 13.2763 5.49514 13.1274 5.73835C12.9843 5.97216 12.7936 6.24465 12.5653 6.57104L12.5653 6.57108L12.5652 6.57109L12.5523 6.58961L6.96303 14.5787L6.91629 14.6456C6.64296 15.0368 6.42704 15.3459 6.13323 15.587C5.83941 15.8282 5.49417 15.9797 5.05712 16.1714L4.98241 16.2042L3.91454 16.6736L3.86202 16.6967C3.23347 16.9731 2.68566 17.2139 2.23714 17.3365C1.76644 17.4651 1.20599 17.5207 0.701126 17.1675C0.196262 16.8143 0.0564333 16.2687 0.0158937 15.7825C-0.0227339 15.3191 0.015748 14.722 0.0599007 14.0368L0.0599043 14.0368L0.0635934 13.9795L0.138521 12.8154L0.143727 12.734C0.174066 12.2577 0.198033 11.8814 0.323847 11.5228C0.449663 11.1641 0.665991 10.8553 0.939846 10.4644L0.986646 10.3976L6.5759 2.40848L6.58886 2.38996L6.58886 2.38996L6.58887 2.38994C6.81722 2.06353 7.00787 1.79102 7.17846 1.57642C7.3559 1.3532 7.54118 1.15384 7.77218 0.993037C8.43437 0.532063 9.26559 0.385152 10.0457 0.591216C10.3178 0.6631 10.5602 0.786868 10.8034 0.935741C11.0372 1.07887 11.3097 1.26953 11.6361 1.49789ZM10.0203 2.21508C9.83529 2.10185 9.73455 2.06048 9.66258 2.04147C9.308 1.94781 8.93017 2.01458 8.62918 2.22412C8.56809 2.26664 8.48763 2.34004 8.35266 2.50982C8.21407 2.68417 8.04962 2.91866 7.80497 3.26835L7.19565 4.1393L10.7139 6.6007L11.3232 5.72974C11.5679 5.38005 11.7318 5.14519 11.8481 4.95523C11.9613 4.77024 12.0027 4.6695 12.0217 4.59754C12.1153 4.24295 12.0486 3.86512 11.839 3.56413C11.7965 3.50304 11.7231 3.42258 11.5533 3.28762C11.379 3.14902 11.1445 2.98457 10.7948 2.73993C10.4451 2.49528 10.2102 2.33136 10.0203 2.21508ZM9.85402 7.82977L6.33578 5.36838L2.21572 11.2575C1.87352 11.7466 1.78831 11.8795 1.73929 12.0193C1.69027 12.159 1.67377 12.316 1.63542 12.9118L1.5605 14.0758C1.51161 14.8353 1.48247 15.3191 1.51071 15.6578C1.52413 15.8189 1.54779 15.8983 1.56265 15.9329L1.56349 15.9349L1.5656 15.935C1.60317 15.9371 1.68592 15.9321 1.84183 15.8895C2.16969 15.7999 2.61427 15.6067 3.31093 15.3004L4.3788 14.831C4.92527 14.5908 5.06713 14.5215 5.18162 14.4275C5.2961 14.3336 5.39176 14.208 5.73396 13.7189L9.85402 7.82977ZM14.2884 15.6924H9.24909C8.75743 15.6924 8.35754 16.0975 8.35754 16.5955C8.35754 17.0945 8.75743 17.4987 9.24909 17.4987H14.2884C14.7801 17.4987 15.1799 17.0945 15.1799 16.5955C15.1799 16.0975 14.7801 15.6924 14.2884 15.6924Z" fill="#7E7E7E"/>
</svg>
