<svg width="18" height="17" viewBox="0 0 18 17" fill="none" xmlns="http://www.w3.org/2000/svg">
<path d="M9.25006 4.1499C9.25006 4.1499 13.3001 3.7999 17.0501 8.3999C17.3001 8.6999 17.3001 9.1499 17.1001 9.5499C16.1501 10.8499 13.5001 13.8999 9.25006 13.8499M9.25006 4.1499C5.10006 4.2999 2.40005 7.1499 1.40005 8.3999C1.15005 8.6999 1.15005 9.1999 1.40005 9.4999C4.95005 14.0499 9.25006 13.8499 9.25006 13.8499M9.25006 4.1499C6.55006 4.1499 4.40005 6.3499 4.40005 8.9999C4.40005 11.6499 6.55006 13.8499 9.25006 13.8499M9.25006 4.1499C11.9501 4.1499 14.1001 6.3499 14.1001 8.9999C14.1001 11.6499 11.9001 13.8499 9.25006 13.8499" stroke="#1E1E1E" stroke-linecap="round" stroke-linejoin="round"/>
<path d="M10.1 11.1001C10 10.8501 9.85 10.6001 9.7 10.4001C9.55 10.2001 9.4 9.95005 9.2 9.80005C9.15 9.85005 9.05 9.95005 9 10.05C8.95 10.15 8.8 10.3001 8.75 10.4001C8.7 10.5001 8.6 10.65 8.5 10.8C8.4 10.95 8.35 11.0501 8.35 11.1001H7.25C7.45 10.7501 7.65 10.4 7.9 10.05C8.15 9.70005 8.4 9.30006 8.7 8.90005L7.3 6.80005H8.45L9.25 8.05005L10.1 6.80005H11.2L9.8 8.85005C10.15 9.30005 10.45 9.70005 10.7 10.1001C10.95 10.5001 11.1 10.8 11.25 11.05L10.1 11.1001Z" fill="#1E1E1E"/>
<path d="M17.2 2.5V14.5C17.2 15.6 16.3 16.5 15.2 16.5H3C1.9 16.5 1 15.6 1 14.5V2.5C1 1.4 1.9 0.5 3 0.5H15.15C16.3 0.5 17.2 1.4 17.2 2.5Z" stroke="#1E1E1E" stroke-miterlimit="10"/>
</svg>
