<svg width="26" height="16" viewBox="0 0 26 16" fill="none" xmlns="http://www.w3.org/2000/svg">
<path d="M24.2804 7.13859C18.8704 0.508593 13.0304 1.00859 13.0304 1.00859C7.04043 1.22859 3.15043 5.33859 1.71043 7.13859C1.35043 7.56859 1.35043 8.28859 1.71043 8.72859C6.83043 15.2886 13.0304 14.9986 13.0304 14.9986C19.1604 15.0686 22.9804 10.6686 24.3504 8.7986C24.6404 8.2186 24.6404 7.56859 24.2804 7.13859Z" stroke="#1E1E1E" stroke-opacity="0.4" stroke-width="1.6" stroke-linecap="round" stroke-linejoin="round"/>
<path d="M14.2604 11.0284C14.1204 10.6684 13.9004 10.3084 13.6804 10.0184C13.4604 9.72836 13.2504 9.36836 12.9604 9.14836C12.8904 9.21836 12.7404 9.36836 12.6704 9.50836C12.6004 9.64836 12.3804 9.86836 12.3104 10.0084C12.2404 10.1484 12.0904 10.3684 11.9504 10.5884C11.8104 10.8084 11.7304 10.9484 11.7304 11.0184H10.1504C10.4404 10.5184 10.7304 10.0084 11.0904 9.50836C11.4504 9.00836 11.8104 8.42836 12.2404 7.84836L10.2204 4.81836H11.8804L13.0304 6.61836L14.2604 4.81836H15.8504L13.8304 7.77837C14.3304 8.42837 14.7704 9.00837 15.1304 9.57837C15.4904 10.1584 15.7104 10.5884 15.9204 10.9484L14.2604 11.0284Z" fill="#1E1E1E" fill-opacity="0.4"/>
</svg>
