<svg width="207" height="133" viewBox="0 0 207 133" fill="none" xmlns="http://www.w3.org/2000/svg">
<g clip-path="url(#clip0_55_21351)">
<path d="M25.4629 42.4073C30.0693 39.5847 34.2336 37.2505 38.1819 34.8311C52.0662 26.8307 67.3268 23.5693 84.6016 25.961C97.1044 27.7969 107.452 33.2009 114.253 43.1704C121.055 53.1399 127.122 63.7039 133.341 73.8854C136.521 79.1144 139.193 84.3642 142.448 89.402C148.47 98.1812 154.302 100.48 165.042 99.1913C177.886 97.628 188.274 90.9 195.99 78.9221C202.309 82.5173 200.933 87.2756 198.271 90.8645C195.016 95.3241 191.037 99.7194 186.355 102.733C181.016 106.15 174.671 108.95 168.347 110.433C152.353 114.289 140.398 109.798 130.97 96.363C125.369 88.4128 121.225 79.9323 116.207 71.77C111.686 64.2455 106.949 56.6358 101.921 49.1322C98.169 43.4566 92.4224 40.3081 85.5658 38.7098C75.0271 36.3228 65.2369 37.1021 55.547 40.7923C53.5076 41.5345 51.6842 42.3619 49.7854 43.3804C41.6075 47.6666 33.4296 51.9528 24.5937 56.6422C39.6231 59.0323 53.4971 61.1879 67.5872 63.4286C67.8032 63.5138 68.0745 64.725 68.4211 65.7451C67.2557 66.1693 66.0802 67.252 65.0655 67.2938C50.9352 67.6876 36.6542 68.4638 22.4686 67.7315C11.4678 67.1502 6.69082 62.1751 7.56506 52.3597C8.20318 43.7764 10.72 35.4918 13.3774 27.4836C13.9149 25.4868 18.1445 23.62 20.6059 23.7067C22.1279 23.644 25.1116 27.4705 25.5134 29.6167C26.4677 33.5268 25.684 37.4145 25.4629 42.4073Z" fill="white"/>
</g>
<defs>
<clipPath id="clip0_55_21351">
<rect width="195.753" height="64.5314" fill="white" transform="translate(182.449 132.33) rotate(-158.487)"/>
</clipPath>
</defs>
</svg>
