<svg width="9" height="12" viewBox="0 0 9 12" fill="none" xmlns="http://www.w3.org/2000/svg">
<path d="M0.253069 5.28246H7.87322C7.97062 5.28246 8.05905 5.2268 8.10118 5.13913C8.14343 5.05172 8.13167 4.94761 8.0712 4.8717L4.261 0.0952582C4.21292 0.0350419 4.14018 0 4.06327 0C3.98635 0 3.91349 0.0350419 3.86554 0.0952582L0.0552151 4.8717C-0.00538077 4.94773 -0.0171457 5.05172 0.0251069 5.13913C0.067233 5.2268 0.15566 5.28246 0.253069 5.28246Z" fill="#1E1E1E" fill-opacity="0.5"/>
<path d="M7.87309 6.71777H0.253069C0.155786 6.71777 0.067233 6.77331 0.0251069 6.8611C-0.0171457 6.94852 -0.00538077 7.05263 0.0552151 7.12841L3.86542 11.905C3.91349 11.9652 3.98623 12.0002 4.06314 12.0002C4.14006 12.0002 4.21292 11.9652 4.26087 11.905L8.07082 7.12841C8.13141 7.05238 8.14305 6.94852 8.1008 6.8611C8.05893 6.77331 7.9705 6.71777 7.87309 6.71777Z" fill="#1E1E1E" fill-opacity="0.5"/>
</svg>
