<svg width="22" height="22" viewBox="0 0 22 22" fill="none" xmlns="http://www.w3.org/2000/svg">
<path d="M21 3.56V10.31C21 11.69 19.88 12.81 18.5 12.81H7.43C6.56 12.81 5.74 13.25 5.31 14L1 21V3.5C1 2.12 2.12 1 3.5 1H18.5C19.87 1.06 21 2.12 21 3.56Z" stroke="#1E1E1E" stroke-opacity="0.4" stroke-width="1.6" stroke-linecap="round" stroke-linejoin="round"/>
<path d="M7.18994 8.55957C7.8803 8.55957 8.43994 7.99993 8.43994 7.30957C8.43994 6.61921 7.8803 6.05957 7.18994 6.05957C6.49958 6.05957 5.93994 6.61921 5.93994 7.30957C5.93994 7.99993 6.49958 8.55957 7.18994 8.55957Z" stroke="#1E1E1E" stroke-opacity="0.4" stroke-linecap="round" stroke-linejoin="round"/>
<path d="M11.0601 8.55957C11.7504 8.55957 12.3101 7.99993 12.3101 7.30957C12.3101 6.61921 11.7504 6.05957 11.0601 6.05957C10.3697 6.05957 9.81006 6.61921 9.81006 7.30957C9.81006 7.99993 10.3697 8.55957 11.0601 8.55957Z" stroke="#1E1E1E" stroke-opacity="0.4" stroke-linecap="round" stroke-linejoin="round"/>
<path d="M14.9399 8.55957C15.6303 8.55957 16.1899 7.99993 16.1899 7.30957C16.1899 6.61921 15.6303 6.05957 14.9399 6.05957C14.2496 6.05957 13.6899 6.61921 13.6899 7.30957C13.6899 7.99993 14.2496 8.55957 14.9399 8.55957Z" stroke="#1E1E1E" stroke-opacity="0.4" stroke-linecap="round" stroke-linejoin="round"/>
</svg>
