<svg width="189" height="156" viewBox="0 0 189 156" fill="none" xmlns="http://www.w3.org/2000/svg">
<g clip-path="url(#clip0_55_21402)">
<path d="M177.796 46.7005C178.323 51.5864 179.402 54.1483 178.587 55.6417C175.574 61.214 172.783 67.1465 168.457 71.7896C157.275 84.6145 142.926 92.6878 127.138 98.4199C100.25 108.245 72.4047 110.471 43.9782 109.333C40.9364 109.217 38.0053 109.282 34.7838 109.277C34.6041 109.387 34.3554 109.788 34.0376 110.479C37.5503 113.779 41.1737 117.258 44.5067 120.668C46.194 122.608 47.7432 125.129 48.3523 127.731C48.7675 129.213 47.8973 132.228 46.6393 133.001C45.0219 133.995 42.2706 133.949 40.169 133.752C38.7172 133.404 37.5415 131.894 36.2969 130.674C26.9618 121.526 17.2672 112.598 8.00119 103.159C0.0904849 95.1202 1.26435 90.1816 10.7614 85.0899C20.6178 79.7774 30.2529 74.1048 39.819 68.7226C42.8049 67.1358 46.192 65.7988 49.648 64.1712C50.8812 73.8327 50.8812 73.8328 23.4286 94.4234C42.9795 98.0385 61.2849 97.2093 79.6177 95.6189C97.9505 94.0286 115.564 89.6555 132.747 82.5693C150.47 75.1518 163.864 62.704 177.796 46.7005Z" fill="white"/>
</g>
<defs>
<clipPath id="clip0_55_21402">
<rect width="75" height="175" fill="white" transform="translate(39.2656 155.521) rotate(-121.57)"/>
</clipPath>
</defs>
</svg>
