<svg width="18" height="18" viewBox="0 0 18 18" fill="none" xmlns="http://www.w3.org/2000/svg">
<path d="M10.7125 12.2992C10.5125 11.9492 10.3125 11.5492 10.1125 11.1992C9.91245 10.7992 9.61245 10.4992 9.36245 10.2492C9.26245 10.3492 9.16245 10.4992 9.01245 10.6492C8.86245 10.7992 8.76245 10.9992 8.61245 11.1992C8.46245 11.3992 8.36245 11.5992 8.21245 11.7992C8.11245 11.9992 8.01245 12.1992 7.96245 12.2992H6.26245C6.56245 11.7992 6.86245 11.2492 7.26245 10.6992C7.66245 10.1492 8.06245 9.54922 8.51245 8.94922L6.36245 5.69922H8.16245L9.41245 7.59921L10.7125 5.69922H12.4125L10.2625 8.89922C10.8125 9.59922 11.2625 10.2492 11.6625 10.8492C12.0125 11.4492 12.3125 11.8992 12.5125 12.3492L10.7125 12.2992Z" fill="#1E1E1E"/>
<path d="M17.4625 3V15C17.4625 16.1 16.5625 17 15.4625 17H3.3125C2.2125 17 1.3125 16.1 1.3125 15V3C1.3125 1.9 2.2125 1 3.3125 1H15.4625C16.5625 1 17.4625 1.9 17.4625 3Z" stroke="#1E1E1E" stroke-miterlimit="10"/>
</svg>
