<svg width="22" height="19" viewBox="0 0 22 19" fill="none" xmlns="http://www.w3.org/2000/svg">
<path d="M4 6.40907V4.0909C4 2.63818 4 1.91181 4.44818 1.44818C4.89636 1 5.62273 1 7.09091 1H9.40909M21 6.40907V4.0909C21 2.63818 21 1.91181 20.5518 1.44818C20.1036 1 19.3773 1 17.9091 1H15.5909M21 12.5909V14.909C21 16.3618 21 17.0881 20.5518 17.5518C20.1036 18.0154 19.3773 17.9999 17.9091 17.9999H15.5909" stroke="#1E1E1E" stroke-opacity="0.4" stroke-width="1.6" stroke-linecap="round" stroke-linejoin="round"/>
<path d="M11.634 18H2.31453C1.31198 18 0.648315 16.8194 1.19901 15.8929C2.31453 13.7858 3.41592 11.7833 4.74324 9.6613C5.18098 8.95894 6.18353 8.71984 6.84719 9.4222L12.7354 15.6538C13.3991 16.4757 12.7354 18 11.6199 18H11.634Z" stroke="#1E1E1E" stroke-opacity="0.4" stroke-width="1.6" stroke-miterlimit="10"/>
</svg>
