<svg width="17" height="14" viewBox="0 0 17 14" fill="none" xmlns="http://www.w3.org/2000/svg">
<path d="M12 1H5C3.11438 1 2.17157 1 1.58579 1.58579C1 2.17157 1 3.11438 1 5V8.66667C1 10.5523 1 11.4951 1.58579 12.0809C2.17157 12.6667 3.11438 12.6667 5 12.6667H12C13.8856 12.6667 14.8284 12.6667 15.4142 12.0809C16 11.4951 16 10.5523 16 8.66666V5C16 3.11438 16 2.17157 15.4142 1.58579C14.8284 1 13.8856 1 12 1Z" stroke="#7E7E7E" stroke-width="1.5"/>
<path d="M6.15625 1V12.6667M16 8.78506H1M16 4.88242H1M11.1202 1V12.6667" stroke="#7E7E7E" stroke-width="1.3" stroke-linecap="round"/>
</svg>
