<svg width="212" height="81" viewBox="0 0 212 81" fill="none" xmlns="http://www.w3.org/2000/svg">
<path d="M14.0536 33.7723C19.9625 37.1378 24.7706 39.5538 29.362 42.2813C32.0109 43.9368 34.9723 45.8093 32.2628 50.7673C22.3619 46.4772 12.4214 43.1763 3.45559 37.4097C-0.361592 35.0351 -0.690394 32.3108 1.28697 28.1382C1.99118 26.5938 3.00785 25.2665 3.87528 24.0204C8.87699 17.2345 13.8787 10.4487 19.1113 3.73085C20.7785 1.4689 22.8259 -0.806317 25.8689 1.21532C28.5994 3.01987 28.4805 5.98774 27.2073 8.61589C25.7173 11.5556 23.8332 14.1291 22.0307 16.8517C20.7296 18.7209 19.2792 20.6713 18.7662 23.2729C19.6616 22.7857 20.5571 22.2985 21.4525 21.8114C31.4513 16.3711 36.3387 16.8085 45.2789 23.9439C52.3443 29.7768 57.9989 36.5709 61.6599 45.0303C62.5716 47.0503 63.4834 49.0703 64.3135 50.9411C68.3406 59.0078 72.9436 59.9872 79.412 53.7581C82.7208 50.603 85.3907 46.6342 88.3055 43.1129C96.8865 32.2506 104.826 30.8338 116.672 38.3238C125.556 43.9412 132.976 51.1297 138.633 60.0514C140.333 62.8039 142.114 65.7054 144.18 68.0651C147.673 71.9708 150.565 71.946 153.452 67.6657C156.637 63.223 158.966 58.2782 161.527 53.4014C163.383 50.069 164.696 46.4515 166.783 43.187C171.106 36.5769 177.278 32.638 185.465 33.7962C191.588 34.7225 197.807 36.1774 203.809 37.9438C207.734 39.0988 210.954 41.7982 211.245 47.6394C209.249 47.1771 207.634 46.7015 205.868 46.3071C199.568 44.7031 193.267 43.0991 186.831 41.9557C180.626 40.8803 176.327 43.994 173.631 49.3315C171.369 54.0459 169.569 58.8963 167.226 63.4616C165.017 67.5662 162.891 71.82 159.894 75.1922C153.55 82.7088 144.495 82.7966 137.903 75.3514C134.886 71.961 132.302 67.9475 129.949 64.002C125.094 56.1921 118.477 50.1156 110.842 45.3664C104.458 41.4856 101.513 42.1202 96.8493 47.7544C92.9855 52.3727 89.5157 57.3573 85.0946 61.3111C82.3011 63.9923 78.2578 65.8052 74.3357 66.7779C67.5501 68.5344 61.9677 65.7655 58.4724 59.732C56.6769 56.451 54.949 52.9396 53.7504 49.3338C50.782 41.0782 44.9245 34.9751 38.484 29.5764C35.3454 27.0261 32.1135 26.075 28.0842 28.2673C24.0548 30.4597 19.685 31.676 14.0536 33.7723Z" fill="white"/>
</svg>
