<svg width="17" height="18" viewBox="0 0 17 18" fill="none" xmlns="http://www.w3.org/2000/svg">
<path fill-rule="evenodd" clip-rule="evenodd" d="M11.785 0.941406H11.285V0.988435H2.69617C1.38401 0.988435 0.3125 2.05995 0.3125 3.37211V14.6741C0.3125 15.9863 1.38401 17.0578 2.69617 17.0578H14.1395C15.4516 17.0578 16.5232 15.9863 16.5232 14.6741V6.17967H16.5232V5.67967V3.37217C16.5232 2.05587 15.4522 1.00055 14.1623 0.941922L14.1509 0.941406H14.1396H11.785ZM15.5165 3.2363C15.5209 3.281 15.5232 3.32631 15.5232 3.37211V5.17967H13.6686C12.9088 5.17967 12.285 4.55587 12.285 3.796V1.98843H14.1395C14.6961 1.98843 15.1797 2.32313 15.3986 2.80083C15.4605 2.93692 15.5012 3.08351 15.5165 3.2363ZM11.285 1.98843V3.796C11.285 5.10816 12.3565 6.17967 13.6686 6.17967H15.5232V14.6741C15.5232 15.434 14.8994 16.0578 14.1395 16.0578H2.69617C1.9363 16.0578 1.3125 15.434 1.3125 14.6741V3.37211C1.3125 2.61223 1.9363 1.98843 2.69617 1.98843H11.285Z" fill="#1E1E1E"/>
<path d="M5.11624 12.005C4.97795 11.7339 4.82813 11.457 4.66102 11.1743C4.49968 10.8916 4.30953 10.6551 4.09633 10.4647C4.03295 10.5397 3.94651 10.6378 3.84856 10.7705C3.74484 10.9032 3.64688 11.0358 3.54316 11.1858C3.43944 11.33 3.34725 11.4858 3.26081 11.6416C3.17438 11.7973 3.10523 11.9185 3.0649 12.0108H1.80298C2.01042 11.63 2.25243 11.232 2.53478 10.8224C2.81712 10.4128 3.12828 9.98016 3.47401 9.52443L1.87789 7.10156H3.21472L4.14819 8.52067L5.09895 7.10156H6.35511L4.76474 9.46674C5.17962 9.9917 5.52535 10.4705 5.79618 10.9032C6.067 11.3358 6.2802 11.705 6.43578 11.9992H5.11624V12.005Z" fill="#1E1E1E"/>
<path d="M10.3366 11.0589V12.005H7.06372V7.10156H8.1643V11.0531H10.3366V11.0589Z" fill="#1E1E1E"/>
<path d="M12.5032 11.1629C12.6587 11.1629 12.7855 11.1514 12.8892 11.1225C12.9929 11.0994 13.0736 11.0591 13.1312 11.0187C13.1946 10.9725 13.235 10.9206 13.258 10.8571C13.2811 10.7937 13.2926 10.7245 13.2926 10.6495C13.2926 10.488 13.2177 10.3553 13.0679 10.2514C12.918 10.1476 12.6587 10.0322 12.29 9.91108C12.1286 9.85339 11.9673 9.78993 11.8117 9.71494C11.6504 9.63994 11.5063 9.54765 11.3795 9.43804C11.2528 9.32844 11.149 9.18998 11.0684 9.03423C10.9877 8.87847 10.9474 8.68233 10.9474 8.45735C10.9474 8.23237 10.9877 8.0247 11.0741 7.84587C11.1606 7.66704 11.2816 7.51128 11.4372 7.38437C11.5927 7.25746 11.7829 7.15939 12.0019 7.09016C12.2208 7.02094 12.4744 6.98633 12.7509 6.98633C13.0794 6.98633 13.3675 7.02094 13.6037 7.09016C13.8458 7.15939 14.0417 7.24015 14.1972 7.32091L13.8803 8.19199C13.742 8.12277 13.5922 8.05931 13.4251 8.00739C13.258 7.95547 13.0563 7.92663 12.8201 7.92663C12.555 7.92663 12.3649 7.96124 12.2496 8.03624C12.1344 8.11123 12.0768 8.2266 12.0768 8.37659C12.0768 8.46889 12.0998 8.54388 12.1401 8.60157C12.1805 8.66503 12.2439 8.71695 12.3188 8.76887C12.3937 8.82078 12.4859 8.86117 12.5896 8.90155C12.6933 8.94193 12.8028 8.98231 12.9238 9.02846C13.1773 9.12076 13.4021 9.21306 13.5865 9.30536C13.7766 9.39766 13.9322 9.50726 14.059 9.62841C14.1857 9.74955 14.2779 9.89377 14.3355 10.0611C14.3989 10.2284 14.4277 10.4245 14.4277 10.661C14.4277 11.1167 14.2664 11.4744 13.9495 11.7282C13.6268 11.9821 13.1485 12.109 12.5032 12.109C12.2842 12.109 12.094 12.0974 11.9154 12.0686C11.7426 12.0455 11.587 12.0109 11.4544 11.9705C11.3219 11.9301 11.2067 11.8955 11.1087 11.8494C11.0108 11.809 10.9301 11.7686 10.8667 11.7282L11.1779 10.8514C11.3219 10.9321 11.5063 11.0014 11.7195 11.0648C11.9269 11.134 12.192 11.1629 12.5032 11.1629Z" fill="#1E1E1E"/>
</svg>
