<svg width="17" height="18" viewBox="0 0 17 18" fill="none" xmlns="http://www.w3.org/2000/svg">
<path fill-rule="evenodd" clip-rule="evenodd" d="M11.4725 0.941406H10.9725V0.988435H2.38367C1.07151 0.988435 0 2.05995 0 3.37211V14.6741C0 15.9863 1.07151 17.0578 2.38367 17.0578H13.827C15.1391 17.0578 16.2107 15.9863 16.2107 14.6741V6.17967H16.2107V5.67967V3.37217C16.2107 2.05587 15.1397 1.00055 13.8498 0.941922L13.8384 0.941406H13.8271H11.4725ZM15.204 3.2363C15.2084 3.281 15.2107 3.32631 15.2107 3.37211V5.17967H13.3561C12.5963 5.17967 11.9725 4.55587 11.9725 3.796V1.98843H13.827C14.3836 1.98843 14.8672 2.32313 15.0861 2.80083C15.148 2.93692 15.1887 3.08351 15.204 3.2363ZM10.9725 1.98843V3.796C10.9725 5.10816 12.044 6.17967 13.3561 6.17967H15.2107V14.6741C15.2107 15.434 14.5869 16.0578 13.827 16.0578H2.38367C1.6238 16.0578 1 15.434 1 14.6741V3.37211C1 2.61223 1.6238 1.98843 2.38367 1.98843H10.9725Z" fill="#20C9BB"/>
<path d="M4.80362 12.005C4.66532 11.7339 4.51551 11.457 4.3484 11.1743C4.18706 10.8916 3.99691 10.6551 3.78371 10.4647C3.72032 10.5397 3.63389 10.6378 3.53593 10.7705C3.43221 10.9032 3.33426 11.0358 3.23054 11.1858C3.12682 11.33 3.03462 11.4858 2.94819 11.6416C2.86176 11.7973 2.79261 11.9185 2.75228 12.0108H1.49036C1.6978 11.63 1.93981 11.232 2.22215 10.8224C2.5045 10.4128 2.81566 9.98016 3.16139 9.52443L1.56526 7.10156H2.90209L3.83557 8.52067L4.78633 7.10156H6.04249L4.45212 9.46674C4.867 9.9917 5.21273 10.4705 5.48355 10.9032C5.75438 11.3358 5.96758 11.705 6.12316 11.9992H4.80362V12.005Z" fill="#20C9BB"/>
<path d="M10.0241 11.0589V12.005H6.75122V7.10156H7.8518V11.0531H10.0241V11.0589Z" fill="#20C9BB"/>
<path d="M12.1905 11.1629C12.3461 11.1629 12.4729 11.1514 12.5766 11.1225C12.6803 11.0994 12.761 11.0591 12.8186 11.0187C12.882 10.9725 12.9223 10.9206 12.9454 10.8571C12.9684 10.7937 12.98 10.7245 12.98 10.6495C12.98 10.488 12.9051 10.3553 12.7552 10.2514C12.6054 10.1476 12.3461 10.0322 11.9773 9.91108C11.816 9.85339 11.6547 9.78993 11.4991 9.71494C11.3377 9.63994 11.1937 9.54765 11.0669 9.43804C10.9401 9.32844 10.8364 9.18998 10.7558 9.03423C10.6751 8.87847 10.6347 8.68233 10.6347 8.45735C10.6347 8.23237 10.6751 8.0247 10.7615 7.84587C10.8479 7.66704 10.969 7.51128 11.1245 7.38437C11.2801 7.25746 11.4703 7.15939 11.6892 7.09016C11.9082 7.02094 12.1617 6.98633 12.4383 6.98633C12.7668 6.98633 13.0549 7.02094 13.2911 7.09016C13.5331 7.15939 13.729 7.24015 13.8846 7.32091L13.5677 8.19199C13.4294 8.12277 13.2796 8.05931 13.1125 8.00739C12.9454 7.95547 12.7437 7.92663 12.5075 7.92663C12.2424 7.92663 12.0522 7.96124 11.937 8.03624C11.8218 8.11123 11.7641 8.2266 11.7641 8.37659C11.7641 8.46889 11.7872 8.54388 11.8275 8.60157C11.8679 8.66503 11.9312 8.71695 12.0061 8.76887C12.0811 8.82078 12.1733 8.86117 12.277 8.90155C12.3807 8.94193 12.4902 8.98231 12.6112 9.02846C12.8647 9.12076 13.0894 9.21306 13.2738 9.30536C13.464 9.39766 13.6196 9.50726 13.7463 9.62841C13.8731 9.74955 13.9653 9.89377 14.0229 10.0611C14.0863 10.2284 14.1151 10.4245 14.1151 10.661C14.1151 11.1167 13.9538 11.4744 13.6368 11.7282C13.3142 11.9821 12.8359 12.109 12.1905 12.109C11.9716 12.109 11.7814 12.0974 11.6028 12.0686C11.4299 12.0455 11.2744 12.0109 11.1418 11.9705C11.0093 11.9301 10.894 11.8955 10.7961 11.8494C10.6981 11.809 10.6175 11.7686 10.5541 11.7282L10.8652 10.8514C11.0093 10.9321 11.1937 11.0014 11.4069 11.0648C11.6143 11.134 11.8794 11.1629 12.1905 11.1629Z" fill="#20C9BB"/>
</svg>
